<svg width="260" height="202" viewBox="0 0 260 202" fill="none" xmlns="http://www.w3.org/2000/svg">
<g opacity="0.5">
<path opacity="0.5" d="M46.4974 54.7057C61.3278 54.7057 73.3502 42.6833 73.3502 27.8528C73.3502 13.0224 61.3278 1 46.4974 1C31.667 1 19.6445 13.0224 19.6445 27.8528C19.6445 42.6833 31.667 54.7057 46.4974 54.7057Z" stroke="black" stroke-miterlimit="10"/>
<path opacity="0.5" d="M46.4974 52.0204C59.8448 52.0204 70.665 41.2002 70.665 27.8529C70.665 14.5055 59.8448 3.6853 46.4974 3.6853C33.15 3.6853 22.3298 14.5055 22.3298 27.8529C22.3298 41.2002 33.15 52.0204 46.4974 52.0204Z" stroke="black" stroke-miterlimit="10"/>
<path opacity="0.5" d="M37.0936 33.884L46.4974 27.8529L36.3954 11.3276" stroke="black" stroke-miterlimit="10"/>
</g>
<g opacity="0.5">
<path opacity="0.5" d="M81.7658 95.4844H18.3931V197.885H81.7658V95.4844Z" stroke="black" stroke-miterlimit="10"/>
<path opacity="0.5" d="M79.2577 101.209H20.8958V136.655H79.2577V101.209Z" stroke="black" stroke-miterlimit="10"/>
<path opacity="0.5" d="M53.479 115.173H44.5262V123.406H53.479V115.173Z" stroke="black" stroke-miterlimit="10"/>
<path opacity="0.5" d="M79.2577 142.026H20.8958V177.472H79.2577V142.026Z" stroke="black" stroke-miterlimit="10"/>
<path opacity="0.5" d="M53.479 155.989H44.5262V164.222H53.479V155.989Z" stroke="black" stroke-miterlimit="10"/>
<path opacity="0.5" d="M79.2577 183.202H20.8958V197.525H79.2577V183.202Z" stroke="black" stroke-miterlimit="10"/>
</g>
<g opacity="0.5">
<path opacity="0.5" d="M37.9796 83.8572H21.5725L23.6241 95.4522H35.928L37.9796 83.8572Z" stroke="black" stroke-miterlimit="10"/>
<path opacity="0.5" d="M31.8625 66.2739C31.8625 68.6101 29.5531 71.1074 29.5531 71.1074C29.5531 71.1074 26.0085 68.594 26.0085 66.2739C26.0085 63.9538 28.9355 60.8066 28.9355 60.8066C28.9355 60.8066 31.8625 63.9323 31.8625 66.2739Z" stroke="black" stroke-miterlimit="10"/>
<path opacity="0.5" d="M23.5113 72.7776C25.0096 74.5714 24.8432 77.9817 24.8432 77.9817C24.8432 77.9817 20.5145 78.3254 19.0161 76.5316C17.5177 74.7379 17.7594 70.4575 17.7594 70.4575C17.7594 70.4575 22.0236 71 23.5113 72.7776Z" stroke="black" stroke-miterlimit="10"/>
<path opacity="0.5" d="M34.7249 67.8904C36.3361 66.2094 40.1761 66.7358 40.1761 66.7358C40.1761 66.7358 40.5574 70.2857 38.9301 71.9667C37.3028 73.6477 33.0225 73.8518 33.0225 73.8518C33.0225 73.8518 33.0976 69.5553 34.7249 67.8904Z" stroke="black" stroke-miterlimit="10"/>
<path opacity="0.5" d="M37.2653 80.4683C35.0794 79.6412 33.5488 76.5907 33.5488 76.5907C33.5488 76.5907 37.1579 74.1686 39.3437 74.9796C41.5295 75.7905 43.4146 79.652 43.4146 79.652C43.4146 79.652 39.4511 81.3007 37.2653 80.4683Z" stroke="black" stroke-miterlimit="10"/>
<path opacity="0.5" d="M29.3973 83.6745V65.5005" stroke="black" stroke-miterlimit="10"/>
<path opacity="0.5" d="M29.2416 77.3588L38.3286 69.5071" stroke="black" stroke-miterlimit="10"/>
<path opacity="0.5" d="M29.3974 81.5157L20.16 74.2815" stroke="black" stroke-miterlimit="10"/>
<path opacity="0.5" d="M31.551 75.667L38.6348 78.4382" stroke="black" stroke-miterlimit="10"/>
</g>
<path opacity="0.5" d="M246.997 38.0139H123.833V120.259H246.997V38.0139Z" stroke="black" stroke-miterlimit="10"/>
<path opacity="0.5" d="M245.348 39.1201H125.488V119.158H245.348V39.1201Z" stroke="black" stroke-miterlimit="10"/>
<path opacity="0.3" d="M139.994 51.1073C139.994 51.1073 141.309 58.191 141.309 60.2909V67.6325C141.309 67.6325 146.556 67.8957 150.751 67.6325C154.945 67.3694 159.934 64.7485 159.934 64.7485C159.934 64.7485 158.098 57.6647 158.098 55.828C158.098 53.9913 157.024 49.5337 157.024 49.5337L139.994 51.1073Z" fill="white" stroke="black" stroke-miterlimit="10"/>
<path opacity="0.3" d="M140.52 95.1836C140.52 95.1836 139.736 101.215 139.736 103.841C139.736 106.467 138.42 110.662 138.42 110.662C138.42 110.662 144.72 113.025 146.293 113.025C147.867 113.025 154.687 112.488 154.687 112.488L155.735 97.0096C155.735 97.0096 142.62 95.7099 140.52 95.1836Z" fill="white" stroke="black" stroke-miterlimit="10"/>
<path opacity="0.3" d="M169.645 62.6487L172.813 77.074C172.813 77.074 176.75 77.3372 180.944 77.3372C185.139 77.3372 192.222 73.4006 192.222 73.4006C192.222 73.4006 188.812 66.5799 188.812 64.7432C188.812 62.9065 187.738 57.6594 187.738 57.6594C187.738 57.6594 176.997 61.0697 175.386 61.3329C173.775 61.596 169.645 62.6487 169.645 62.6487Z" fill="white" stroke="black" stroke-miterlimit="10"/>
<path opacity="0.3" d="M193.253 58.7175C193.253 58.7175 192.469 68.159 192.469 69.2116C192.469 70.2642 192.206 74.4587 192.206 74.4587C194.9 74.8679 197.615 75.1296 200.337 75.2428C203.227 75.2428 208.21 74.9796 208.21 74.9796C208.21 74.9796 207.947 65.8013 208.474 65.0118C209 64.2224 209.258 60.0279 209.258 60.0279C209.258 60.0279 194.295 58.9753 193.253 58.7175Z" fill="white" stroke="black" stroke-miterlimit="10"/>
<path opacity="0.3" d="M199.027 79.7057V86C199.027 87.0473 198.49 94.6574 198.49 94.6574C198.49 94.6574 205.31 94.9205 207.937 94.6574C210.563 94.3942 215.804 92.8206 215.804 92.8206L215.02 84.4264L214.483 78.6531C214.483 78.6531 201.911 80.4898 199.027 79.7057Z" fill="white" stroke="black" stroke-miterlimit="10"/>
<path opacity="0.3" d="M238.646 44.3134L232.609 44.5766H229.462V49.0341C229.462 50.3446 229.199 54.5444 229.199 55.3285C229.199 56.1126 233.399 56.6443 235.235 56.6443H241.793L242.056 43.7871L238.646 44.3134Z" fill="white" stroke="black" stroke-miterlimit="10"/>
<g opacity="0.5">
<path opacity="0.5" d="M223.425 72.6218H234.709" stroke="black" stroke-miterlimit="10"/>
<path opacity="0.5" d="M223.425 75.2427H234.709" stroke="black" stroke-miterlimit="10"/>
<path opacity="0.5" d="M223.425 77.8689H234.709" stroke="black" stroke-miterlimit="10"/>
<path opacity="0.5" d="M223.425 80.4897H234.709" stroke="black" stroke-miterlimit="10"/>
</g>
<g opacity="0.5">
<path opacity="0.5" d="M165.182 42.7131H202.437" stroke="black" stroke-miterlimit="10"/>
<path opacity="0.5" d="M165.182 45.334H202.437" stroke="black" stroke-miterlimit="10"/>
</g>
<g opacity="0.5">
<path opacity="0.5" d="M203.227 99.9043H214.505" stroke="black" stroke-miterlimit="10"/>
<path opacity="0.5" d="M203.227 102.531H214.505" stroke="black" stroke-miterlimit="10"/>
<path opacity="0.5" d="M203.227 105.151H214.505" stroke="black" stroke-miterlimit="10"/>
<path opacity="0.5" d="M203.227 107.778H214.505" stroke="black" stroke-miterlimit="10"/>
</g>
<g opacity="0.5">
<path opacity="0.5" d="M133.173 82.5896H144.457" stroke="black" stroke-miterlimit="10"/>
<path opacity="0.5" d="M133.173 85.2158H144.457" stroke="black" stroke-miterlimit="10"/>
<path opacity="0.5" d="M133.173 87.8367H144.457" stroke="black" stroke-miterlimit="10"/>
<path opacity="0.5" d="M133.173 90.4629H144.457" stroke="black" stroke-miterlimit="10"/>
</g>
<g opacity="0.5">
<path opacity="0.5" d="M212.668 49.5337H223.952" stroke="black" stroke-miterlimit="10"/>
<path opacity="0.5" d="M212.668 52.1545H223.952" stroke="black" stroke-miterlimit="10"/>
<path opacity="0.5" d="M212.668 54.7808H223.952" stroke="black" stroke-miterlimit="10"/>
<path opacity="0.5" d="M212.668 57.4016H223.952" stroke="black" stroke-miterlimit="10"/>
</g>
<path opacity="0.5" d="M171.363 74.5875L164.891 76.435L166.556 77.8743C163.533 79.8668 157.126 83.2771 152.931 79.8131C147.308 75.1675 148.823 71.1557 148.887 70.9838L148.393 70.7851L147.894 70.5811C147.813 70.7744 145.982 75.4629 152.249 80.6401C153.677 81.8134 155.477 82.4364 157.324 82.3963C161.239 82.3963 165.278 80.0655 167.41 78.6369L169.516 80.4575L171.363 74.5875Z" fill="black"/>
<path opacity="0.5" d="M236.675 63.5455L234.806 57.3157L231.379 62.2996L233.28 62.7453L231.304 69.8506L232.34 70.1406L234.328 62.9924L236.675 63.5455Z" fill="black"/>
<path opacity="0.3" d="M150.751 51.8914C150.755 51.5791 150.666 51.2726 150.496 51.0109C150.325 50.7492 150.081 50.5441 149.793 50.4219C149.506 50.2997 149.188 50.2657 148.882 50.3244C148.575 50.3831 148.292 50.5318 148.07 50.7515C147.848 50.9713 147.697 51.2521 147.635 51.5583C147.573 51.8644 147.604 52.1821 147.723 52.4708C147.842 52.7595 148.045 53.0062 148.305 53.1794C148.565 53.3526 148.87 53.4446 149.183 53.4435C149.595 53.4422 149.991 53.2787 150.284 52.9884C150.578 52.6981 150.745 52.3041 150.751 51.8914Z" fill="white" stroke="black" stroke-miterlimit="10"/>
<path opacity="0.3" d="M179.612 61.8646C179.612 61.5534 179.52 61.2491 179.347 60.9904C179.174 60.7316 178.928 60.5299 178.641 60.4108C178.353 60.2917 178.037 60.2605 177.732 60.3213C177.426 60.382 177.146 60.5318 176.926 60.7519C176.706 60.972 176.556 61.2524 176.495 61.5576C176.435 61.8628 176.466 62.1792 176.585 62.4668C176.704 62.7543 176.906 63.0001 177.164 63.173C177.423 63.3459 177.727 63.4382 178.039 63.4382C178.456 63.4382 178.856 63.2724 179.151 62.9773C179.446 62.6822 179.612 62.2819 179.612 61.8646Z" fill="#FECE3E" stroke="black" stroke-miterlimit="10"/>
<path opacity="0.3" d="M201.911 61.0751C202.78 61.0751 203.484 60.3706 203.484 59.5016C203.484 58.6325 202.78 57.928 201.911 57.928C201.042 57.928 200.337 58.6325 200.337 59.5016C200.337 60.3706 201.042 61.0751 201.911 61.0751Z" fill="white" stroke="black" stroke-miterlimit="10"/>
<path opacity="0.3" d="M207.158 82.8527C208.027 82.8527 208.732 82.1482 208.732 81.2791C208.732 80.4101 208.027 79.7056 207.158 79.7056C206.289 79.7056 205.584 80.4101 205.584 81.2791C205.584 82.1482 206.289 82.8527 207.158 82.8527Z" fill="white" stroke="black" stroke-miterlimit="10"/>
<path opacity="0.3" d="M150.751 98.0675C150.753 97.7556 150.662 97.4501 150.49 97.1898C150.319 96.9295 150.073 96.7261 149.786 96.6055C149.498 96.4849 149.181 96.4525 148.875 96.5125C148.569 96.5724 148.287 96.722 148.066 96.9421C147.846 97.1623 147.695 97.4432 147.634 97.7491C147.573 98.055 147.604 98.3721 147.724 98.6601C147.844 98.9482 148.046 99.1942 148.306 99.367C148.565 99.5397 148.871 99.6314 149.183 99.6303C149.597 99.6289 149.994 99.464 150.288 99.1713C150.582 98.8787 150.748 98.482 150.751 98.0675Z" fill="#FECE3E" stroke="black" stroke-miterlimit="10"/>
<path opacity="0.3" d="M237.33 44.3136C237.33 44.0023 237.237 43.6981 237.065 43.4393C236.892 43.1806 236.646 42.9789 236.358 42.8598C236.071 42.7407 235.754 42.7095 235.449 42.7702C235.144 42.8309 234.864 42.9808 234.644 43.2009C234.423 43.421 234.274 43.7013 234.213 44.0066C234.152 44.3118 234.183 44.6282 234.302 44.9158C234.422 45.2033 234.623 45.449 234.882 45.6219C235.141 45.7949 235.445 45.8871 235.756 45.8871C236.174 45.8871 236.574 45.7214 236.869 45.4263C237.164 45.1312 237.33 44.7309 237.33 44.3136Z" fill="#FECE3E" stroke="black" stroke-miterlimit="10"/>
<path d="M186.358 188.127V186.467L187.636 186.199L186.358 185.876V185.42L187.512 184.883L186.358 184.539V177.719H184.951V176.317L185.6 176.263L184.951 175.957V175.42L186.562 175.656L185.488 174.34L184.951 173.551V173.25L186.675 173.143C186.675 173.143 185.697 172.547 184.951 172.01V166.328H186.675C186.675 166.328 185.724 165.876 184.951 165.49V163.379H145.579V166.822L143.812 167.525L145.563 168.304V168.707C145.026 169.018 144.097 169.582 143.952 169.92C143.715 170.398 143.232 171.473 143.232 171.473C143.232 171.473 144.43 171.236 144.79 171.113C145.058 171.058 145.338 171.094 145.584 171.215V171.279L144.188 172.67L145.579 173.282V178.003H148.672V178.331C148.45 178.384 148.231 178.452 148.017 178.535C147.314 178.89 146.634 179.29 145.982 179.733L147.776 179.614L146.938 180.93L148.672 181.038V187.563H144.736V189.937C144.454 189.995 144.186 190.106 143.946 190.264C143.666 190.467 143.409 190.699 143.178 190.957C142.641 191.532 142.153 192.181 142.153 192.181L144.188 191.58L143.114 193.019L143.952 193.256L143.232 194.33L144.741 194.437V196.838H184.091V195.227L185.466 195.28L184.983 195.044L186.181 194.684L184.983 193.487L184.628 192.053L184.091 191.961V188.116L186.358 188.127Z" fill="#B5B5B5"/>
<path d="M147.298 167.047H171.234" stroke="#263238" stroke-miterlimit="10"/>
<path d="M147.539 169.083H161.181" stroke="#263238" stroke-miterlimit="10"/>
<path d="M181.771 171.95H157.829" stroke="#263238" stroke-miterlimit="10"/>
<path d="M149.811 178.057H182.131" stroke="#263238" stroke-miterlimit="10"/>
<path d="M149.215 173.868H172.673" stroke="#263238" stroke-miterlimit="10"/>
<path d="M182.727 180.452H165.493" stroke="#263238" stroke-miterlimit="10"/>
<path d="M182.008 183.685H150.412" stroke="#263238" stroke-miterlimit="10"/>
<path d="M156.632 186.435H175.305" stroke="#263238" stroke-miterlimit="10"/>
<path d="M182.969 188.111H151.846" stroke="#263238" stroke-miterlimit="10"/>
<path d="M147.179 192.541H169.682" stroke="#263238" stroke-miterlimit="10"/>
<path d="M167.529 190.264H151.009" stroke="#263238" stroke-miterlimit="10"/>
<path d="M153.522 193.857H177.459" stroke="#263238" stroke-miterlimit="10"/>
<path d="M181.052 190.028H174.585" stroke="#263238" stroke-miterlimit="10"/>
<path d="M197.099 154.63V152.971L198.377 152.702L197.099 152.38V151.924L198.254 151.387L197.099 151.037V144.206H195.692V142.804L196.342 142.751L195.692 142.445V141.908L197.303 142.149L196.229 140.828L195.692 140.039V139.743L197.416 139.636C197.416 139.636 196.438 139.034 195.692 138.497V132.831H197.416C197.416 132.831 196.465 132.38 195.692 131.999V129.883H156.32V133.331L154.569 134.029L156.32 134.808V135.21C155.783 135.522 154.854 136.091 154.709 136.424C154.473 136.902 153.989 137.982 153.989 137.982C153.989 137.982 155.187 137.74 155.547 137.622C155.815 137.563 156.095 137.597 156.342 137.718V137.761L154.951 139.152L156.342 139.765V144.485H159.435V144.818C159.212 144.869 158.993 144.938 158.78 145.022C158.076 145.374 157.396 145.773 156.744 146.215L158.538 146.097L157.679 147.428L159.414 147.536V154.061H155.477V156.44C155.194 156.496 154.926 156.607 154.687 156.768C154.409 156.97 154.151 157.201 153.919 157.455C153.382 158.03 152.894 158.68 152.894 158.68L154.929 158.084L153.855 159.518L154.693 159.759L153.973 160.833L155.482 160.941V163.341H194.832V161.73L196.207 161.789L195.724 161.548L196.922 161.188L195.724 159.99L195.37 158.556L194.832 158.465V154.62L197.099 154.63Z" fill="#B5B5B5"/>
<path d="M158.039 133.551H181.975" stroke="#263238" stroke-miterlimit="10"/>
<path d="M158.28 135.586H171.922" stroke="#263238" stroke-miterlimit="10"/>
<path d="M192.512 138.46H168.57" stroke="#263238" stroke-miterlimit="10"/>
<path d="M160.552 144.561H192.872" stroke="#263238" stroke-miterlimit="10"/>
<path d="M159.956 140.372H183.415" stroke="#263238" stroke-miterlimit="10"/>
<path d="M193.468 146.956H176.234" stroke="#263238" stroke-miterlimit="10"/>
<path d="M192.749 150.189H161.154" stroke="#263238" stroke-miterlimit="10"/>
<path d="M167.373 152.939H186.046" stroke="#263238" stroke-miterlimit="10"/>
<path d="M193.71 154.614H162.588" stroke="#263238" stroke-miterlimit="10"/>
<path d="M157.921 159.045H180.423" stroke="#263238" stroke-miterlimit="10"/>
<path d="M178.27 156.773H161.75" stroke="#263238" stroke-miterlimit="10"/>
<path d="M164.263 160.361H188.2" stroke="#263238" stroke-miterlimit="10"/>
<path d="M191.793 156.531H185.327" stroke="#263238" stroke-miterlimit="10"/>
<path d="M222.303 188.127V186.467L223.581 186.199L222.303 185.876V185.42L223.463 184.883L222.303 184.539V177.719H220.896V176.317L221.546 176.263L220.896 175.957V175.42L222.507 175.656L221.433 174.34L220.896 173.551V173.25L222.625 173.143C222.625 173.143 221.648 172.547 220.896 172.01V166.328H222.625C222.625 166.328 221.669 165.876 220.896 165.49V163.379H181.524V166.822L179.795 167.525L181.546 168.304V168.707C181.009 169.018 180.085 169.582 179.935 169.92C179.698 170.398 179.22 171.473 179.22 171.473C179.22 171.473 180.418 171.236 180.772 171.113C181.041 171.058 181.321 171.094 181.567 171.215V171.279L180.133 172.67L181.524 173.282V178.003H184.628V178.331C184.406 178.385 184.187 178.453 183.973 178.535C183.271 178.891 182.591 179.291 181.938 179.733L183.737 179.614L182.899 180.93L184.628 181.038V187.563H180.692V189.937C180.41 189.995 180.142 190.106 179.902 190.264C179.623 190.468 179.366 190.7 179.134 190.957C178.597 191.532 178.109 192.181 178.109 192.181L180.144 191.58L179.07 193.019L179.908 193.256L179.193 194.33L180.697 194.437V196.838H220.074V195.227L221.449 195.28L220.971 195.044L222.169 194.684L220.971 193.487L220.611 192.053L220.074 191.961V188.116L222.303 188.127Z" fill="#B5B5B5" stroke="#263238" stroke-miterlimit="10"/>
<path d="M183.243 167.047H207.185" stroke="#263238" stroke-miterlimit="10"/>
<path d="M183.484 169.083H197.131" stroke="#263238" stroke-miterlimit="10"/>
<path d="M217.717 171.95H193.78" stroke="#263238" stroke-miterlimit="10"/>
<path d="M185.762 178.057H218.076" stroke="#263238" stroke-miterlimit="10"/>
<path d="M185.16 173.868H208.619" stroke="#263238" stroke-miterlimit="10"/>
<path d="M218.672 180.452H201.438" stroke="#263238" stroke-miterlimit="10"/>
<path d="M217.958 183.685H186.358" stroke="#263238" stroke-miterlimit="10"/>
<path d="M192.582 186.435H211.256" stroke="#263238" stroke-miterlimit="10"/>
<path d="M218.914 188.111H187.792" stroke="#263238" stroke-miterlimit="10"/>
<path d="M183.125 192.541H205.627" stroke="#263238" stroke-miterlimit="10"/>
<path d="M203.474 190.264H186.954" stroke="#263238" stroke-miterlimit="10"/>
<path d="M189.467 193.857H213.409" stroke="#263238" stroke-miterlimit="10"/>
<path d="M216.997 190.028H210.536" stroke="#263238" stroke-miterlimit="10"/>
<path d="M232.185 188.127V186.467L233.463 186.199L232.185 185.876V185.42L233.345 184.883L232.185 184.539V177.719H230.778V176.317L231.428 176.263L230.778 175.957V175.42L232.389 175.656L231.315 174.34L230.778 173.551V173.25L232.507 173.143C232.507 173.143 231.53 172.547 230.778 172.01V166.328H232.507C232.507 166.328 231.551 165.876 230.778 165.49V163.379H191.406V166.822L189.655 167.525L191.406 168.304V168.707C190.869 169.018 189.945 169.582 189.795 169.92C189.559 170.398 189.081 171.473 189.081 171.473C189.081 171.473 190.278 171.236 190.633 171.113C190.902 171.058 191.181 171.094 191.428 171.215V171.279L189.999 172.67L191.39 173.282V178.003H194.483V178.331C194.261 178.385 194.042 178.453 193.828 178.535C193.125 178.891 192.446 179.291 191.793 179.733L193.592 179.614L192.754 180.93L194.483 181.038V187.563H190.547V189.937C190.265 189.995 189.997 190.106 189.757 190.264C189.478 190.468 189.221 190.7 188.989 190.957C188.452 191.532 187.964 192.181 187.964 192.181L189.999 191.58L188.925 193.019L189.763 193.256L189.048 194.33L190.552 194.437V196.838H229.924V195.227L231.299 195.28L230.821 195.044L232.018 194.684L230.815 193.497L230.455 192.063L229.918 191.972V188.127H232.185Z" fill="white" stroke="#263238" stroke-miterlimit="10"/>
<path d="M193.125 167.047H217.067" stroke="#263238" stroke-miterlimit="10"/>
<path d="M193.366 169.083H207.013" stroke="#263238" stroke-miterlimit="10"/>
<path d="M227.598 171.95H203.662" stroke="#263238" stroke-miterlimit="10"/>
<path d="M195.638 178.057H227.958" stroke="#263238" stroke-miterlimit="10"/>
<path d="M195.042 173.868H218.501" stroke="#263238" stroke-miterlimit="10"/>
<path d="M228.554 180.452H211.32" stroke="#263238" stroke-miterlimit="10"/>
<path d="M227.84 183.685H196.24" stroke="#263238" stroke-miterlimit="10"/>
<path d="M202.464 186.435H221.138" stroke="#263238" stroke-miterlimit="10"/>
<path d="M228.796 188.111H197.674" stroke="#263238" stroke-miterlimit="10"/>
<path d="M193.006 192.541H215.509" stroke="#263238" stroke-miterlimit="10"/>
<path d="M213.356 190.264H196.836" stroke="#263238" stroke-miterlimit="10"/>
<path d="M199.349 193.857H223.291" stroke="#263238" stroke-miterlimit="10"/>
<path d="M226.879 190.028H220.418" stroke="#263238" stroke-miterlimit="10"/>
<path d="M232.185 155.184V153.524L233.463 153.256L232.185 152.939V152.482L233.345 151.945L232.185 151.596V144.781H230.778V143.374L231.428 143.32L230.778 143.014V142.477L232.389 142.713L231.315 141.397L230.778 140.603V140.307L232.507 140.2C232.507 140.2 231.53 139.604 230.778 139.067V133.39H232.507C232.507 133.39 231.551 132.933 230.778 132.552V130.436H191.406V133.884L189.655 134.582L191.406 135.366V135.769C190.869 136.081 189.945 136.644 189.795 136.977C189.559 137.455 189.081 138.535 189.081 138.535C189.081 138.535 190.278 138.293 190.633 138.175C190.902 138.121 191.181 138.156 191.428 138.277V138.336L190.037 139.733L191.428 140.339V145.06H194.521V145.393C194.299 145.447 194.08 145.515 193.866 145.597C193.162 145.952 192.482 146.352 191.83 146.795L193.629 146.671L192.792 147.992L194.521 148.1V154.625H190.584V156.999C190.303 157.057 190.035 157.168 189.795 157.326C189.516 157.531 189.259 157.763 189.027 158.019C188.665 158.41 188.322 158.819 188.001 159.244L190.037 158.642L188.962 160.082L189.8 160.318L189.086 161.392L190.59 161.499V163.9H229.961V162.289L231.336 162.343L230.858 162.101L232.056 161.746L230.815 160.56L230.455 159.12L229.918 159.034V155.184H232.185Z" fill="white" stroke="#263238" stroke-miterlimit="10"/>
<path d="M193.125 134.104H217.067" stroke="#263238" stroke-miterlimit="10"/>
<path d="M193.366 136.139H207.013" stroke="#263238" stroke-miterlimit="10"/>
<path d="M227.598 139.013H203.662" stroke="#263238" stroke-miterlimit="10"/>
<path d="M195.638 145.119H227.958" stroke="#263238" stroke-miterlimit="10"/>
<path d="M195.042 140.93H218.501" stroke="#263238" stroke-miterlimit="10"/>
<path d="M228.554 147.509H211.32" stroke="#263238" stroke-miterlimit="10"/>
<path d="M227.84 150.742H196.24" stroke="#263238" stroke-miterlimit="10"/>
<path d="M202.464 153.497H221.138" stroke="#263238" stroke-miterlimit="10"/>
<path d="M228.796 155.173H197.674" stroke="#263238" stroke-miterlimit="10"/>
<path d="M193.006 159.598H215.509" stroke="#263238" stroke-miterlimit="10"/>
<path d="M213.356 157.326H196.836" stroke="#263238" stroke-miterlimit="10"/>
<path d="M199.349 160.919H223.291" stroke="#263238" stroke-miterlimit="10"/>
<path d="M226.879 157.085H220.418" stroke="#263238" stroke-miterlimit="10"/>
<path d="M161.675 196.258H115.756V193.809L161.675 191.365V196.258Z" fill="white" stroke="#263238" stroke-miterlimit="10"/>
<path d="M187.851 187.171L176.036 157.88L174.038 158.691V159.169L185.703 188.03C185.974 188.707 186.075 189.441 185.997 190.167C185.919 190.892 185.664 191.588 185.255 192.192C184.846 192.796 184.295 193.291 183.65 193.633C183.005 193.975 182.286 194.153 181.556 194.152H166.073V196.489H181.556C182.664 196.483 183.754 196.206 184.731 195.684C185.708 195.162 186.543 194.409 187.163 193.491C187.783 192.573 188.17 191.517 188.289 190.416C188.409 189.315 188.259 188.201 187.851 187.171Z" fill="white" stroke="#263238" stroke-miterlimit="10"/>
<path d="M181.822 117.445L178.175 117.005L169.925 185.382L173.572 185.822L181.822 117.445Z" fill="white" stroke="#263238" stroke-miterlimit="10"/>
<path d="M166.46 196.301H146.589V193.964C146.588 192.743 147.04 191.564 147.859 190.657C148.678 189.75 149.804 189.18 151.019 189.056L161.046 188.041C161.732 187.972 162.424 188.047 163.079 188.262C163.733 188.477 164.335 188.827 164.846 189.289C165.357 189.751 165.766 190.315 166.046 190.944C166.326 191.574 166.47 192.255 166.47 192.944L166.46 196.301Z" fill="white" stroke="#263238" stroke-miterlimit="10"/>
<path d="M78.1944 99.8452C78.1944 99.8452 73.957 89.5928 69.9452 88.7013C65.9334 87.8098 49 96.2792 53.6724 104.083C58.3448 111.886 63.2588 111.435 67.7164 109.453C72.174 107.471 78.1944 99.8452 78.1944 99.8452Z" fill="#263238" stroke="#263238" stroke-miterlimit="10"/>
<path d="M59.9129 92.4876C59.9129 92.4876 55.4553 90.9302 53.2265 90.9302C50.9978 90.9302 50.5413 98.0623 50.5413 98.0623C50.5413 98.0623 52.1148 91.1504 59.9129 92.4876Z" fill="#263238" stroke="#263238" stroke-miterlimit="10"/>
<path d="M108.06 107.649C108.06 107.649 110.514 110.989 111.18 113.889C111.846 116.789 110.069 119.904 110.735 122.359C111.401 124.813 114.526 127.036 114.301 128.599C114.075 130.162 109.623 132.611 109.623 132.611C109.623 132.611 105.831 141.741 104.252 142.418C102.673 143.094 97.3619 141.521 94.9397 140.414C92.5176 139.308 89.3651 139.523 89.3651 139.523L74.8645 132.165C74.8645 132.165 76.4274 129.265 74.6444 125.033C72.8613 120.801 71.9591 113.664 82.8882 106.531C93.8173 99.3994 108.06 107.649 108.06 107.649Z" fill="white" stroke="#263238" stroke-miterlimit="10"/>
<path d="M106.057 132.165C105.754 131.701 105.298 131.357 104.768 131.194C104.238 131.031 103.668 131.059 103.157 131.274" stroke="#263238" stroke-miterlimit="10"/>
<path d="M107.829 121.241C107.829 122.353 107.48 123.25 107.05 123.25C106.621 123.25 106.266 122.353 106.266 121.241C106.266 120.13 106.615 119.238 107.05 119.238C107.485 119.238 107.829 120.135 107.829 121.241Z" fill="#263238"/>
<path d="M105.611 115.672C105.819 115.459 106.07 115.293 106.349 115.187C106.627 115.081 106.925 115.036 107.222 115.057C107.52 115.078 107.809 115.164 108.069 115.308C108.33 115.452 108.556 115.652 108.731 115.892" stroke="#263238" stroke-miterlimit="10"/>
<path d="M107.281 125.699C109.435 125.699 111.18 122.905 111.18 119.459C111.18 116.012 109.435 113.218 107.281 113.218C105.128 113.218 103.382 116.012 103.382 119.459C103.382 122.905 105.128 125.699 107.281 125.699Z" stroke="#263238" stroke-miterlimit="10"/>
<path d="M103.382 119.458L85.9924 121.242" stroke="#263238" stroke-miterlimit="10"/>
<path d="M82.4263 125.479C82.4263 125.479 78.1943 130.162 75.74 130.162C73.2856 130.162 68.6079 127.036 66.3791 123.717C64.1503 120.398 68.6079 111.902 71.0622 106.999C73.5166 102.096 77.9688 93.8464 87.1095 92.0633C96.2502 90.2803 99.8162 90.9516 107.614 94.9634C115.412 98.9753 114.526 104.77 113.189 106.553C112.204 107.792 111.082 108.914 109.843 109.899C109.843 109.899 114.746 107.214 116.529 108.116C118.312 109.018 118.318 110.119 118.318 110.119C118.318 110.119 112.743 110.345 112.072 110.345C111.401 110.345 109.177 111.456 109.177 111.456C109.177 111.456 104.494 112.574 102.045 111.902C99.596 111.231 96.2502 108.76 96.0139 111.446C95.7776 114.131 92.4478 118.803 91.1105 119.249C89.7733 119.695 87.7647 119.915 85.9817 121.252C84.1986 122.59 82.4263 125.479 82.4263 125.479Z" fill="#263238" stroke="#263238" stroke-miterlimit="10"/>
<path d="M87.5552 123.47C87.5552 123.47 84.4349 117.026 81.3146 119.684C78.1943 122.343 81.5348 129.265 82.8721 129.937C84.2093 130.608 86.8839 128.82 86.8839 128.82C86.8839 128.82 87.1095 131.72 88.001 133.057" fill="white"/>
<path d="M87.5552 123.47C87.5552 123.47 84.4349 117.026 81.3146 119.684C78.1943 122.343 81.5348 129.265 82.8721 129.937C84.2093 130.608 86.8839 128.82 86.8839 128.82C86.8839 128.82 87.1095 131.72 88.001 133.057" stroke="#263238" stroke-miterlimit="10"/>
<path d="M69.725 139.523C69.725 139.523 73.4844 135.731 73.4844 133.282C73.4844 130.833 74.8216 128.819 83.291 132.837C91.7604 136.854 94.6874 141.521 92.9044 142.863C91.1213 144.206 87.3297 145.549 86.4597 146.43C85.5896 147.31 82.4479 151.558 82.4479 151.558C82.4479 151.558 77.0773 139.523 69.725 139.523Z" fill="#FECE3E" stroke="#263238" stroke-miterlimit="10"/>
<path d="M78.957 131.521C78.957 131.521 77.0666 131.902 77.4479 133.223C77.672 134.024 77.672 134.871 77.4479 135.672L76.3147 137.375" stroke="#263238" stroke-miterlimit="10"/>
<path d="M83.3178 132.837C83.3178 132.837 81.2179 135.108 81.4059 135.86C81.5939 136.612 81.9752 137.751 81.2179 138.127C80.5455 138.427 79.8528 138.68 79.1449 138.884" stroke="#263238" stroke-miterlimit="10"/>
<path d="M84.0483 141.585C83.6562 142.16 83.2964 142.659 83.2964 142.659" stroke="#263238" stroke-miterlimit="10"/>
<path d="M87.2599 135.484C87.2599 135.484 87.6359 137.181 86.8786 138.315C86.1214 139.448 85.1815 139.448 84.9935 140.012" stroke="#263238" stroke-miterlimit="10"/>
<path d="M91.4113 138.502C91.0638 139.487 90.6214 140.434 90.0901 141.333C89.5209 142.09 87.4478 141.902 87.0665 142.842C86.6957 143.567 86.1824 144.21 85.5574 144.732" stroke="#263238" stroke-miterlimit="10"/>
<path d="M134.779 173.943C133.119 173.282 128.474 172.616 128.474 172.616" stroke="#263238" stroke-miterlimit="10"/>
<path d="M126.481 171.95C126.481 171.95 130.133 170.957 132.453 171.95" stroke="#263238" stroke-miterlimit="10"/>
<path d="M134.037 179.652C134.037 179.652 136.008 183.051 136.546 184.126C137.083 185.2 137.26 185.737 136.723 185.737C136.186 185.737 134.215 184.845 134.037 183.771C133.965 183.204 133.783 182.657 133.5 182.16C133.5 182.16 134.51 186.097 134.215 186.274C133.049 186.988 132.249 185.737 132.249 185.737L130.815 181.44C130.815 181.44 130.278 183.588 130.101 184.126C129.924 184.663 128.844 183.234 128.844 182.16C128.862 181.321 128.923 180.484 129.027 179.652L127.953 178.755C127.953 178.755 129.564 177.144 131.352 177.144C133.141 177.144 134.037 179.652 134.037 179.652Z" fill="white" stroke="#263238" stroke-miterlimit="10"/>
<path d="M106.47 174.281L107.169 174.233C110.257 174.029 122.512 173.207 123.28 173.207C124.177 173.207 129.365 176.07 129.365 176.07C130.978 175.972 132.597 176.033 134.199 176.252C135.992 176.607 137.604 178.755 138.318 179.475C139.032 180.194 141.363 181.086 140.106 181.44C138.85 181.795 138.318 181.977 137.604 181.8C136.889 181.623 134.021 179.652 134.021 179.652L129.365 178.938C129.365 178.938 125.069 181.263 124.532 181.44C123.995 181.617 125.251 182.874 126.503 183.771C127.754 184.668 129.725 185.919 129.548 187.348C129.371 188.776 128.828 188.605 127.4 187.348C125.971 186.091 124.532 185.382 122.383 183.948C120.421 182.537 118.566 180.98 116.836 179.292L115.762 178.218C115.762 178.218 103.232 182.337 98.9355 183.588C95.0029 184.694 90.9998 185.532 86.9538 186.097C84.2685 186.456 79.0805 185.382 77.6466 184.308C76.2126 183.234 72.4532 179.829 72.4532 179.829L78.8979 166.94C78.8979 166.94 86.5993 174.104 89.6391 174.818C92.6788 175.533 106.47 174.281 106.47 174.281Z" fill="white" stroke="#263238" stroke-miterlimit="10"/>
<path d="M89.6391 174.818C86.5993 174.104 78.8979 166.94 78.8979 166.94L72.4532 179.829C72.4532 179.829 76.2126 183.234 77.6466 184.308C79.0805 185.382 84.2685 186.456 86.9538 186.097C90.6272 185.583 94.2662 184.848 97.8507 183.895C97.9473 183.073 98.0225 182.192 98.0548 181.263C98.1246 179.233 98.0547 176.934 97.9527 174.888C94.4941 175.087 90.9978 175.157 89.6391 174.818Z" fill="#FECE3E" stroke="#263238" stroke-miterlimit="10"/>
<path d="M85.1815 153.653C85.166 149.95 83.9964 146.344 81.8356 143.336C80.7969 141.814 79.3913 140.578 77.7486 139.743C70.305 136.36 65.0741 138.814 60.3587 145.114C50.9978 157.6 44.5961 172.428 42.0988 178.551C36.8302 191.311 35.8635 195.914 35.8635 195.914H71.0837C71.0837 195.914 69.3007 191.456 69.3007 190.345C69.3007 189.233 71.0837 186.999 71.0837 186.999C71.0837 186.999 81.7819 183.207 83.7851 177.412C85.2405 173.148 85.2728 160.2 85.1815 153.653Z" fill="#FECE3E" stroke="#263238" stroke-miterlimit="10"/>
<path d="M137.099 156.687C139.928 157.254 142.71 158.031 145.423 159.013" stroke="#263238" stroke-miterlimit="10"/>
<path d="M142.41 155.694C144.437 156.531 146.337 157.648 148.055 159.013" stroke="#263238" stroke-miterlimit="10"/>
<path d="M62.3673 162.702C62.3673 162.702 73.291 192.574 76.1858 193.465C79.0805 194.357 81.9806 193.019 83.3179 192.128C84.6552 191.236 123.441 163.819 123.441 163.819C123.441 163.819 130.353 167.837 131.691 167.837C133.028 167.837 135.702 171.848 136.368 173.207C137.034 174.566 137.706 175.21 137.931 173.873C138.157 172.536 136.368 169.641 135.923 168.75C135.666 168.244 135.444 167.722 135.257 167.187C136.031 167.29 136.783 167.517 137.485 167.858C138.151 168.304 140.38 171.199 141.052 172.09C141.723 172.982 143.28 173.873 143.28 172.536C143.28 171.199 140.826 168.75 140.38 167.633C140.123 166.977 139.652 166.428 139.043 166.075C139.043 166.075 143.28 166.741 144.413 167.187C145.547 167.633 146.202 170.307 147.539 170.533C148.876 170.758 146.868 167.847 146.422 166.521C145.976 165.194 140.402 163.401 140.402 163.401C140.402 163.401 143.968 162.955 145.085 162.955C146.202 162.955 148.646 165.151 149.301 165.151C149.956 165.151 149.967 164.48 148.184 163.143C146.401 161.806 143.28 160.458 141.943 160.458C140.596 160.421 139.254 160.271 137.931 160.012C136.594 159.792 126.562 157.783 124.558 157.783C122.555 157.783 92.4586 171.827 92.4586 171.827L90.5091 170.092C90.4717 170.059 90.4247 170.038 90.3748 170.033L90.0472 169.996C88.9231 169.901 87.8028 170.218 86.8947 170.887C86.7336 170.995 86.5725 170.978 86.4382 170.71C85.9924 169.818 83.0977 151.988 81.5349 148.196C79.972 144.405 75.0902 135.941 66.6047 140.844" fill="white"/>
<path d="M62.3673 162.702C62.3673 162.702 73.291 192.574 76.1858 193.465C79.0805 194.357 81.9806 193.019 83.3179 192.128C84.6552 191.236 123.441 163.819 123.441 163.819C123.441 163.819 130.353 167.837 131.691 167.837C133.028 167.837 135.702 171.848 136.368 173.207C137.034 174.566 137.706 175.21 137.931 173.873C138.157 172.536 136.368 169.641 135.923 168.75C135.666 168.244 135.444 167.722 135.257 167.187C136.031 167.29 136.783 167.517 137.485 167.858C138.151 168.304 140.38 171.199 141.052 172.09C141.723 172.982 143.28 173.873 143.28 172.536C143.28 171.199 140.826 168.75 140.38 167.633C140.123 166.977 139.652 166.428 139.043 166.075C139.043 166.075 143.28 166.741 144.413 167.187C145.547 167.633 146.202 170.307 147.539 170.533C148.876 170.758 146.868 167.847 146.422 166.521C145.976 165.194 140.402 163.401 140.402 163.401C140.402 163.401 143.968 162.955 145.085 162.955C146.202 162.955 148.646 165.151 149.301 165.151C149.956 165.151 149.967 164.48 148.184 163.143C146.401 161.806 143.28 160.458 141.943 160.458C140.596 160.421 139.254 160.271 137.931 160.012C136.594 159.792 126.562 157.783 124.558 157.783C122.555 157.783 92.4586 171.827 92.4586 171.827L90.5091 170.092C90.4717 170.059 90.4247 170.038 90.3748 170.033L90.0472 169.996C88.9231 169.901 87.8028 170.218 86.8947 170.887C86.7336 170.995 86.5725 170.978 86.4382 170.71C85.9924 169.818 83.0977 151.988 81.5349 148.196C79.972 144.405 75.0902 135.941 66.6047 140.844" stroke="#263238" stroke-miterlimit="10"/>
<path d="M62.3673 162.702C62.3673 162.702 73.291 192.574 76.1858 193.465C79.0805 194.357 81.9806 193.019 83.3179 192.128C84.0268 191.655 95.1332 183.809 105.498 176.494L101.642 167.6C96.4597 169.974 92.4586 171.843 92.4586 171.843L90.5091 170.108C90.4717 170.075 90.4247 170.054 90.3748 170.049L90.0472 170.012C88.9231 169.917 87.8028 170.234 86.8947 170.903C86.7336 171.011 86.5725 170.995 86.4382 170.726C85.9924 169.835 83.0977 152.004 81.5349 148.213C79.972 144.421 75.0902 135.957 66.6047 140.86" fill="#FECE3E"/>
<path d="M62.3673 162.702C62.3673 162.702 73.291 192.574 76.1858 193.465C79.0805 194.357 81.9806 193.019 83.3179 192.128C84.0268 191.655 95.1332 183.809 105.498 176.494L101.642 167.6C96.4597 169.974 92.4586 171.843 92.4586 171.843L90.5091 170.108C90.4717 170.075 90.4247 170.054 90.3748 170.049L90.0472 170.012C88.9231 169.917 87.8028 170.234 86.8947 170.903C86.7336 171.011 86.5725 170.995 86.4382 170.726C85.9924 169.835 83.0977 152.004 81.5349 148.213C79.972 144.421 75.0902 135.957 66.6047 140.86" stroke="#263238" stroke-miterlimit="10"/>
<path d="M86.4704 171.451C84.7728 173.525 82.9005 175.449 80.8743 177.203" stroke="#263238" stroke-miterlimit="10"/>
<path d="M85.1922 172.89C85.1922 172.89 81.5187 174.169 78.479 174.969" stroke="#263238" stroke-miterlimit="10"/>
<path d="M35.8635 195.914L29.7142 141.993C29.6396 141.337 29.4343 140.703 29.1104 140.128C28.7866 139.552 28.3507 139.048 27.8285 138.644C27.3063 138.24 26.7085 137.944 26.0703 137.775C25.432 137.606 24.7664 137.567 24.1127 137.659C22.8289 137.842 21.6685 138.522 20.8818 139.553C20.0951 140.584 19.7452 141.883 19.9076 143.17L26.61 196L35.8635 195.914Z" fill="#263238" stroke="#263238" stroke-miterlimit="10"/>
<path d="M65.3534 181.757C64.9336 181.332 64.3863 181.056 63.7948 180.97C63.2033 180.885 62.6002 180.995 62.0773 181.285C60.203 182.316 59.8271 186.532 60.6702 189.529C61.5134 192.525 65.3534 190.839 65.3534 190.839L65.2621 188.873C65.2621 188.873 62.0773 189.244 61.8894 187.563C61.7014 185.882 61.6101 183.723 63.5005 183.723C65.391 183.723 65.9388 184.19 65.9388 184.19L65.3534 181.757Z" fill="white" stroke="#263238" stroke-miterlimit="10"/>
<path d="M79.913 178.084H65.0419V195.882H79.913V178.084Z" fill="white" stroke="#263238" stroke-miterlimit="10"/>
<path d="M240.02 195.785H9V201H240.02V195.785Z" fill="#263238" stroke="#263238" stroke-miterlimit="10"/>
</svg>
