<svg width="260" height="200" viewBox="0 0 260 200" fill="none" xmlns="http://www.w3.org/2000/svg">
<path d="M116.703 200C161.275 200 197.408 197.387 197.408 194.165C197.408 190.942 161.275 188.33 116.703 188.33C72.1314 188.33 35.9988 190.942 35.9988 194.165C35.9988 197.387 72.1314 200 116.703 200Z" fill="#FECE3E"/>
<path opacity="0.5" d="M116.703 200C161.275 200 197.408 197.387 197.408 194.165C197.408 190.942 161.275 188.33 116.703 188.33C72.1314 188.33 35.9988 190.942 35.9988 194.165C35.9988 197.387 72.1314 200 116.703 200Z" fill="white"/>
<path d="M218.897 7.31421H97.3671C94.4948 7.31421 92.1664 9.64264 92.1664 12.5149V172.878C92.1664 175.751 94.4948 178.079 97.3671 178.079H218.897C221.769 178.079 224.098 175.751 224.098 172.878V12.5149C224.098 9.64264 221.769 7.31421 218.897 7.31421Z" stroke="#263238" stroke-width="1.0229" stroke-linecap="round" stroke-linejoin="round"/>
<path d="M147.559 54.2402V54.7707H147.029" stroke="#263238" stroke-width="1.0229" stroke-linecap="round" stroke-linejoin="round"/>
<path d="M145.978 54.7705H115.039" stroke="#263238" stroke-width="1.0229" stroke-linecap="round" stroke-linejoin="round" stroke-dasharray="2.02 2.02"/>
<path d="M114.514 54.7707H113.978V54.2402" stroke="#263238" stroke-width="1.0229" stroke-linecap="round" stroke-linejoin="round"/>
<path d="M113.978 53.2155V29.1519" stroke="#263238" stroke-width="1.0229" stroke-linecap="round" stroke-linejoin="round" stroke-dasharray="1.97 1.97"/>
<path d="M113.978 28.6372V28.1067H114.514" stroke="#263238" stroke-width="1.0229" stroke-linecap="round" stroke-linejoin="round"/>
<path d="M115.559 28.1067H146.503" stroke="#263238" stroke-width="1.0229" stroke-linecap="round" stroke-linejoin="round" stroke-dasharray="2.02 2.02"/>
<path d="M147.029 28.1067H147.559V28.6372" stroke="#263238" stroke-width="1.0229" stroke-linecap="round" stroke-linejoin="round"/>
<path d="M147.559 29.6616V53.7304" stroke="#263238" stroke-width="1.0229" stroke-linecap="round" stroke-linejoin="round" stroke-dasharray="1.97 1.97"/>
<path d="M142.197 32.366H119.34V50.5164H142.197V32.366Z" fill="white" stroke="#263238" stroke-width="1.0229" stroke-linecap="round" stroke-linejoin="round"/>
<path d="M117.998 31.0189L110.156 24.9705" stroke="#263238" stroke-width="1.0229" stroke-linecap="round" stroke-linejoin="round"/>
<path d="M143.768 51.4109L150.492 57.2357" stroke="#263238" stroke-width="1.0229" stroke-linecap="round" stroke-linejoin="round"/>
<path d="M109.844 26.9625L109.615 24.3882H112.304" stroke="#263238" stroke-width="1.0229" stroke-linecap="round" stroke-linejoin="round"/>
<path d="M150.674 54.8018L151.137 57.6101L147.866 57.7298" stroke="#263238" stroke-width="1.0229" stroke-linecap="round" stroke-linejoin="round"/>
<path d="M170.504 123.217H159.406V127.222H170.504V123.217Z" fill="#263238"/>
<path d="M175.013 125.214L167.899 121.111V129.322L175.013 125.214Z" fill="#263238"/>
<path d="M151.402 95.5959H125.877C123.887 95.5959 122.273 97.2095 122.273 99.2V155.877C122.273 157.868 123.887 159.481 125.877 159.481H151.402C153.393 159.481 155.006 157.868 155.006 155.877V99.2C155.006 97.2095 153.393 95.5959 151.402 95.5959Z" fill="#263238" stroke="#263238" stroke-width="0.829236" stroke-linecap="round" stroke-linejoin="round"/>
<path d="M153.555 99.9333H123.729V155.685H153.555V99.9333Z" fill="white" stroke="#263238" stroke-width="0.829236" stroke-linecap="round" stroke-linejoin="round"/>
<path d="M148.027 168.276L150.305 159.435C150.554 158.482 150.68 157.502 150.679 156.517V145.913C150.72 145.776 150.743 145.634 150.747 145.492C150.716 145.019 150.5 144.578 150.145 144.264C149.791 143.951 149.327 143.79 148.854 143.817C148.343 143.807 147.848 143.993 147.471 144.337C147.402 143.895 147.172 143.494 146.826 143.21C146.479 142.927 146.04 142.782 145.593 142.803C145.284 142.797 144.978 142.864 144.7 143C144.423 143.136 144.182 143.335 143.996 143.583C143.921 143.147 143.689 142.753 143.345 142.476C143 142.198 142.566 142.056 142.124 142.075C141.814 142.07 141.508 142.139 141.229 142.275C140.951 142.412 140.709 142.612 140.522 142.86C140.522 141.456 140.522 134.721 140.288 134.17C139.602 132.396 136.128 133.208 136.747 135.09V150.666C136.747 149.574 135.935 148.134 135.597 147.073C135.259 146.012 135.077 144.992 134.432 144.108C133.361 142.579 131.473 143.422 131.582 145.013C131.671 146.412 132.685 147.515 133.231 148.784C134.24 151.124 133.637 153.573 134.588 155.924C135.379 157.414 136.257 158.856 137.22 160.241C137.739 161.15 138.149 162.117 138.442 163.122L137.558 168.276" fill="white"/>
<path d="M148.027 168.276L150.305 159.435C150.554 158.482 150.68 157.502 150.679 156.517V145.913C150.72 145.776 150.743 145.634 150.747 145.492C150.716 145.019 150.5 144.578 150.145 144.264C149.791 143.951 149.327 143.79 148.854 143.817C148.343 143.807 147.848 143.993 147.471 144.337C147.402 143.895 147.172 143.494 146.826 143.21C146.479 142.927 146.04 142.782 145.593 142.803C145.284 142.797 144.978 142.864 144.7 143C144.423 143.136 144.182 143.335 143.996 143.583C143.921 143.147 143.689 142.753 143.345 142.476C143 142.198 142.566 142.056 142.124 142.075C141.814 142.07 141.508 142.139 141.229 142.275C140.951 142.412 140.709 142.612 140.522 142.86C140.522 141.456 140.522 134.721 140.288 134.17C139.602 132.396 136.128 133.208 136.747 135.09V150.666C136.747 149.574 135.935 148.134 135.597 147.073C135.259 146.012 135.077 144.992 134.432 144.108C133.361 142.579 131.473 143.422 131.582 145.013C131.671 146.412 132.685 147.515 133.231 148.784C134.24 151.124 133.637 153.573 134.588 155.924C135.379 157.414 136.257 158.856 137.22 160.241C137.739 161.15 138.149 162.117 138.442 163.122L137.558 168.276" stroke="#263238" stroke-width="1.0229" stroke-linecap="round" stroke-linejoin="round"/>
<path d="M138.666 128.802V131.715" stroke="#263238" stroke-width="1.0229" stroke-linecap="round" stroke-linejoin="round"/>
<path d="M141.942 134.44H144.309" stroke="#263238" stroke-width="1.0229" stroke-linecap="round" stroke-linejoin="round"/>
<path d="M132.118 134.44H134.484" stroke="#263238" stroke-width="1.0229" stroke-linecap="round" stroke-linejoin="round"/>
<path d="M135.395 131.351L136.305 132.802" stroke="#263238" stroke-width="1.0229" stroke-linecap="round" stroke-linejoin="round"/>
<path d="M140.85 132.984L142.124 131.351" stroke="#263238" stroke-width="1.0229" stroke-linecap="round" stroke-linejoin="round"/>
<path d="M152.495 121.527H124.842V124.985H152.495V121.527Z" stroke="#263238" stroke-width="1.0229" stroke-linecap="round" stroke-linejoin="round"/>
<path d="M139.035 102.971H125.752V118.796H139.035V102.971Z" stroke="#263238" stroke-width="1.0229" stroke-linecap="round" stroke-linejoin="round"/>
<path d="M125.752 102.971L139.03 118.796" stroke="#263238" stroke-width="1.0229" stroke-linecap="round" stroke-linejoin="round"/>
<path d="M125.388 149.361V126.8H152.312V149.179" stroke="#263238" stroke-width="1.0229" stroke-linecap="round" stroke-linejoin="round"/>
<path d="M206.452 95.5959H180.927C178.936 95.5959 177.323 97.2095 177.323 99.2V155.877C177.323 157.868 178.936 159.481 180.927 159.481H206.452C208.442 159.481 210.056 157.868 210.056 155.877V99.2C210.056 97.2095 208.442 95.5959 206.452 95.5959Z" fill="#263238" stroke="#263238" stroke-width="0.829236" stroke-linecap="round" stroke-linejoin="round"/>
<path d="M208.605 99.9333H178.779V155.685H208.605V99.9333Z" fill="white" stroke="#263238" stroke-width="0.829236" stroke-linecap="round" stroke-linejoin="round"/>
<path d="M207.253 102.607H180.329V132.079H207.253V102.607Z" stroke="#263238" stroke-width="1.0229" stroke-linecap="round" stroke-linejoin="round"/>
<path d="M180.329 134.804H207.253" stroke="#263238" stroke-width="1.0229" stroke-linecap="round" stroke-linejoin="round"/>
<path d="M180.329 136.988H207.253" stroke="#263238" stroke-width="1.0229" stroke-linecap="round" stroke-linejoin="round"/>
<path d="M180.329 139.173H207.253" stroke="#263238" stroke-width="1.0229" stroke-linecap="round" stroke-linejoin="round"/>
<path d="M180.329 141.357H207.253" stroke="#263238" stroke-width="1.0229" stroke-linecap="round" stroke-linejoin="round"/>
<path d="M180.329 143.536H207.253" stroke="#263238" stroke-width="1.0229" stroke-linecap="round" stroke-linejoin="round"/>
<path d="M180.329 145.72H207.253" stroke="#263238" stroke-width="1.0229" stroke-linecap="round" stroke-linejoin="round"/>
<path d="M180.329 147.905H207.253" stroke="#263238" stroke-width="1.0229" stroke-linecap="round" stroke-linejoin="round"/>
<path d="M180.329 132.079L207.253 102.607" stroke="#263238" stroke-width="1.0229" stroke-linecap="round" stroke-linejoin="round"/>
<path d="M206.452 22.261H180.927C178.936 22.261 177.323 23.8746 177.323 25.8651V82.5422C177.323 84.5327 178.936 86.1463 180.927 86.1463H206.452C208.442 86.1463 210.056 84.5327 210.056 82.5422V25.8651C210.056 23.8746 208.442 22.261 206.452 22.261Z" fill="#263238" stroke="#263238" stroke-width="0.829236" stroke-linecap="round" stroke-linejoin="round"/>
<path d="M208.605 26.5984H178.779V82.3498H208.605V26.5984Z" fill="white" stroke="#263238" stroke-width="0.829236" stroke-linecap="round" stroke-linejoin="round"/>
<path d="M144.345 93.6926V76.7019H168.253" stroke="#263238" stroke-width="1.0229" stroke-linecap="round" stroke-linejoin="round"/>
<path d="M167.472 79.3543L172.065 76.7019L167.472 74.0496V79.3543Z" fill="#263238"/>
<path d="M193.086 93.2452V80.2019" stroke="#263238" stroke-width="1.0229" stroke-linecap="round" stroke-linejoin="round"/>
<path d="M195.738 80.9822L193.086 76.3848L190.433 80.9822H195.738Z" fill="#263238"/>
<path d="M180.76 165.296H192.821" stroke="#263238" stroke-width="1.0229" stroke-linecap="round" stroke-linejoin="round"/>
<path d="M180.76 168.01H192.821" stroke="#263238" stroke-width="1.0229" stroke-linecap="round" stroke-linejoin="round"/>
<path d="M180.76 170.72H192.821" stroke="#263238" stroke-width="1.0229" stroke-linecap="round" stroke-linejoin="round"/>
<path d="M151.517 165.296H163.577" stroke="#263238" stroke-width="1.0229" stroke-linecap="round" stroke-linejoin="round"/>
<path d="M151.517 168.01H163.577" stroke="#263238" stroke-width="1.0229" stroke-linecap="round" stroke-linejoin="round"/>
<path d="M151.517 170.72H163.577" stroke="#263238" stroke-width="1.0229" stroke-linecap="round" stroke-linejoin="round"/>
<path d="M148.199 82.0847H160.259" stroke="#263238" stroke-width="1.0229" stroke-linecap="round" stroke-linejoin="round"/>
<path d="M148.199 84.7942H160.259" stroke="#263238" stroke-width="1.0229" stroke-linecap="round" stroke-linejoin="round"/>
<path d="M148.199 87.509H160.259" stroke="#263238" stroke-width="1.0229" stroke-linecap="round" stroke-linejoin="round"/>
<path d="M157.243 49.2214H169.303" stroke="#263238" stroke-width="1.0229" stroke-linecap="round" stroke-linejoin="round"/>
<path d="M157.243 51.9363H169.303" stroke="#263238" stroke-width="1.0229" stroke-linecap="round" stroke-linejoin="round"/>
<path d="M157.243 54.6458H169.303" stroke="#263238" stroke-width="1.0229" stroke-linecap="round" stroke-linejoin="round"/>
<path d="M113.827 58.5671H125.888" stroke="#263238" stroke-width="1.0229" stroke-linecap="round" stroke-linejoin="round"/>
<path d="M113.827 61.2817H125.888" stroke="#263238" stroke-width="1.0229" stroke-linecap="round" stroke-linejoin="round"/>
<path d="M113.827 63.9915H125.888" stroke="#263238" stroke-width="1.0229" stroke-linecap="round" stroke-linejoin="round"/>
<path d="M54.9918 98.5864C54.9918 98.5864 54.9918 96.3397 51.8401 93.1881C48.6885 90.0365 46.6394 88.2371 46.6394 88.2371C46.6394 88.2371 45.0792 93.4378 47.9864 96.5582C50.139 98.7745 52.4737 100.806 54.9658 102.633L54.9918 98.5864Z" fill="#FECE3E"/>
<path d="M50.4204 112.66C50.4204 112.66 50.4204 110.408 47.2688 107.256C44.1172 104.104 42.0733 102.305 42.0733 102.305C42.0733 102.305 40.5131 107.506 43.4203 110.626C45.5744 112.841 47.9089 114.872 50.3996 116.7L50.4204 112.66Z" fill="#FECE3E"/>
<path d="M54.7941 102.435C54.7941 102.435 55.0334 100.199 58.497 97.4007C61.9607 94.6027 64.1658 93.0217 64.1658 93.0217C64.1658 93.0217 65.2059 98.3368 61.9451 101.161C59.5721 103.138 57.0374 104.912 54.3677 106.466L54.7941 102.435Z" fill="#FECE3E"/>
<path d="M49.271 119.036C49.271 119.036 49.7391 116.836 53.4836 114.417C57.2281 111.999 59.5788 110.657 59.5788 110.657C59.5788 110.657 60.0364 116.05 56.5156 118.515C53.9466 120.234 51.2379 121.733 48.4181 122.998L49.271 119.036Z" fill="#FECE3E"/>
<path d="M50.3059 137.134C50.3059 137.134 50.3059 134.882 53.4575 131.73C56.6091 128.579 58.6582 126.779 58.6582 126.779C58.6582 126.779 60.2184 131.98 57.3112 135.1C55.158 137.318 52.8235 139.351 50.3319 141.18L50.3059 137.134Z" fill="#FECE3E"/>
<path d="M50.254 141.549C50.254 141.549 50.5764 139.323 47.9033 135.756C45.2301 132.188 43.4827 130.118 43.4827 130.118C43.4827 130.118 41.1892 135.022 43.6387 138.554C45.452 141.055 47.4736 143.398 49.6819 145.559L50.254 141.549Z" fill="#FECE3E"/>
<path d="M47.1492 154.645C47.1492 154.645 47.1492 152.393 50.3008 149.241C53.4524 146.089 55.5015 144.29 55.5015 144.29C55.5015 144.29 57.0617 149.465 54.1493 152.611C51.9992 154.828 49.6662 156.86 47.1752 158.686L47.1492 154.645Z" fill="#FECE3E"/>
<path d="M49.2501 166.513C49.2501 166.513 48.6833 164.334 50.9144 160.475C53.1455 156.616 54.6693 154.374 54.6693 154.374C54.6693 154.374 57.5036 158.982 55.4754 162.768C53.9584 165.457 52.2188 168.015 50.2747 170.413L49.2501 166.513Z" fill="#FECE3E"/>
<path d="M55.2778 98.03C55.1169 100.372 54.8288 102.704 54.4145 105.015C53.1663 111.448 50.0563 115.603 48.8082 121.412C47.56 127.222 51.1381 134.716 50.1811 142.179C49.2242 149.642 46.317 153.797 47.1491 158.779C47.9813 163.762 52.3498 177.252 52.3498 177.252" stroke="#263238" stroke-width="1.03476" stroke-linecap="round" stroke-linejoin="round"/>
<path d="M54.7629 103.933L58.159 101.327" stroke="#263238" stroke-width="1.03476" stroke-linecap="round" stroke-linejoin="round"/>
<path d="M54.9189 100.932L53.4991 98.4043" stroke="#263238" stroke-width="1.03476" stroke-linecap="round" stroke-linejoin="round"/>
<path d="M48.9954 121.147C48.9954 121.147 51.8401 119.015 54.7629 116.883" stroke="#263238" stroke-width="1.03476" stroke-linecap="round" stroke-linejoin="round"/>
<path d="M50.4203 116.711C50.4203 116.711 48.0488 112.067 45.3652 108.988" stroke="#263238" stroke-width="1.03476" stroke-linecap="round" stroke-linejoin="round"/>
<path d="M50.4204 140.338C52.0414 137.346 54.0895 134.606 56.5 132.204" stroke="#263238" stroke-width="1.03476" stroke-linecap="round" stroke-linejoin="round"/>
<path d="M49.8743 143.494C49.0094 141.464 47.9779 139.509 46.7903 137.649C45.1364 135.204 44.8972 134.887 44.8972 134.887" stroke="#263238" stroke-width="1.03476" stroke-linecap="round" stroke-linejoin="round"/>
<path d="M47.1492 158.779C47.8687 156.983 48.7241 155.245 49.7079 153.579C50.6921 152.042 51.8019 150.589 53.026 149.236" stroke="#263238" stroke-width="1.03476" stroke-linecap="round" stroke-linejoin="round"/>
<path d="M50.2799 170.429C50.1152 168.722 50.4078 167.003 51.1276 165.447C52.3134 163.153 53.6551 160.157 54.2116 158.972" stroke="#263238" stroke-width="1.03476" stroke-linecap="round" stroke-linejoin="round"/>
<path d="M34.3606 128.667C34.3606 128.667 34.1162 127.258 35.7492 124.938C37.3822 122.619 38.4588 121.272 38.4588 121.272C38.4588 121.272 40.019 124.351 38.516 126.644C37.4052 128.268 36.1595 129.796 34.7923 131.211L34.3606 128.667Z" fill="#FECE3E"/>
<path d="M38.75 136.988C38.75 136.988 38.5107 135.574 40.1437 133.26C41.7768 130.945 42.8481 129.593 42.8481 129.593C42.8481 129.593 44.4083 132.667 42.9053 134.96C41.7971 136.583 40.555 138.111 39.192 139.526L38.75 136.988Z" fill="#FECE3E"/>
<path d="M34.9015 131.054C34.9015 131.054 34.5062 129.676 32.0307 128.293C29.5552 126.909 28.0002 126.15 28.0002 126.15C28.0002 126.15 27.9378 129.593 30.2781 131.013C31.98 131.994 33.7615 132.831 35.6036 133.514L34.9015 131.054Z" fill="#FECE3E"/>
<path d="M40.1646 140.863C40.1646 140.863 39.6445 139.531 37.0442 138.418C34.4438 137.306 32.8108 136.728 32.8108 136.728C32.8108 136.728 33.1124 140.156 35.588 141.32C37.3844 142.118 39.244 142.765 41.1475 143.255L40.1646 140.863Z" fill="#FECE3E"/>
<path d="M41.4804 152.32C41.4804 152.32 41.236 150.911 38.9165 149.278C36.5969 147.645 35.1355 146.734 35.1355 146.734C35.1355 146.734 34.7091 150.151 36.883 151.81C38.4731 152.966 40.157 153.988 41.9172 154.863L41.4804 152.32Z" fill="#FECE3E"/>
<path d="M41.99 155.087C41.99 155.087 41.5532 153.714 42.8378 151.197C44.1223 148.679 44.9961 147.182 44.9961 147.182C44.9961 147.182 46.9671 150.006 45.8178 152.492C44.9493 154.255 43.9351 155.942 42.7858 157.536L41.99 155.087Z" fill="#FECE3E"/>
<path d="M45.9478 166.471C45.9478 166.471 46.109 165.046 48.3297 163.283C50.5504 161.52 51.9702 160.532 51.9702 160.532C51.9702 160.532 52.5943 163.918 50.514 165.696C48.992 166.94 47.369 168.056 45.6617 169.03L45.9478 166.471Z" fill="#FECE3E"/>
<path d="M45.36 162.961C45.36 162.961 45.1156 161.546 42.8013 159.913C40.487 158.28 39.0152 157.354 39.0152 157.354C39.0152 157.354 38.5887 160.771 40.7678 162.43C42.3571 163.587 44.0412 164.609 45.8021 165.483L45.36 162.961Z" fill="#FECE3E"/>
<path d="M45.3289 170.632C45.3289 170.632 45.4537 169.202 43.6231 167.038C41.7924 164.875 40.6067 163.616 40.6067 163.616C40.6067 163.616 39.3273 166.814 41.0175 168.973C42.2624 170.493 43.6314 171.907 45.1105 173.201L45.3289 170.632Z" fill="#FECE3E"/>
<path d="M34.1162 128.34C34.4736 129.79 34.9076 131.22 35.4164 132.625C36.8986 136.526 39.3013 138.793 40.7107 142.303C42.1201 145.814 40.7107 150.895 42.1045 155.472C43.4983 160.048 45.7918 162.337 45.8074 165.551C45.823 168.765 44.5592 177.699 44.5592 177.699" stroke="#263238" stroke-width="1.03476" stroke-linecap="round" stroke-linejoin="round"/>
<path d="M35.0835 131.985L32.6704 130.721" stroke="#263238" stroke-width="1.03476" stroke-linecap="round" stroke-linejoin="round"/>
<path d="M34.6571 130.124L35.276 128.381" stroke="#263238" stroke-width="1.03476" stroke-linecap="round" stroke-linejoin="round"/>
<path d="M40.565 142.158C40.565 142.158 38.5523 141.118 36.4877 140.109" stroke="#263238" stroke-width="1.03476" stroke-linecap="round" stroke-linejoin="round"/>
<path d="M39.192 139.526C39.7846 137.655 40.5652 135.848 41.5219 134.133" stroke="#263238" stroke-width="1.03476" stroke-linecap="round" stroke-linejoin="round"/>
<path d="M41.7561 154.343C40.4195 152.643 38.8428 151.147 37.0754 149.902" stroke="#263238" stroke-width="1.03476" stroke-linecap="round" stroke-linejoin="round"/>
<path d="M42.4476 156.262C42.7669 154.895 43.2001 153.557 43.7426 152.263C44.5175 150.552 44.6319 150.323 44.6319 150.323" stroke="#263238" stroke-width="1.03476" stroke-linecap="round" stroke-linejoin="round"/>
<path d="M45.7137 167.99C46.4997 167.017 47.3698 166.116 48.3141 165.296C48.9145 164.855 49.4781 164.367 49.9991 163.834" stroke="#263238" stroke-width="1.03476" stroke-linecap="round" stroke-linejoin="round"/>
<path d="M45.8074 165.551C45.1635 164.508 44.4401 163.517 43.6439 162.586C42.8603 161.728 42.0061 160.936 41.0903 160.22" stroke="#263238" stroke-width="1.03476" stroke-linecap="round" stroke-linejoin="round"/>
<path d="M45.1104 173.201C45.0286 172.111 44.6589 171.063 44.0391 170.164C43.0458 168.858 41.8756 167.121 41.4023 166.44" stroke="#263238" stroke-width="1.03476" stroke-linecap="round" stroke-linejoin="round"/>
<path d="M38.126 176.144H58.7155V191.648C58.7155 192.061 58.5511 192.458 58.2586 192.751C57.966 193.043 57.5691 193.208 57.1553 193.208H39.707C39.2932 193.208 38.8963 193.043 38.6038 192.751C38.3112 192.458 38.1468 192.061 38.1468 191.648V176.144H38.126Z" fill="#263238"/>
<path d="M58.5542 178.833H38.1259C37.9137 178.833 37.7037 178.791 37.5077 178.71C37.3118 178.629 37.1338 178.509 36.984 178.359C36.8343 178.209 36.7156 178.031 36.6349 177.834C36.5542 177.638 36.513 177.428 36.5137 177.216V177.216C36.5137 176.788 36.6835 176.378 36.9859 176.076C37.2882 175.773 37.6983 175.604 38.1259 175.604H58.5542C58.9818 175.604 59.3919 175.773 59.6942 176.076C59.9966 176.378 60.1664 176.788 60.1664 177.216V177.216C60.1671 177.428 60.1259 177.638 60.0452 177.834C59.9645 178.031 59.8459 178.209 59.6961 178.359C59.5463 178.509 59.3683 178.629 59.1724 178.71C58.9765 178.791 58.7664 178.833 58.5542 178.833V178.833Z" fill="#263238"/>
<path d="M64.9563 188.039C64.9563 188.039 63.8382 192.345 63.8382 193.432C63.8382 194.519 63.5678 195.247 65.9185 195.699C68.2692 196.152 69.819 195.881 70.183 194.794C70.5471 193.707 70.8175 188.257 70.8175 188.257L65.0968 187.165L64.9563 188.039Z" fill="white" stroke="#263238" stroke-width="1.03476" stroke-linecap="round" stroke-linejoin="round"/>
<path d="M70.157 194.799C70.2308 194.551 70.283 194.297 70.313 194.04C68.1318 194.052 65.9535 193.878 63.8017 193.52C63.8017 194.56 63.5989 195.262 65.882 195.699C68.1651 196.136 69.8085 195.886 70.157 194.799Z" fill="white" stroke="#263238" stroke-width="1.03476" stroke-linecap="round" stroke-linejoin="round"/>
<path d="M120.11 188.444C120.11 188.444 121.925 189.079 124.562 189.895C127.198 190.712 132.565 191.622 133.085 191.71C133.606 191.799 133.606 192.891 133.174 193.348C132.742 193.806 130.36 195.163 127.547 195.886C124.733 196.609 115.195 197.249 114.379 196.708C113.697 196.25 113.926 191.804 114.197 190.805C114.467 189.807 120.11 188.444 120.11 188.444Z" fill="white" stroke="#263238" stroke-width="1.03476" stroke-linecap="round" stroke-linejoin="round"/>
<path d="M133.184 193.348C133.332 193.176 133.435 192.969 133.482 192.746C133.529 192.523 133.52 192.292 133.455 192.074C131.614 193.541 127.937 195.153 124.197 195.527C120.803 195.769 117.396 195.752 114.004 195.475C114.072 196.1 114.191 196.573 114.389 196.708C115.205 197.228 124.738 196.614 127.557 195.886C130.376 195.158 132.732 193.801 133.184 193.348Z" fill="white" stroke="#263238" stroke-width="1.03476" stroke-linecap="round" stroke-linejoin="round"/>
<path d="M76.1898 109.284C76.1898 109.284 74.6296 118.781 75.8362 124.054C75.8362 124.054 73.5531 144.971 73.1994 154.291C73.1994 154.291 68.2795 170.642 67.5722 175.739C66.9063 179.88 66.0332 183.985 64.9563 188.038C66.0507 188.644 67.2392 189.06 68.472 189.271C70.9371 189.791 71.2855 187.861 71.2855 187.861C71.2855 187.861 84.8073 156.746 85.8787 152.174C86.95 147.603 90.4397 131.262 90.4397 131.262L105.002 157.983C105.002 157.983 105.709 167.126 107.815 172.4C109.922 177.673 113.968 192.261 113.968 192.261C115.568 192.35 117.173 192.175 118.716 191.741C120.827 191.039 120.827 189.983 120.827 189.983C120.827 189.983 117.66 178.204 117.66 174.34C117.66 170.476 116.433 157.287 115.554 153.594C114.675 149.902 108.694 130.565 107.815 128.454C106.936 126.342 105.002 119.665 105.002 119.665L103.774 109.289C103.774 109.289 88.6715 113.507 76.1898 109.284Z" fill="#263238" stroke="#263238" stroke-width="1.03476" stroke-linecap="round" stroke-linejoin="round"/>
<path d="M87.3452 64.4803C87.3452 64.4803 86.5339 62.7277 86.5339 61.6511C86.5339 60.5746 86.0139 55.4571 86.0139 55.4571C86.0139 55.4571 93.8149 41.3268 95.9732 38.6329C97.381 36.9075 98.9596 35.3289 100.685 33.921C100.685 33.921 105.938 32.8445 107.014 32.8445C108.091 32.8445 109.303 32.3244 109.303 31.6327C109.303 30.941 107.55 31.1127 106.473 31.1127C105.397 31.1127 104.05 30.1713 104.05 30.1713C104.05 30.1713 105.803 25.1527 106.338 23.1712C106.624 22.1311 107.55 19.9416 106.858 19.9416C106.167 19.9416 106.052 20.4616 105.646 21.2886C105.241 22.1155 103.493 24.7886 103.493 24.7886L103.894 18.865C103.894 18.865 103.374 18.0589 102.953 19.0003C102.419 20.4538 101.969 21.9367 101.606 23.4416C101.481 23.913 101.251 24.3503 100.935 24.721L100.415 20.3056C100.415 20.3056 99.4993 19.3331 99.338 21.0181C99.2496 21.9542 99.338 25.0591 99.338 25.5947C99.338 26.1304 98.818 24.8302 98.818 24.8302C98.818 24.8302 98.5007 23.3688 98.1471 23.1712C97.7934 22.9736 97.4762 23.4416 97.627 24.5182C97.7778 25.5947 97.4918 30.0361 97.4918 30.0361C97.4918 30.0361 96.6857 31.1127 95.4739 32.5949C94.2622 34.0771 84.5525 42.8246 80.912 45.6538C77.2715 48.483 76.8762 50.7713 76.3354 53.5953C75.7945 56.4193 75.2588 72.8378 75.2588 78.7718C75.2588 84.7058 75.7789 94.1139 76.2001 97.2135C76.6214 100.313 75.8777 104.307 75.3576 106.481C74.8376 108.655 75.3576 110.517 76.8398 111.593C78.322 112.67 84.6409 113.346 89.8936 113.346C95.1463 113.346 100.529 112.826 102.146 112.27C103.764 111.713 105.002 111.588 105.002 109.44C105.002 107.292 103.925 102.981 103.925 101.769C103.925 100.558 106.083 88.0395 106.083 88.0395C106.083 88.0395 119.813 92.2 122.372 91.2691C124.931 90.3382 146.332 70.1335 146.332 70.1335C146.332 70.1335 149.696 68.7865 151.449 68.5161C153.202 68.2456 155.89 67.0391 156.026 66.6334C156.161 66.2278 155.755 66.363 154.679 66.363C153.719 66.4285 152.77 66.603 151.849 66.883C151.849 66.883 155.526 64.5531 156.161 64.3243C156.598 64.1631 157.352 63.1697 156.296 63.383C154.97 63.6482 151.719 64.5947 151.719 64.5947L156.026 61.9008C156.026 61.9008 156.697 60.8242 155.89 60.8242C155.084 60.8242 151.043 63.2478 151.043 63.2478L154.164 60.325C154.772 59.7633 154.263 58.9676 153.545 59.3836L149.904 61.4639C149.017 61.9829 148.075 62.4032 147.096 62.7173L146.425 63.1229C146.559 62.4114 146.649 61.6924 146.696 60.9699C146.696 60.2938 146.29 58.5463 145.349 58.4111C144.407 58.2759 145.213 59.6229 145.213 60.2938C145.213 60.9647 143.866 64.4543 143.866 65.0056V66.623C143.866 66.623 139.29 70.6587 135.119 72.817C130.948 74.9753 121.519 82.1055 121.519 82.1055C121.519 82.1055 110.754 76.5823 108.33 74.5645C105.907 72.5466 103.213 70.1231 100.529 67.97C99.1356 66.8111 97.6503 65.7675 96.0876 64.8496L87.3452 64.4803Z" fill="white" stroke="#263238" stroke-width="1.03476" stroke-linecap="round" stroke-linejoin="round"/>
<path d="M132.331 74.4812C127.76 77.404 121.535 82.1158 121.535 82.1158C121.535 82.1158 110.769 76.5927 108.346 74.5748C105.922 72.557 103.228 70.1334 100.545 67.9803C99.1512 66.8215 97.6659 65.7779 96.1032 64.8599L87.3556 64.4595C87.3556 64.4595 86.5443 62.7068 86.5443 61.6303C86.5443 60.5538 86.0243 55.4363 86.0243 55.4363C86.0243 55.4363 90.0548 48.1553 93.1232 43.0326L92.8788 42.783C91.3706 41.28 89.2851 40.4687 87.4649 40.0266C84.9269 42.2785 82.4046 44.4472 80.9068 45.6122C77.2663 48.4361 76.871 50.7296 76.3302 53.5536C75.7893 56.3776 75.2536 72.7962 75.2536 78.7302C75.2536 84.6642 75.7737 94.0722 76.195 97.1718C76.6162 100.271 75.8777 104.307 75.3576 106.481C74.8376 108.655 75.3576 110.517 76.8398 111.593C78.322 112.67 84.6409 113.346 89.8936 113.346C95.1463 113.346 100.529 112.826 102.146 112.269C103.764 111.713 105.002 111.588 105.002 109.44C105.002 107.292 103.925 102.981 103.925 101.769C103.925 100.557 106.083 88.0394 106.083 88.0394C106.083 88.0394 119.813 92.2 122.372 91.2691C123.734 90.749 130.485 84.7682 136.471 79.3075C135.382 77.4707 133.981 75.8375 132.331 74.4812Z" fill="#FECE3E" stroke="#263238" stroke-width="1.03476" stroke-linecap="round" stroke-linejoin="round"/>
<path d="M101.881 70.3779C101.881 70.3779 96.4622 71.8549 96.1605 75.9583" stroke="#263238" stroke-width="1.03476" stroke-linecap="round" stroke-linejoin="round"/>
<path d="M106.042 88.0395C106.042 88.0395 99.7282 86.3025 96.4465 83.0156" stroke="#263238" stroke-width="1.03476" stroke-linecap="round" stroke-linejoin="round"/>
<path d="M102.537 87.1449C102.537 87.1449 97.1174 88.6219 92.1924 86.656" stroke="#263238" stroke-width="1.03476" stroke-linecap="round" stroke-linejoin="round"/>
<path d="M79.6743 78.4233C79.6743 78.4233 81.3853 90.3849 89.6336 96.3449" stroke="#263238" stroke-width="1.03476" stroke-linecap="round" stroke-linejoin="round"/>
<path d="M92.2339 99.6265C92.8632 99.7981 93.5133 99.9489 94.1841 100.069" stroke="#263238" stroke-width="1.03476" stroke-linecap="round" stroke-linejoin="round"/>
<path d="M79.6743 90.3694C81.981 93.8103 85.169 96.5691 88.9055 98.3577" stroke="#263238" stroke-width="1.03476" stroke-linecap="round" stroke-linejoin="round"/>
<path d="M78.0776 63.8146C78.0776 63.8146 83.3303 61.2142 86.4508 63.6481" stroke="#263238" stroke-width="1.03476" stroke-linecap="round" stroke-linejoin="round"/>
<path d="M79.5547 51.8323C79.5547 51.8323 84.3185 53.4757 85.6291 56.7573" stroke="#263238" stroke-width="1.03476" stroke-linecap="round" stroke-linejoin="round"/>
<path d="M82.675 50.6829C83.8147 51.6028 84.622 52.8704 84.9738 54.2921" stroke="#263238" stroke-width="1.03476" stroke-linecap="round" stroke-linejoin="round"/>
<path d="M105.111 42.939C105.111 42.939 105.922 47.5156 105.922 48.7274C105.922 49.9392 104.575 50.3448 105.111 51.957C105.647 53.5692 106.864 53.7097 106.593 55.0774C106.323 56.4452 104.575 57.2305 104.575 57.2305C104.575 57.2305 103.634 61.001 102.687 62.6133C101.741 64.2255 98.246 63.0189 98.246 63.0189L97.9756 67.3251C97.9756 67.3251 96.7638 69.0777 92.3224 68.5368C89.7653 68.2546 87.2682 67.5737 84.9218 66.519L84.2457 65.5777C84.2457 65.5777 87.7458 63.825 87.8862 62.6133C88.0266 61.4015 87.8862 58.5775 87.8862 54.5366C87.8862 50.4956 86.6745 42.6894 93.2689 40.6715C99.8634 38.6537 105.111 42.939 105.111 42.939Z" fill="white" stroke="#263238" stroke-width="1.03476" stroke-linecap="round" stroke-linejoin="round"/>
<path d="M96.8886 53.9905C96.8886 53.9905 95.37 50.506 93.6694 52.4979C92.5668 53.7929 93.9398 57.6154 94.6107 58.151C95.2816 58.6867 96.7638 58.4215 96.7638 58.4215C96.7638 58.4215 94.6107 60.5746 92.3224 60.5746C90.0341 60.5746 88.0162 58.4215 86.534 54.651C85.0518 50.8805 83.9753 44.4212 85.5927 40.5155C87.2101 36.6098 95.5572 36.4797 97.4399 36.4797C99.3225 36.4797 102.152 37.5563 102.152 37.5563C102.152 37.5563 108.21 37.0362 108.346 39.0385C108.481 41.0407 107.534 41.1916 107.534 41.1916C107.534 41.1916 111.846 43.4799 109.823 44.4212C107.8 45.3625 104.71 44.8269 102.687 44.8269C102.146 44.7954 101.606 44.9173 101.131 45.1786C100.655 45.4398 100.263 45.8298 99.9986 46.3038C99.9986 46.3038 101.881 47.5156 101.21 48.0565C100.539 48.5974 98.09 49.6687 97.8455 50.6152C97.6011 51.5617 98.7868 53.0387 97.9755 53.7356C97.1642 54.4325 96.8886 53.9905 96.8886 53.9905Z" fill="#263238" stroke="#263238" stroke-width="1.03476" stroke-linecap="round" stroke-linejoin="round"/>
<path d="M104.378 52.3626C104.378 53.0491 104.092 53.6056 103.743 53.6056C103.395 53.6056 103.114 53.0491 103.114 52.3626C103.114 51.6761 103.4 51.1196 103.743 51.1196C104.086 51.1196 104.378 51.6761 104.378 52.3626Z" fill="#263238"/>
<path d="M102.172 50.7765C102.172 50.7765 103.041 48.7482 104.419 49.8352" stroke="#263238" stroke-width="1.03476" stroke-linecap="round" stroke-linejoin="round"/>
<path d="M90.4293 131.262L89.1967 128.974L83.0443 127.393" stroke="white" stroke-width="1.03476" stroke-linecap="round" stroke-linejoin="round"/>
</svg>
