<svg width="216" height="200" viewBox="0 0 216 200" fill="none" xmlns="http://www.w3.org/2000/svg">
<path d="M98.267 150.324C98.3238 147.726 99.396 145.253 101.254 143.435C103.112 141.617 105.607 140.599 108.207 140.599C110.806 140.599 113.301 141.617 115.159 143.435C117.017 145.253 118.089 147.726 118.146 150.324L119.808 149.735V140.971L113.916 137.139L105.018 134.538L98.267 138.644L95.2949 144.18V149.602L98.267 150.324Z" fill="#263238"/>
<path d="M80.5962 174.091H135.818C136.327 174.091 136.832 174.192 137.302 174.387C137.773 174.582 138.2 174.867 138.561 175.227C138.921 175.588 139.207 176.015 139.401 176.486C139.596 176.956 139.697 177.461 139.697 177.97V181.194H76.7173V177.97C76.7173 177.461 76.8176 176.956 77.0126 176.486C77.2075 176.015 77.4932 175.588 77.8534 175.227C78.2136 174.867 78.6412 174.582 79.1118 174.387C79.5824 174.192 80.0868 174.091 80.5962 174.091Z" fill="#999999" stroke="#263238" stroke-linecap="round" stroke-linejoin="round"/>
<path d="M120.663 126.561H95.77L90.4478 174.091H125.966L120.663 126.561ZM108.223 158.59C106.257 158.59 104.335 158.006 102.7 156.914C101.065 155.821 99.7903 154.268 99.0379 152.451C98.2856 150.634 98.089 148.635 98.473 146.706C98.857 144.778 99.8043 143.006 101.195 141.616C102.586 140.226 104.358 139.279 106.287 138.896C108.216 138.513 110.215 138.711 112.031 139.464C113.848 140.217 115.4 141.492 116.492 143.128C117.584 144.763 118.166 146.686 118.165 148.653C118.165 149.959 117.908 151.254 117.407 152.461C116.906 153.668 116.172 154.764 115.246 155.688C114.321 156.611 113.223 157.342 112.015 157.84C110.806 158.338 109.511 158.593 108.204 158.59H108.223Z" fill="#757575" stroke="#263238" stroke-linecap="round" stroke-linejoin="round"/>
<path d="M196.005 9.38574H20.4035C15.8646 9.38574 12.1851 13.0653 12.1851 17.6042V123.926C12.1851 128.465 15.8646 132.145 20.4035 132.145H196.005C200.544 132.145 204.224 128.465 204.224 123.926V17.6042C204.224 13.0653 200.544 9.38574 196.005 9.38574Z" fill="#999999" stroke="#263238" stroke-width="0.75" stroke-linecap="round" stroke-linejoin="round"/>
<path d="M12.209 124.368C12.3196 126.467 13.2311 128.443 14.7557 129.89C16.2803 131.337 18.3018 132.144 20.4037 132.145H196.01C198.115 132.148 200.141 131.342 201.669 129.895C203.197 128.448 204.112 126.469 204.224 124.368H12.209Z" fill="#263238" stroke="#263238" stroke-width="0.75" stroke-linecap="round" stroke-linejoin="round"/>
<path d="M196.01 17.6045H20.4033V123.931H196.01V17.6045Z" fill="#FECE3E"/>
<path opacity="0.8" d="M196.01 17.6045H20.4033V123.931H196.01V17.6045Z" fill="white"/>
<path d="M196.01 17.6045H20.4033V123.931H196.01V17.6045Z" stroke="#263238" stroke-linecap="round" stroke-linejoin="round"/>
<path d="M196.01 17.6045H20.4033V27.366H196.01V17.6045Z" fill="#FECE3E" stroke="#263238" stroke-width="0.75" stroke-linecap="round" stroke-linejoin="round"/>
<path d="M29.5476 22.4852C29.5476 22.9547 29.4084 23.4137 29.1475 23.8041C28.8867 24.1945 28.5159 24.4987 28.0822 24.6784C27.6484 24.8581 27.1711 24.9051 26.7106 24.8135C26.2501 24.7219 25.8271 24.4958 25.4951 24.1638C25.1631 23.8318 24.937 23.4088 24.8454 22.9484C24.7538 22.4879 24.8008 22.0105 24.9805 21.5768C25.1602 21.143 25.4645 20.7722 25.8548 20.5114C26.2452 20.2506 26.7042 20.1113 27.1737 20.1113C27.8033 20.1113 28.4071 20.3614 28.8523 20.8066C29.2975 21.2518 29.5476 21.8556 29.5476 22.4852Z" fill="white"/>
<path d="M36.6931 22.4852C36.6931 22.9547 36.5539 23.4137 36.293 23.8041C36.0322 24.1945 35.6614 24.4987 35.2277 24.6784C34.7939 24.8581 34.3166 24.9051 33.8561 24.8135C33.3956 24.7219 32.9726 24.4958 32.6406 24.1638C32.3086 23.8318 32.0825 23.4088 31.9909 22.9484C31.8993 22.4879 31.9463 22.0105 32.126 21.5768C32.3057 21.143 32.61 20.7722 33.0003 20.5114C33.3907 20.2506 33.8497 20.1113 34.3192 20.1113C34.9488 20.1113 35.5526 20.3614 35.9978 20.8066C36.443 21.2518 36.6931 21.8556 36.6931 22.4852Z" fill="white"/>
<path d="M43.8386 22.4852C43.8386 22.9547 43.6994 23.4137 43.4385 23.8041C43.1777 24.1945 42.8069 24.4987 42.3732 24.6784C41.9394 24.8581 41.4621 24.9051 41.0016 24.8135C40.5411 24.7219 40.1181 24.4958 39.7861 24.1638C39.4541 23.8318 39.228 23.4088 39.1364 22.9484C39.0448 22.4879 39.0918 22.0105 39.2715 21.5768C39.4512 21.143 39.7555 20.7722 40.1459 20.5114C40.5362 20.2506 40.9952 20.1113 41.4647 20.1113C42.0943 20.1113 42.6981 20.3614 43.1433 20.8066C43.5885 21.2518 43.8386 21.8556 43.8386 22.4852Z" fill="white"/>
<path d="M76.5366 123.927V27.3662" stroke="#263238" stroke-width="0.75" stroke-linecap="round" stroke-linejoin="round"/>
<path d="M73.5642 116.705C73.0646 116.705 72.5851 116.508 72.2296 116.157C71.8741 115.806 71.6713 115.329 71.665 114.83V65.0824C71.6713 64.5829 71.8741 64.1059 72.2296 63.7549C72.5851 63.4038 73.0646 63.207 73.5642 63.207C74.0596 63.2132 74.5331 63.4127 74.8834 63.7631C75.2338 64.1135 75.4334 64.5869 75.4395 65.0824V114.83C75.4334 115.325 75.2338 115.799 74.8834 116.149C74.5331 116.499 74.0596 116.699 73.5642 116.705Z" fill="#FECE3E"/>
<path opacity="0.3" d="M73.5642 116.705C73.0646 116.705 72.5851 116.508 72.2296 116.157C71.8741 115.806 71.6713 115.329 71.665 114.83V65.0824C71.6713 64.5829 71.8741 64.1059 72.2296 63.7549C72.5851 63.4038 73.0646 63.207 73.5642 63.207C74.0596 63.2132 74.5331 63.4127 74.8834 63.7631C75.2338 64.1135 75.4334 64.5869 75.4395 65.0824V114.83C75.4334 115.325 75.2338 115.799 74.8834 116.149C74.5331 116.499 74.0596 116.699 73.5642 116.705Z" fill="white"/>
<path d="M66.9503 43.0337H24.7852V48.5126H66.9503V43.0337Z" fill="#FECE3E"/>
<path d="M66.9509 51.9355H31.9312V57.4145H66.9509V51.9355Z" fill="#FECE3E"/>
<path d="M66.9509 60.833H31.9312V66.312H66.9509V60.833Z" fill="#FECE3E"/>
<path d="M66.9458 69.7354H35.1118V75.2143H66.9458V69.7354Z" fill="#FECE3E"/>
<path d="M28.7451 56.2798V53.0703L30.3499 54.6751L28.7451 56.2798Z" fill="#263238" stroke="#263238" stroke-width="0.75" stroke-linecap="round" stroke-linejoin="round"/>
<path d="M28.7452 65.1773V61.9678L30.35 63.5726L28.7452 65.1773Z" fill="#263238" stroke="#263238" stroke-width="0.75" stroke-linecap="round" stroke-linejoin="round"/>
<path d="M31.9312 74.0796V70.8701L33.5359 72.4749L31.9312 74.0796Z" fill="#263238" stroke="#263238" stroke-width="0.75" stroke-linecap="round" stroke-linejoin="round"/>
<path d="M66.9503 82.4688H24.7852V87.9477H66.9503V82.4688Z" fill="#FECE3E"/>
<path d="M66.9509 91.3711H31.9312V96.85H66.9509V91.3711Z" fill="#FECE3E"/>
<path d="M66.9509 100.273H35.1265V105.752H66.9509V100.273Z" fill="#FECE3E"/>
<path d="M66.9509 109.175H35.1265V114.654H66.9509V109.175Z" fill="#FECE3E"/>
<path d="M28.7451 95.7154V92.5059L30.3499 94.1106L28.7451 95.7154Z" fill="#263238" stroke="#263238" stroke-width="0.75" stroke-linecap="round" stroke-linejoin="round"/>
<path d="M31.9404 104.617V101.408L33.5452 103.013L31.9404 104.617Z" fill="#263238" stroke="#263238" stroke-width="0.75" stroke-linecap="round" stroke-linejoin="round"/>
<path d="M31.9404 113.515V110.31L33.5452 111.915L31.9404 113.515Z" fill="#263238" stroke="#263238" stroke-width="0.75" stroke-linecap="round" stroke-linejoin="round"/>
<path d="M134.137 54.6705L189.643 54.6705V35.271L134.137 35.271V54.6705Z" fill="white" stroke="#263238" stroke-width="0.75" stroke-linecap="round" stroke-linejoin="round"/>
<path d="M82.286 76.8096H129.394V35.2711L82.286 35.2711V76.8096Z" fill="white" stroke="#263238" stroke-width="0.75" stroke-linecap="round" stroke-linejoin="round"/>
<path d="M129.394 76.8096L82.2861 35.2759" stroke="#263238" stroke-width="0.5" stroke-linecap="round" stroke-linejoin="round"/>
<path d="M82.2861 76.8096L129.394 35.2759" stroke="#263238" stroke-width="0.5" stroke-linecap="round" stroke-linejoin="round"/>
<path d="M160.25 57.4102H134.142V76.8096H160.25V57.4102Z" fill="#FECE3E" stroke="#263238" stroke-width="0.75" stroke-miterlimit="10"/>
<path d="M189.643 57.4102H163.535V76.8096H189.643V57.4102Z" fill="white" stroke="#263238" stroke-width="0.75" stroke-linecap="round" stroke-linejoin="round"/>
<path d="M189.643 76.8096L163.535 57.4102" stroke="#263238" stroke-width="0.5" stroke-linecap="round" stroke-linejoin="round"/>
<path d="M163.535 76.8096L189.643 57.4102" stroke="#263238" stroke-width="0.5" stroke-linecap="round" stroke-linejoin="round"/>
<path d="M189.648 79.5488H134.142V115.998H189.648V79.5488Z" fill="white" stroke="#263238" stroke-width="0.75" stroke-linecap="round" stroke-linejoin="round"/>
<path d="M129.071 79.5488H105.84V96.4035H129.071V79.5488Z" fill="white" stroke="#263238" stroke-width="0.75" stroke-linecap="round" stroke-linejoin="round"/>
<path d="M129.071 99.143H105.84V115.998H129.071V99.143Z" stroke="#263238" stroke-width="0.75" stroke-linecap="round" stroke-linejoin="round"/>
<path d="M191.381 53.873H165.273V73.2725H191.381V53.873Z" fill="#FECE3E" stroke="#263238" stroke-width="0.75" stroke-linecap="round" stroke-linejoin="round"/>
<path d="M169.698 55.1309H166.963V57.1629H169.698V55.1309Z" fill="#263238" stroke="#263238" stroke-linecap="round" stroke-linejoin="round"/>
<path d="M169.517 69.0515L175.708 59.5986L181.895 69.0515H169.517Z" fill="#999999" stroke="#263238" stroke-width="0.75" stroke-linecap="round" stroke-linejoin="round"/>
<path d="M177.693 69.0515L182.417 61.8349L187.146 69.0515H177.693Z" fill="#757575" stroke="#263238" stroke-width="0.75" stroke-linecap="round" stroke-linejoin="round"/>
<path d="M181.857 59.5987C181.858 59.9118 181.766 60.2181 181.592 60.4789C181.419 60.7396 181.172 60.943 180.883 61.0632C180.594 61.1835 180.276 61.2152 179.968 61.1543C179.661 61.0935 179.379 60.9428 179.158 60.7214C178.936 60.5 178.786 60.2179 178.725 59.9107C178.664 59.6036 178.696 59.2853 178.816 58.9962C178.936 58.7071 179.14 58.4603 179.4 58.2869C179.661 58.1135 179.967 58.0215 180.28 58.0224C180.698 58.0237 181.098 58.1902 181.394 58.4855C181.689 58.7808 181.855 59.181 181.857 59.5987Z" fill="white" stroke="#263238" stroke-width="0.75" stroke-linecap="round" stroke-linejoin="round"/>
<path d="M124.94 80.9209H101.709V97.7756H124.94V80.9209Z" fill="#FECE3E" stroke="#263238" stroke-width="0.75" stroke-linecap="round" stroke-linejoin="round"/>
<path d="M110.141 84.8428L117.329 89.3484L110.141 93.8493L111.485 89.3484L110.141 84.8428Z" fill="#263238" stroke="#263238" stroke-width="0.75" stroke-linecap="round" stroke-linejoin="round"/>
<path d="M111.485 89.3484L110.141 84.8428L117.329 89.3484H111.485Z" fill="white" stroke="#263238" stroke-width="0.75" stroke-linecap="round" stroke-linejoin="round"/>
<path d="M187.307 30.0576H176.952V49.6423H191.499V34.2547L187.307 30.0576Z" fill="#FECE3E" stroke="#263238" stroke-width="0.75" stroke-linecap="round" stroke-linejoin="round"/>
<path d="M191.499 34.2547H187.307V30.0576L191.499 34.2547Z" fill="#FECE3E" stroke="#263238" stroke-width="0.75" stroke-linecap="round" stroke-linejoin="round"/>
<path d="M183.286 36.0117H185.085L186.458 44.4485H185.133L184.891 42.7726H183.386L183.144 44.4248H181.909L183.286 36.0117ZM184.758 41.6521L184.169 37.4788L183.59 41.6521H184.758Z" fill="#263238"/>
<path d="M168.297 31.8623H157.942V51.4422H172.494V36.0594L168.297 31.8623Z" fill="#FECE3E" stroke="#263238" stroke-width="0.75" stroke-linecap="round" stroke-linejoin="round"/>
<path d="M172.494 36.0594H168.297V31.8623L172.494 36.0594Z" fill="#FECE3E" stroke="#263238" stroke-width="0.75" stroke-linecap="round" stroke-linejoin="round"/>
<path d="M163.868 44.4628L163.464 46.248H162.989L164.751 38.1768H165.525L167.319 46.248H166.792L166.389 44.4628H163.868ZM163.948 43.9881H166.298L165.112 38.7655L163.948 43.9881Z" fill="#263238"/>
<path d="M149.016 28.7665H136.591V52.2634H154.054V33.8039L149.016 28.7665Z" fill="#FECE3E" stroke="#263238" stroke-width="0.75" stroke-linecap="round" stroke-linejoin="round"/>
<path d="M154.054 33.804H149.016V28.7666L154.054 33.804Z" fill="#FECE3E" stroke="#263238" stroke-width="0.75" stroke-linecap="round" stroke-linejoin="round"/>
<path d="M143.703 44.1684L143.148 46.3999H142.877L145.161 36.9043H145.584L147.92 46.3999H147.62L147.07 44.1684H143.703ZM143.756 43.8978H147.013L145.351 37.2746L143.756 43.8978Z" fill="#263238"/>
<path d="M132.679 101.104H109.448V117.959H132.679V101.104Z" fill="white" stroke="#263238" stroke-width="0.75" stroke-linecap="round" stroke-linejoin="round"/>
<path d="M124.375 105.244C123.494 104.362 122.298 103.867 121.052 103.867C119.805 103.867 118.61 104.362 117.728 105.244C116.847 106.125 116.352 107.321 116.352 108.567C116.352 109.814 116.847 111.009 117.728 111.891L121.052 115.214L124.375 111.891C124.813 111.455 125.161 110.937 125.398 110.367C125.635 109.797 125.758 109.185 125.758 108.567C125.758 107.95 125.635 107.338 125.398 106.768C125.161 106.197 124.813 105.679 124.375 105.244ZM122.604 110.101C122.299 110.406 121.911 110.613 121.488 110.697C121.066 110.782 120.627 110.738 120.229 110.574C119.831 110.409 119.491 110.129 119.251 109.771C119.012 109.413 118.884 108.991 118.884 108.56C118.884 108.129 119.012 107.708 119.251 107.349C119.491 106.991 119.831 106.712 120.229 106.547C120.627 106.382 121.066 106.339 121.488 106.423C121.911 106.507 122.299 106.715 122.604 107.019C123.013 107.428 123.242 107.982 123.242 108.56C123.242 109.138 123.013 109.692 122.604 110.101Z" fill="#FECE3E" stroke="#263238" stroke-linecap="round" stroke-linejoin="round"/>
<path d="M79.366 73.8374H126.474V32.299L79.366 32.299V73.8374Z" fill="#FECE3E" stroke="#263238" stroke-width="0.75" stroke-linecap="round" stroke-linejoin="round"/>
<path d="M81.5311 37.8301H85.6332V34.2123H81.5311V37.8301Z" fill="#263238" stroke="#263238" stroke-linecap="round" stroke-linejoin="round"/>
<path d="M84.9639 64.0994L97.6405 44.7427L110.312 64.0994H84.9639Z" fill="#999999" stroke="#263238" stroke-width="0.75" stroke-linecap="round" stroke-linejoin="round"/>
<path d="M107.003 47.9763C108.789 47.9763 110.237 46.5287 110.237 44.743C110.237 42.9573 108.789 41.5098 107.003 41.5098C105.218 41.5098 103.77 42.9573 103.77 44.743C103.77 46.5287 105.218 47.9763 107.003 47.9763Z" fill="white" stroke="#263238" stroke-width="0.75" stroke-linecap="round" stroke-linejoin="round"/>
<path d="M101.709 64.0997L111.385 49.3198L121.061 64.0997H101.709Z" fill="#999999" stroke="#263238" stroke-width="0.75" stroke-linecap="round" stroke-linejoin="round"/>
<path d="M154.998 96.7215C155.207 97.9035 155.06 99.1206 154.576 100.219C154.092 101.317 153.294 102.248 152.282 102.892C151.269 103.537 150.089 103.867 148.889 103.84C147.689 103.814 146.524 103.432 145.541 102.743C144.558 102.055 143.801 101.09 143.367 99.9712C142.932 98.8525 142.839 97.6301 143.099 96.4585C143.36 95.2869 143.961 94.2188 144.829 93.3892C145.696 92.5597 146.79 92.0059 147.972 91.798C148.756 91.6594 149.561 91.6768 150.339 91.8493C151.117 92.0217 151.853 92.3459 152.506 92.8031C153.158 93.2604 153.714 93.8418 154.142 94.5142C154.57 95.1865 154.861 95.9366 154.998 96.7215Z" fill="#FECE3E" stroke="#263238" stroke-linecap="round" stroke-linejoin="round"/>
<path d="M146.12 95.7388L151.927 99.8076" stroke="#263238" stroke-width="1.5" stroke-linecap="round" stroke-linejoin="round"/>
<path d="M151.058 94.87L146.994 100.677" stroke="#263238" stroke-width="1.5" stroke-linecap="round" stroke-linejoin="round"/>
<path d="M167.865 103.914C168.073 105.096 167.926 106.313 167.442 107.411C166.959 108.509 166.16 109.44 165.148 110.084C164.136 110.729 162.956 111.059 161.756 111.032C160.557 111.006 159.392 110.625 158.409 109.936C157.426 109.248 156.669 108.284 156.234 107.166C155.799 106.047 155.705 104.825 155.965 103.654C156.224 102.482 156.825 101.414 157.692 100.584C158.559 99.7541 159.652 99.1997 160.833 98.991C161.618 98.8523 162.423 98.8696 163.201 99.042C163.98 99.2145 164.716 99.5385 165.369 99.9958C166.022 100.453 166.579 101.034 167.007 101.707C167.435 102.379 167.727 103.129 167.865 103.914Z" fill="white" stroke="#263238" stroke-linecap="round" stroke-linejoin="round"/>
<path d="M158.987 102.937L164.793 107.001" stroke="#263238" stroke-width="3" stroke-linecap="round" stroke-linejoin="round"/>
<path d="M163.924 102.063L159.855 107.869" stroke="#263238" stroke-width="3" stroke-linecap="round" stroke-linejoin="round"/>
<path d="M179.682 94.6849C179.891 95.8666 179.745 97.0838 179.262 98.1824C178.779 99.2811 177.982 100.212 176.97 100.857C175.958 101.502 174.777 101.833 173.578 101.807C172.378 101.782 171.213 101.401 170.229 100.713C169.246 100.025 168.489 99.0612 168.053 97.9429C167.618 96.8247 167.524 95.6024 167.783 94.4306C168.042 93.2589 168.643 92.1903 169.509 91.3601C170.376 90.5298 171.469 89.9751 172.651 89.7662C174.235 89.4873 175.866 89.8486 177.184 90.7709C178.502 91.6931 179.401 93.1008 179.682 94.6849Z" fill="#999999" stroke="#263238" stroke-width="0.75" stroke-linecap="round" stroke-linejoin="round"/>
<path d="M176.611 98.5971C176.44 98.5979 176.274 98.5447 176.136 98.4452L170.329 94.3811C170.15 94.2552 170.029 94.0634 169.992 93.8479C169.954 93.6324 170.004 93.4109 170.13 93.2321C170.256 93.0533 170.448 92.9319 170.663 92.8945C170.879 92.8571 171.1 92.9068 171.279 93.0327L177.085 97.1016C177.229 97.2018 177.337 97.3454 177.394 97.5114C177.45 97.6774 177.452 97.8572 177.399 98.0243C177.346 98.1915 177.241 98.3372 177.099 98.4403C176.957 98.5434 176.786 98.5983 176.611 98.5971Z" fill="white"/>
<path d="M171.673 99.4658C171.503 99.4676 171.337 99.4161 171.198 99.3187C171.109 99.2574 171.033 99.179 170.974 99.0882C170.916 98.9973 170.876 98.8957 170.857 98.7892C170.838 98.6828 170.84 98.5736 170.864 98.4681C170.887 98.3625 170.932 98.2627 170.994 98.1744L175.063 92.3679C175.125 92.2797 175.204 92.2046 175.296 92.1469C175.387 92.0893 175.489 92.0502 175.595 92.0319C175.702 92.0136 175.811 92.0165 175.916 92.0403C176.022 92.0641 176.121 92.1085 176.209 92.1709C176.298 92.2332 176.373 92.3123 176.43 92.4037C176.488 92.4951 176.527 92.5969 176.545 92.7033C176.564 92.8098 176.561 92.9188 176.537 93.0242C176.513 93.1296 176.469 93.2292 176.406 93.3175L172.342 99.124C172.266 99.2296 172.165 99.3155 172.049 99.3749C171.932 99.4343 171.804 99.4655 171.673 99.4658Z" fill="white"/>
<path d="M51.4449 181.189H20.8739L17.5884 168.907H54.7304L51.4449 181.189Z" fill="#263238" stroke="#263238" stroke-width="0.75" stroke-linecap="round" stroke-linejoin="round"/>
<path d="M31.9312 171.646C31.9312 171.646 29.5573 159.302 20.4036 152.323C13.2629 146.863 5.76611 134.538 5.76611 134.538" stroke="#263238" stroke-width="0.75" stroke-linecap="round" stroke-linejoin="round"/>
<path d="M21.7994 155.76C21.7994 155.76 12.3513 153.861 15.6273 159.596C18.9033 165.331 26.4428 162.882 26.4428 162.882C26.4428 162.882 32.8808 158.632 29.5953 153.5C26.3098 148.368 21.7994 155.76 21.7994 155.76Z" fill="#FECE3E"/>
<path opacity="0.1" d="M29.6048 153.5C26.3146 148.368 21.7994 155.76 21.7994 155.76C21.7994 155.76 21.111 159.458 26.4523 162.882C26.4523 162.882 32.8903 158.632 29.6048 153.5Z" fill="black"/>
<path d="M6.13644 134.575C6.13644 134.575 0.144731 129.054 0.00229729 134.651C-0.140136 140.249 6.38808 141.773 6.38808 141.773C6.38808 141.773 12.8878 141.507 12.7691 136.37C12.6504 131.233 6.13644 134.575 6.13644 134.575Z" fill="#FECE3E"/>
<path opacity="0.1" d="M12.7695 136.37C12.6413 131.219 6.12257 134.585 6.12257 134.585C6.12257 134.585 4.0098 136.959 6.37421 141.773C6.38845 141.763 12.8882 141.507 12.7695 136.37Z" fill="black"/>
<path d="M13.7139 145.006C13.7139 145.006 11.34 137.206 16.4581 139.523C21.5762 141.84 20.0759 148.368 20.0759 148.368C20.0759 148.368 17.0041 154.117 12.413 151.753C7.82186 149.389 13.7139 145.006 13.7139 145.006Z" fill="#FECE3E"/>
<path opacity="0.1" d="M12.413 151.753C7.83142 149.379 13.6997 145.006 13.6997 145.006C13.6997 145.006 16.7573 144.142 20.0617 148.368C20.076 148.368 17.0042 154.117 12.413 151.753Z" fill="black"/>
<path d="M39.7368 171.646C39.7368 171.646 43.573 160.726 53.1541 154.678C62.7351 148.629 66.9512 141.246 66.9512 141.246" stroke="#263238" stroke-width="0.75" stroke-linecap="round" stroke-linejoin="round"/>
<path d="M31.9409 139.741C31.9409 139.741 35.7819 144.669 36.5273 153.51C37.2727 162.35 37.9516 171.656 37.9516 171.656" stroke="#263238" stroke-width="0.75" stroke-linecap="round" stroke-linejoin="round"/>
<path d="M35.7391 147.081C35.7391 147.081 32.9854 141.037 39.694 142.604C46.4027 144.171 44.081 149.408 44.081 149.408C44.081 149.408 39.6751 154.113 33.6644 152.479C27.6536 150.846 35.7391 147.081 35.7391 147.081Z" fill="#FECE3E"/>
<path opacity="0.1" d="M33.6644 152.479C27.6536 150.851 35.7391 147.081 35.7391 147.081C35.7391 147.081 39.8792 146.241 44.081 149.407C44.081 149.407 39.6751 154.112 33.6644 152.479Z" fill="black"/>
<path d="M61.9369 148.126C61.9369 148.126 59.1832 142.087 65.8918 143.649C72.6004 145.211 70.2788 150.452 70.2788 150.452C70.2788 150.452 65.8728 155.157 59.8621 153.529C53.8514 151.9 61.9369 148.126 61.9369 148.126Z" fill="#FECE3E"/>
<path opacity="0.1" d="M59.8621 153.528C53.8514 151.895 61.9369 148.125 61.9369 148.125C61.9369 148.125 66.077 147.285 70.2788 150.452C70.2788 150.452 65.8728 155.157 59.8621 153.528Z" fill="black"/>
<path d="M46.839 161.097C46.839 161.097 45.4954 154.592 51.6912 157.607C57.8871 160.622 54.4592 165.204 54.4592 165.204C54.4592 165.204 49.1227 168.812 43.62 165.892C38.1173 162.972 46.839 161.097 46.839 161.097Z" fill="#FECE3E"/>
<path opacity="0.1" d="M43.6205 165.901C38.1225 162.982 46.8395 161.097 46.8395 161.097C46.8395 161.097 51.065 161.192 54.4359 165.213C54.4597 165.213 49.1232 168.821 43.6205 165.901Z" fill="black"/>
<path d="M36.4463 157.498C36.4463 157.498 34.5472 153.377 39.143 154.44C43.7389 155.504 42.1294 159.079 42.1294 159.079C42.1294 159.079 39.1288 162.288 35.0077 161.177C30.8866 160.066 36.4463 157.498 36.4463 157.498Z" fill="#FECE3E"/>
<path opacity="0.1" d="M35.0317 161.177C30.9344 160.066 36.4561 157.498 36.4561 157.498C37.4632 157.367 38.4863 157.44 39.4649 157.711C40.4435 157.983 41.3577 158.448 42.1534 159.079C42.1534 159.079 39.1291 162.288 35.0317 161.177Z" fill="black"/>
<path d="M32.3538 139.39C32.3538 139.39 34.704 133.089 29.2535 134.846C23.803 136.603 25.5645 141.968 25.5645 141.968C25.5645 141.968 29.0256 146.715 33.9158 144.921C38.8061 143.126 32.3538 139.39 32.3538 139.39Z" fill="#FECE3E"/>
<path opacity="0.1" d="M33.9349 144.916C38.8203 143.107 32.3728 139.389 32.3728 139.389C32.3728 139.389 29.0494 138.606 25.5835 141.963C25.5835 141.963 29.0304 146.729 33.9349 144.916Z" fill="black"/>
<path d="M66.5853 138.872C66.5853 138.872 63.9123 134.946 67.9622 135.231C72.0121 135.515 71.6939 139.504 71.6939 139.504C71.6939 139.504 70.1177 143.359 66.4714 142.936C62.8251 142.514 66.5853 138.872 66.5853 138.872Z" fill="#FECE3E"/>
<path opacity="0.1" d="M66.4428 142.936C62.7823 142.513 66.5853 138.872 66.5853 138.872C66.5853 138.872 68.7408 137.775 71.6844 139.503C71.6844 139.503 70.1081 143.359 66.4428 142.936Z" fill="black"/>
<path d="M54.5879 152.588C54.5879 152.588 64.1404 151.283 59.1457 146.938C54.1511 142.594 47.846 147.413 47.846 147.413C47.846 147.413 43.1694 153.543 47.9647 157.308C52.76 161.073 54.5879 152.588 54.5879 152.588Z" fill="#FECE3E"/>
<path opacity="0.1" d="M47.9643 157.293C52.7595 161.058 54.6112 152.588 54.6112 152.588C54.6112 152.588 54.0414 148.871 47.8693 147.399C47.8456 147.399 43.169 153.528 47.9643 157.293Z" fill="black"/>
<path d="M30.1698 163.466C30.1698 163.466 27.7959 155.665 32.9092 157.977C38.0226 160.289 36.5271 166.822 36.5271 166.822C36.5271 166.822 33.46 172.572 28.8784 170.212C24.2968 167.853 30.1698 163.466 30.1698 163.466Z" fill="#FECE3E"/>
<path opacity="0.1" d="M28.8783 170.212C24.3014 167.839 30.1697 163.466 30.1697 163.466C30.1697 163.466 33.2273 162.597 36.527 166.823C36.527 166.823 33.4599 172.572 28.8783 170.212Z" fill="black"/>
<path d="M162.035 155.746C162.035 155.746 145.209 134.381 163.431 153.144C163.431 153.144 159.969 132.339 166.716 153.97C166.716 153.97 171.269 133.858 169.631 156.933C169.631 156.933 177.978 137.576 170.775 161.476C170.775 161.476 142.925 169.965 163.844 161.362C163.844 161.362 135.319 159.805 161.622 158.841C161.622 158.841 133.007 145.566 162.035 155.746Z" fill="#FECE3E"/>
<path opacity="0.1" d="M162.035 155.746C162.035 155.746 145.209 134.381 163.431 153.144C163.431 153.144 159.969 132.339 166.716 153.97C166.716 153.97 171.269 133.858 169.631 156.933C169.631 156.933 177.978 137.576 170.775 161.476C170.775 161.476 142.925 169.965 163.844 161.362C163.844 161.362 135.319 159.805 161.622 158.841C161.622 158.841 133.007 145.566 162.035 155.746Z" fill="black"/>
<path d="M164.313 156.035C164.313 156.035 173.895 161.785 176.496 170.003" stroke="#263238" stroke-width="0.75" stroke-linecap="round" stroke-linejoin="round"/>
<path d="M195.269 167.976H163.934C163.797 167.95 163.656 167.955 163.52 167.99C163.385 168.024 163.259 168.089 163.151 168.178C163.044 168.267 162.957 168.379 162.898 168.505C162.838 168.631 162.808 168.769 162.808 168.909C162.808 169.049 162.838 169.187 162.898 169.313C162.957 169.439 163.044 169.551 163.151 169.64C163.259 169.729 163.385 169.794 163.52 169.829C163.656 169.863 163.797 169.868 163.934 169.842H164.608L166.778 177.942C167.026 178.874 167.575 179.699 168.34 180.287C169.105 180.875 170.043 181.194 171.008 181.194H188.181C189.146 181.194 190.084 180.875 190.849 180.287C191.614 179.699 192.163 178.874 192.411 177.942L194.581 169.842H195.255C195.392 169.868 195.534 169.863 195.669 169.829C195.804 169.794 195.93 169.729 196.038 169.64C196.145 169.551 196.232 169.439 196.291 169.313C196.351 169.187 196.382 169.049 196.382 168.909C196.382 168.769 196.351 168.631 196.291 168.505C196.232 168.379 196.145 168.267 196.038 168.178C195.93 168.089 195.804 168.024 195.669 167.99C195.534 167.955 195.392 167.95 195.255 167.976H195.269Z" fill="#263238" stroke="#263238" stroke-width="0.75" stroke-linecap="round" stroke-linejoin="round"/>
<path d="M172.005 149.687C172.005 149.687 161.854 119.145 174.602 147.352C174.602 147.352 179.103 122.805 177.926 149.593C177.926 149.593 191.072 129.03 179.986 154.06C179.986 154.06 197.05 135.862 179.431 159.572C179.431 159.572 145.023 157.844 171.763 156.667C171.763 156.667 140.636 143.482 170.301 152.963C170.301 152.987 143.779 126.699 172.005 149.687Z" fill="#FECE3E"/>
<path d="M174.17 150.362C174.17 150.362 181.016 160.005 183.48 170.003" stroke="#263238" stroke-width="0.75" stroke-linecap="round" stroke-linejoin="round"/>
<path d="M188.955 151.117C188.955 151.117 212.898 132.258 191.87 152.674C191.87 152.674 215.181 148.795 190.92 156.358C190.92 156.358 213.458 161.462 187.597 159.629C187.597 159.629 209.289 168.982 182.507 160.906C182.507 160.906 173.012 129.699 182.631 153.139C182.631 153.139 184.378 121.177 185.479 150.651C185.489 150.651 200.364 118.58 188.955 151.117Z" fill="#FECE3E"/>
<path opacity="0.3" d="M188.955 151.117C188.955 151.117 212.898 132.258 191.87 152.674C191.87 152.674 215.181 148.795 190.92 156.358C190.92 156.358 213.458 161.462 187.597 159.629C187.597 159.629 209.289 168.982 182.507 160.906C182.507 160.906 173.012 129.699 182.631 153.139C182.631 153.139 184.378 121.177 185.479 150.651C185.489 150.651 200.364 118.58 188.955 151.117Z" fill="white"/>
<path d="M177.636 171.371C181.942 156.994 189.505 153.5 189.505 153.5" stroke="#263238" stroke-width="0.75" stroke-linecap="round" stroke-linejoin="round"/>
<path d="M98.0965 200C119.359 200 136.596 196.652 136.596 192.522C136.596 188.392 119.359 185.044 98.0965 185.044C76.8336 185.044 59.5966 188.392 59.5966 192.522C59.5966 196.652 76.8336 200 98.0965 200Z" fill="#FECE3E"/>
<path opacity="0.7" d="M98.0965 200C119.359 200 136.596 196.652 136.596 192.522C136.596 188.392 119.359 185.044 98.0965 185.044C76.8336 185.044 59.5966 188.392 59.5966 192.522C59.5966 196.652 76.8336 200 98.0965 200Z" fill="white"/>
<path d="M1.12744 181.194H214.735" stroke="#263238" stroke-linecap="round" stroke-linejoin="round"/>
<path d="M90.2767 64.484L90.0963 60.5576C90.0963 60.5576 84.7076 57.1772 84.342 52.8899C84.342 52.8899 81.5171 46.2715 90.3669 43.5795C97.4222 41.4335 97.0139 40.3842 97.0139 40.3842C97.0139 40.3842 98.5236 41.386 97.1278 43.2329C97.1278 43.2329 99.6631 43.5035 100.665 42.5919C100.509 43.2059 100.165 43.7559 99.6819 44.1653C99.1985 44.5747 98.5994 44.823 97.9682 44.8756C97.9682 44.8756 99.7533 46.6086 101.292 46.0626C101.292 46.0626 100.731 47.4299 98.4999 46.6988C98.4999 46.6988 100.57 48.332 101.292 50.497L101.667 52.211L103.504 53.4359C103.597 53.4979 103.677 53.5785 103.737 53.6725C103.798 53.7665 103.839 53.8719 103.857 53.9824C103.875 54.0928 103.871 54.2058 103.843 54.3143C103.816 54.4228 103.767 54.5246 103.699 54.6133L102.934 55.6009L103.205 57.1059L102.901 57.481L103.618 57.9938L103.893 59.4181C103.893 59.4181 104.506 61.0276 103.96 61.849C103.414 62.6703 100.57 62.7985 100.57 62.7985L100.261 66.2217L90.2767 64.484Z" fill="white" stroke="#263238" stroke-linecap="round" stroke-linejoin="round"/>
<path d="M92.0902 60.2585C92.057 58.5161 94.146 57.0775 94.146 57.0775C94.146 57.0775 93.1157 57.3149 92.2469 55.9475C91.3781 54.5802 91.492 52.3202 93.3769 52.5908C93.8968 52.647 94.3825 52.8774 94.7549 53.2446C95.1273 53.6118 95.3645 54.0943 95.4279 54.6134L96.971 53.6638C96.2161 52.776 96.387 51.5748 96.8665 50.2074C97.346 48.8401 96.425 48.6644 96.6956 47.8335C96.9045 47.2068 98.2529 47.0122 98.8843 46.9552C98.6659 46.7558 98.5282 46.6466 98.5282 46.6466C100.76 47.3778 101.32 46.0104 101.32 46.0104C99.7674 46.5564 97.9965 44.8234 97.9965 44.8234C98.6277 44.7708 99.2269 44.5225 99.7103 44.1131C100.194 43.7037 100.537 43.1537 100.693 42.5398C99.6914 43.4513 97.1561 43.1807 97.1561 43.1807C98.552 41.3528 97.0422 40.332 97.0422 40.332C97.0422 40.332 97.4315 41.3813 90.3953 43.5273C81.5454 46.2193 84.3703 52.8377 84.3703 52.8377C84.7359 57.1107 90.1246 60.5054 90.1246 60.5054C90.4199 60.3369 90.7455 60.2284 91.0828 60.186C91.4201 60.1436 91.7625 60.1683 92.0902 60.2585Z" fill="#263238" stroke="#263238" stroke-linecap="round" stroke-linejoin="round"/>
<path d="M100.56 50.4683C100.56 50.4683 99.6108 50.4683 99.2832 52.1585" stroke="#263238" stroke-linecap="round" stroke-linejoin="round"/>
<path d="M101.885 57.5569C101.51 57.5418 101.142 57.4498 100.804 57.2864C100.465 57.1231 100.164 56.8919 99.9194 56.6074" stroke="#263238" stroke-width="0.75" stroke-linecap="round" stroke-linejoin="round"/>
<path d="M94.6255 57.6567C94.8486 63.2544 100.579 62.7796 100.579 62.7796C100.579 62.7796 102.597 62.6799 103.556 62.1576C95.143 62.8271 94.6255 57.6567 94.6255 57.6567Z" fill="#263238" stroke="#263238" stroke-linecap="round" stroke-linejoin="round"/>
<path d="M101.073 52.5769C101.23 52.9045 101.211 53.2416 101.031 53.3318C100.85 53.422 100.556 53.2178 100.413 52.8902C100.271 52.5626 100.276 52.2208 100.461 52.1353C100.646 52.0499 100.917 52.2445 101.073 52.5769Z" fill="#263238"/>
<path d="M105.042 181.569L106.229 189.004C105.91 189.902 105.643 190.816 105.427 191.744C105.404 192.157 105.404 192.57 105.427 192.983C105.427 193.385 105.582 193.772 105.86 194.064C106.137 194.355 106.516 194.529 106.917 194.55C108.46 194.626 110.787 194.692 111.779 194.459C113.644 193.902 115.393 193.014 116.945 191.839C117.166 191.612 117.362 191.362 117.529 191.093C117.706 190.827 117.807 190.518 117.823 190.199C117.839 189.88 117.768 189.562 117.619 189.28C117.465 188.981 117.228 188.732 116.937 188.564C116.646 188.396 116.312 188.314 115.976 188.33L111.936 188.529L111.342 180.724L105.042 181.569Z" fill="#263238" stroke="#263238" stroke-linecap="round" stroke-linejoin="round"/>
<path d="M81.0232 181.346L79.955 188.036C80.2412 188.843 80.4821 189.666 80.6766 190.5C80.6988 190.871 80.6988 191.244 80.6766 191.616C80.6773 191.979 80.539 192.329 80.2901 192.594C80.0412 192.859 79.7005 193.018 79.3378 193.04C77.9467 193.106 75.8529 193.168 74.9603 192.954C73.281 192.449 71.7066 191.644 70.3122 190.581C70.1133 190.375 69.9367 190.149 69.7852 189.906C69.6261 189.667 69.5346 189.388 69.5204 189.101C69.5062 188.813 69.5698 188.528 69.7045 188.273C69.8466 188.008 70.0613 187.788 70.3236 187.64C70.586 187.492 70.885 187.422 71.1858 187.438L74.8226 187.618L75.3544 180.591L81.0232 181.346Z" fill="#263238" stroke="#263238" stroke-linecap="round" stroke-linejoin="round"/>
<path d="M79.6655 111.953C79.6655 111.953 79.4186 116.515 79.1147 124.188C78.8868 129.937 77.2156 147.751 76.7408 153.766C76.1284 161.719 74.1865 185.534 74.1865 185.534C74.1865 185.534 76.7408 187.727 80.7575 186.445C80.7575 186.445 85.6097 163.02 86.9676 155.11C87.9171 149.569 90.2151 132.833 91.8958 127.464C92.4465 125.707 95.0008 120.817 95.0008 120.817V111.953H79.6655Z" fill="#FECE3E"/>
<path opacity="0.2" d="M77.5385 114.079C77.5385 114.079 83.6821 117.778 89.0234 117.503C89.0234 117.503 91.0792 122.436 89.7071 129.966C88.3349 137.496 84.5794 155.836 84.5794 155.836C84.5794 155.836 81.3415 183.036 79.8317 182.856C78.3219 182.675 73.7402 181.512 73.7402 181.512L74.1723 185.524L79.9693 186.512L83.326 185.035L91.0982 160.347L92.6507 140.714L95.2525 124.368L93.1255 113.329L81.9682 110.381H77.8566L77.5385 114.079Z" fill="black"/>
<path d="M79.6655 111.953C79.6655 111.953 79.4186 116.515 79.1147 124.188C78.8868 129.937 77.2156 147.751 76.7408 153.766C76.1284 161.719 74.1865 185.534 74.1865 185.534C74.1865 185.534 76.7408 187.727 80.7575 186.445C80.7575 186.445 85.6097 163.02 86.9676 155.11C87.9171 149.569 90.2151 132.833 91.8958 127.464C92.4465 125.707 95.0008 120.817 95.0008 120.817V111.953H79.6655Z" stroke="#263238" stroke-linecap="round" stroke-linejoin="round"/>
<path d="M85.2202 122.032C87.0053 123.203 89.01 123.997 91.1122 124.368" stroke="#263238" stroke-linecap="round" stroke-linejoin="round"/>
<path d="M84.0142 121.063C84.1898 121.23 84.3797 121.396 84.5934 121.567" stroke="#263238" stroke-linecap="round" stroke-linejoin="round"/>
<path d="M83.3118 156.339C82.5379 157.175 81.237 157.764 79.1147 156.733" stroke="#263238" stroke-linecap="round" stroke-linejoin="round"/>
<path d="M117.539 75.3851C117.539 75.3851 120.644 69.213 121.446 67.0765C121.688 66.4308 122.206 64.4224 122.206 64.4224C122.206 64.4224 121.731 61.8064 121.683 60.9233C121.683 60.6147 121.759 59.6936 121.759 59.6936L121.593 57.3197C121.589 57.2279 121.608 57.1365 121.647 57.0536C121.687 56.9708 121.747 56.8991 121.821 56.845C121.891 56.7951 121.972 56.7621 122.057 56.7484C122.141 56.7347 122.228 56.7407 122.31 56.7659C122.393 56.7912 122.468 56.835 122.53 56.894C122.593 56.9529 122.641 57.0255 122.671 57.1061L122.97 57.918C122.97 57.918 123.469 59.2568 123.858 59.4895C124.247 59.7221 125.14 59.4895 125.543 59.385C126.38 59.0423 127.176 58.6076 127.917 58.0889C128.33 57.8183 129.479 56.8924 129.479 56.8924C129.556 57.2028 129.586 57.5228 129.569 57.842C129.296 58.2919 128.958 58.6998 128.568 59.0527C128.649 59.3621 128.68 59.6829 128.658 60.0022C128.553 60.3108 127.765 60.9518 127.765 60.9518C127.794 61.3883 127.77 61.8267 127.694 62.2574C127.357 63.093 125.32 64.9827 125.32 64.9827C125.32 64.9827 124.656 67.5655 124.551 68.4486C124.19 71.5299 124.442 76.14 121.08 80.3655L117.814 78.2528L117.539 75.3851Z" fill="white" stroke="#263238" stroke-linecap="round" stroke-linejoin="round"/>
<path d="M116.271 72.788C116.271 72.788 123.041 71.4491 122.481 77.1702C121.93 82.7393 119.632 81.2105 119.632 81.2105C119.632 81.2105 116.532 82.5589 116.256 80.826C115.981 79.093 116.271 72.788 116.271 72.788Z" fill="#757575" stroke="#263238" stroke-linecap="round" stroke-linejoin="round"/>
<path d="M88.4961 66.2169L89.6593 63.6151C89.6593 63.6151 92.7406 63.2067 95.3567 63.1403C97.1203 63.1336 98.8768 63.3635 100.579 63.824L101.88 66.7676L88.4961 66.2169Z" fill="#757575" stroke="#263238" stroke-linecap="round" stroke-linejoin="round"/>
<path d="M91.7012 111.952H106.894L107.905 122.345C107.905 122.345 109.486 142.594 109.994 149.407C110.721 159.017 112.368 187.931 112.368 187.931L105.451 188.477C105.451 188.477 100.599 159.701 98.6757 150.229C97.3986 143.967 93.3582 125.45 93.3582 125.45C93.3582 125.45 89.7071 120.171 91.7012 111.952Z" fill="#FECE3E"/>
<path opacity="0.2" d="M93.3582 125.45C93.3582 125.45 93.6336 125.882 96.2828 125.45C98.9321 125.018 98.4716 134.424 99.3831 142.182C100.295 149.939 103.571 154.322 103.571 154.322C103.571 154.322 102.806 159.359 103.571 167.392C104.335 175.426 105.066 184.646 106.709 184.556C108.352 184.465 112.919 183.734 112.919 183.734L115.934 185.401L112.919 191.402L102.512 189.389L99.2027 184.465L94.3647 149.398L91.8057 132.976L92.5368 129.054L93.3582 125.45Z" fill="black"/>
<path d="M91.7012 111.952H106.894L107.905 122.345C107.905 122.345 109.486 142.594 109.994 149.407C110.721 159.017 112.368 187.931 112.368 187.931L105.451 188.477C105.451 188.477 100.599 159.701 98.6757 150.229C97.3986 143.967 93.3582 125.45 93.3582 125.45C93.3582 125.45 89.7071 120.171 91.7012 111.952Z" stroke="#263238" stroke-linecap="round" stroke-linejoin="round"/>
<path d="M78.5688 112.869C78.5688 112.869 89.2514 119.074 108.328 114.327L107.231 96.2518C107.231 96.2518 111.158 81.9182 110.968 71.6344C110.92 69.0611 108.836 67.2617 106.291 66.8867C103.746 66.5116 98.9321 65.4623 96.4158 65.3674C93.5956 65.2392 88.0075 65.9276 85.192 66.1128C82.5238 66.2884 80.2638 68.0926 80.1641 70.7656C79.9979 74.9816 80.0834 82.1603 81.3083 93.0328L78.5688 112.869Z" fill="#263238" stroke="#263238" stroke-linecap="round" stroke-linejoin="round"/>
<path d="M84.0145 66.2168C84.0145 66.2168 78.7064 66.6298 77.8851 70.7367C77.0637 74.8435 75.2833 89.367 75.2833 89.367L74.1865 91.6697L79.9361 96.2133C79.9361 96.2133 82.1533 93.2602 82.5379 92.1065C83.9765 87.8003 84.0145 66.2168 84.0145 66.2168Z" fill="#263238" stroke="#263238" stroke-linecap="round" stroke-linejoin="round"/>
<path d="M79.936 96.2038C78.9016 98.0893 77.4497 99.7133 75.6915 100.952C72.8191 102.936 67.5443 103.824 67.5443 103.824C67.2766 104.107 66.9789 104.36 66.6564 104.579C65.6928 104.93 64.6594 105.047 63.6416 104.921C63.0925 104.686 62.6356 104.277 62.3407 103.758C62.2457 103.539 62.3644 103.036 62.3407 102.808C62.2885 102.243 61.8659 101.146 61.9324 100.581C61.9656 100.277 62.3502 99.7552 62.4071 99.4513C62.4641 99.1475 62.1745 98.3783 62.4071 98.1504C62.6398 97.9225 63.333 98.1077 63.6368 98.1504C63.9582 98.2245 64.2752 98.3164 64.5864 98.4258L65.8873 98.1504C65.8873 98.1504 66.044 97.519 66.2291 97.4667C66.5425 97.3813 67.3259 98.1504 67.3259 98.1504L67.6012 98.8341C67.6012 98.8341 71.8458 96.5077 74.1722 92.8804L79.936 96.2038Z" fill="white" stroke="#263238" stroke-linecap="round" stroke-linejoin="round"/>
<path d="M107.136 67.0527C107.136 67.0527 110.426 67.3898 114.733 71.0409L118.293 73.505C118.293 73.505 120.487 74.3264 120.302 77.7068C120.117 81.0872 115.739 82.4071 113.365 81.1964C110.991 79.9857 109.463 79.4397 108.617 78.3477C107.388 76.7525 105.797 72.7833 105.878 70.7513C105.906 69.8017 107.136 67.0527 107.136 67.0527Z" fill="#263238" stroke="#263238" stroke-linecap="round" stroke-linejoin="round"/>
<path d="M106.224 152.323C105.716 153.225 104.591 154.256 102.122 154.697" stroke="#263238" stroke-linecap="round" stroke-linejoin="round"/>
<path d="M101.04 100.624C101.335 100.577 101.613 100.454 101.847 100.268" stroke="#7F7F7F" stroke-width="0.75" stroke-linecap="round" stroke-linejoin="round"/>
<path d="M95.1719 73.6143C95.1719 73.6143 96.1737 97.4814 100.11 100.349" stroke="#7F7F7F" stroke-width="0.75" stroke-linecap="round" stroke-linejoin="round"/>
<path d="M91.7388 104.086C95.1549 104.843 98.7279 104.39 101.847 102.804" stroke="#7F7F7F" stroke-width="0.75" stroke-linecap="round" stroke-linejoin="round"/>
<path d="M82.5376 98.9102C84.7741 101.16 87.5223 102.835 90.5471 103.791" stroke="#7F7F7F" stroke-width="0.75" stroke-linecap="round" stroke-linejoin="round"/>
<path d="M74.8796 90.2265C76.7589 92.2611 78.9168 94.0194 81.2891 95.449C81.2122 95.7489 81.0974 96.0377 80.9473 96.3084C80.7621 96.5268 80.1402 96.674 79.9977 96.9066C79.8553 97.1393 79.9123 97.6948 79.7414 97.8562C79.4795 97.9937 79.1947 98.0822 78.901 98.1173C76.6394 96.7514 74.6076 95.0369 72.8808 93.0372C72.9335 92.6582 73.0407 92.2888 73.1989 91.9404C73.3081 91.8027 73.7117 91.7268 73.8114 91.5843C73.968 91.3564 73.8114 90.6918 74.0013 90.4829C74.1912 90.274 74.8796 90.2265 74.8796 90.2265Z" fill="#757575" stroke="#263238" stroke-linecap="round" stroke-linejoin="round"/>
<path d="M81.6597 89.6328C81.6929 89.9936 81.7309 90.364 81.7689 90.7343" stroke="#7F7F7F" stroke-width="0.75" stroke-linecap="round" stroke-linejoin="round"/>
<path d="M80.8145 74.9243C80.8145 78.3427 81.0234 82.8246 81.5504 88.5078" stroke="#7F7F7F" stroke-width="0.75" stroke-linecap="round" stroke-linejoin="round"/>
<path d="M80.8713 70.7651C80.8396 71.5976 80.8191 72.5471 80.8096 73.6138" stroke="#7F7F7F" stroke-width="0.75" stroke-linecap="round" stroke-linejoin="round"/>
<path d="M105.835 74.3594C106.523 75.8502 107.782 77.5831 109.966 79.4917" stroke="#7F7F7F" stroke-width="0.75" stroke-linecap="round" stroke-linejoin="round"/>
<path d="M73.7781 182.865C76.3941 183.766 79.1241 184.294 81.8874 184.432C81.9597 184.734 81.9947 185.043 81.9918 185.353C81.9301 185.633 81.4553 186.056 81.4126 186.336C81.3699 186.616 81.7117 187.072 81.6452 187.314C81.5788 187.556 81.028 187.936 81.028 187.936C78.3896 187.8 75.7891 187.249 73.3224 186.303C73.1904 185.942 73.1104 185.565 73.085 185.182C73.1134 185.011 73.4363 184.755 73.4553 184.579C73.4885 184.304 73.0375 183.791 73.104 183.52C73.1704 183.25 73.7781 182.865 73.7781 182.865Z" fill="#FECE3E"/>
<path opacity="0.5" d="M73.7781 182.865C76.3941 183.766 79.1241 184.294 81.8874 184.432C81.9597 184.734 81.9947 185.043 81.9918 185.353C81.9301 185.633 81.4553 186.056 81.4126 186.336C81.3699 186.616 81.7117 187.072 81.6452 187.314C81.5788 187.556 81.028 187.936 81.028 187.936C78.3896 187.8 75.7891 187.249 73.3224 186.303C73.1904 185.942 73.1104 185.565 73.085 185.182C73.1134 185.011 73.4363 184.755 73.4553 184.579C73.4885 184.304 73.0375 183.791 73.104 183.52C73.1704 183.25 73.7781 182.865 73.7781 182.865Z" fill="white"/>
<path d="M73.7781 182.865C76.3941 183.766 79.1241 184.294 81.8874 184.432C81.9597 184.734 81.9947 185.043 81.9918 185.353C81.9301 185.633 81.4553 186.056 81.4126 186.336C81.3699 186.616 81.7117 187.072 81.6452 187.314C81.5788 187.556 81.028 187.936 81.028 187.936C78.3896 187.8 75.7891 187.249 73.3224 186.303C73.1904 185.942 73.1104 185.565 73.085 185.182C73.1134 185.011 73.4363 184.755 73.4553 184.579C73.4885 184.304 73.0375 183.791 73.104 183.52C73.1704 183.25 73.7781 182.865 73.7781 182.865Z" stroke="#263238" stroke-linecap="round" stroke-linejoin="round"/>
<path d="M104.586 185.871C107.35 185.983 110.115 185.705 112.8 185.044C112.957 185.313 113.079 185.6 113.166 185.899C113.189 186.184 112.852 186.725 112.895 187.01C112.938 187.295 113.37 187.627 113.394 187.879C113.417 188.13 112.985 188.653 112.985 188.653C110.417 189.277 107.768 189.493 105.132 189.294C104.903 188.986 104.719 188.647 104.586 188.287C104.586 188.112 104.8 187.779 104.767 187.604C104.719 187.328 104.145 186.967 104.131 186.692C104.116 186.417 104.586 185.871 104.586 185.871Z" fill="#FECE3E"/>
<path opacity="0.5" d="M104.586 185.871C107.35 185.983 110.115 185.705 112.8 185.044C112.957 185.313 113.079 185.6 113.166 185.899C113.189 186.184 112.852 186.725 112.895 187.01C112.938 187.295 113.37 187.627 113.394 187.879C113.417 188.13 112.985 188.653 112.985 188.653C110.417 189.277 107.768 189.493 105.132 189.294C104.903 188.986 104.719 188.647 104.586 188.287C104.586 188.112 104.8 187.779 104.767 187.604C104.719 187.328 104.145 186.967 104.131 186.692C104.116 186.417 104.586 185.871 104.586 185.871Z" fill="white"/>
<path d="M104.586 185.871C107.35 185.983 110.115 185.705 112.8 185.044C112.957 185.313 113.079 185.6 113.166 185.899C113.189 186.184 112.852 186.725 112.895 187.01C112.938 187.295 113.37 187.627 113.394 187.879C113.417 188.13 112.985 188.653 112.985 188.653C110.417 189.277 107.768 189.493 105.132 189.294C104.903 188.986 104.719 188.647 104.586 188.287C104.586 188.112 104.8 187.779 104.767 187.604C104.719 187.328 104.145 186.967 104.131 186.692C104.116 186.417 104.586 185.871 104.586 185.871Z" stroke="#263238" stroke-linecap="round" stroke-linejoin="round"/>
<path d="M104.173 116.116C104.173 116.116 104.041 122.288 106.595 122.388" stroke="#263238" stroke-linecap="round" stroke-linejoin="round"/>
<path d="M84.3184 52.8899C84.6839 57.1629 90.0727 60.5576 90.0727 60.5576C90.3711 60.3733 90.7039 60.2518 91.0508 60.2004C91.3977 60.149 91.7515 60.1687 92.0905 60.2585C92.0573 58.516 94.1463 57.0774 94.1463 57.0774C94.1463 57.0774 93.116 57.3148 92.2472 55.9475C91.3783 54.5801 91.4923 52.3202 93.3771 52.5908C93.8971 52.6469 94.3828 52.8774 94.7552 53.2446C95.1276 53.6118 95.3648 54.0942 95.4282 54.6133L96.9712 53.6638C96.2163 52.7759 96.3872 51.5748 96.8668 50.2074C97.3463 48.84 96.4252 48.6644 96.6959 47.8335C96.6769 47.8667 93.719 50.7629 84.3184 52.8899Z" fill="#757575" stroke="#263238" stroke-linecap="round" stroke-linejoin="round"/>
</svg>
