<svg width="260" height="202" viewBox="0 0 260 202" fill="none" xmlns="http://www.w3.org/2000/svg">
<path d="M8.39771 200.589H258.321" stroke="#263238" stroke-linecap="round" stroke-linejoin="round"/>
<path d="M51.1714 131.697C54.7974 134.718 53.5887 152.485 64.9258 144.841C76.2628 137.196 56.9487 132.67 58.0486 128.337C59.5957 122.293 85.1041 129.545 80.8255 117.942C76.5469 106.339 61.2938 123.792 57.2872 119.471C53.6008 115.495 71.9601 101.124 63.4029 98.6826C54.8457 96.2411 56.6647 117.024 51.1714 117.024C46.8808 117.024 47.6845 97.1536 39.7981 104.182C31.9117 111.21 49.147 118.142 46.8928 122.505C45.1766 125.823 31.6096 117.634 32.2199 125.279C32.8303 132.923 47.3038 128.5 51.1714 131.697Z" fill="#FECE3E"/>
<path d="M53.5887 122.607C53.5887 122.607 45.3457 132.597 46.2643 159.821" stroke="#263238" stroke-linecap="round" stroke-linejoin="round"/>
<path d="M69.682 136.767C68.2195 133.824 56.0908 131.811 63.0345 125.424C69.9781 119.036 69.9539 132.73 73.042 132.675C77.3629 132.603 76.5229 114.292 83.6539 119.018C90.7849 123.744 76.6075 131.219 78.8797 134.597C80.9647 137.709 93.5466 127.653 93.8306 133.799C94.1147 139.945 80.4268 135.395 79.5505 139.099C78.8677 141.982 92.3561 144.605 86.3733 148.768C80.3905 152.932 78.4749 140.266 75.1873 141.088C72.6794 141.692 76.0273 152.141 70.9873 150.509C65.9473 148.877 71.217 139.849 69.682 136.767Z" fill="#FECE3E"/>
<path opacity="0.3" d="M69.682 136.767C68.2195 133.824 56.0908 131.811 63.0345 125.424C69.9781 119.036 69.9539 132.73 73.042 132.675C77.3629 132.603 76.5229 114.292 83.6539 119.018C90.7849 123.744 76.6075 131.219 78.8797 134.597C80.9647 137.709 93.5466 127.653 93.8306 133.799C94.1147 139.945 80.4268 135.395 79.5505 139.099C78.8677 141.982 92.3561 144.605 86.3733 148.768C80.3905 152.932 78.4749 140.266 75.1873 141.088C72.6794 141.692 76.0273 152.141 70.9873 150.509C65.9473 148.877 71.217 139.849 69.682 136.767Z" fill="black"/>
<path d="M75.9487 136.894C75.9487 136.894 52.4588 134.446 50.1382 159.822" stroke="#263238" stroke-linecap="round" stroke-linejoin="round"/>
<path d="M31.1322 134.144C27.5063 137.166 28.715 154.933 17.3779 147.288C6.04085 139.643 25.361 135.111 24.2551 130.784C22.7141 124.741 -2.80036 131.993 1.48427 120.39C5.7689 108.787 21.0099 126.246 25.0528 121.919C28.7331 117.948 10.3799 103.577 18.9371 101.13C27.4942 98.6824 25.6511 119.477 31.1625 119.477C35.4531 119.477 34.6554 99.601 42.5418 106.635C50.4282 113.67 33.1869 120.595 35.4471 124.958C37.1573 128.276 50.7304 120.088 50.12 127.726C49.5096 135.365 34.9818 130.947 31.1322 134.144Z" fill="#FECE3E"/>
<path opacity="0.3" d="M31.1322 134.144C27.5063 137.166 28.715 154.933 17.3779 147.288C6.04085 139.643 25.361 135.111 24.2551 130.784C22.7141 124.741 -2.80036 131.993 1.48427 120.39C5.7689 108.787 21.0099 126.246 25.0528 121.919C28.7331 117.948 10.3799 103.577 18.9371 101.13C27.4942 98.6824 25.6511 119.477 31.1625 119.477C35.4531 119.477 34.6554 99.601 42.5418 106.635C50.4282 113.67 33.1869 120.595 35.4471 124.958C37.1573 128.276 50.7304 120.088 50.12 127.726C49.5096 135.365 34.9818 130.947 31.1322 134.144Z" fill="white"/>
<path d="M28.5337 125.055C28.5337 125.055 39.2302 139.341 41.6777 163.182" stroke="#263238" stroke-linecap="round" stroke-linejoin="round"/>
<path d="M36.1903 200.486H52.8696C54.418 200.493 55.912 199.916 57.0534 198.869C58.1949 197.823 58.8999 196.385 59.0276 194.842L61.6504 164.022C61.7188 163.175 61.6112 162.323 61.3343 161.521C61.0574 160.718 60.6173 159.981 60.0417 159.356C59.4661 158.732 58.7674 158.233 57.9896 157.892C57.2118 157.551 56.3718 157.375 55.5225 157.374H33.5676C32.7185 157.375 31.8788 157.551 31.1013 157.892C30.3238 158.233 29.6255 158.732 29.0503 159.357C28.4751 159.981 28.0356 160.718 27.7595 161.521C27.4833 162.324 27.3765 163.175 27.4458 164.022L30.0686 194.842C30.1944 196.379 30.8938 197.813 32.0279 198.859C33.162 199.904 34.6478 200.485 36.1903 200.486Z" fill="#FECE3E" stroke="#263238" stroke-linecap="round" stroke-linejoin="round"/>
<path d="M161.085 156.226C155.507 156.226 139.408 152.6 139.408 152.6H182.762C182.762 152.6 166.657 156.226 161.085 156.226Z" fill="#263238" stroke="#263238" stroke-linecap="round" stroke-linejoin="round"/>
<path d="M166.053 154.407H156.118V161.217H166.053V154.407Z" fill="#858585" stroke="#263238" stroke-linecap="round" stroke-linejoin="round"/>
<path d="M167.521 161.218H154.649V190.497H167.521V161.218Z" fill="#999999" stroke="#263238" stroke-linecap="round" stroke-linejoin="round"/>
<path d="M185.264 143.904H176.87C177.801 138.139 178.49 132.265 178.913 126.445H187.277C186.878 132.265 186.195 138.139 185.264 143.904Z" fill="#858585" stroke="#263238" stroke-linecap="round" stroke-linejoin="round"/>
<path d="M197.973 74.8723H161.907C157.677 74.8723 154.891 78.4559 155.713 82.6741C158.016 95.56 159.393 108.594 159.834 121.677C159.83 122.569 160.004 123.454 160.344 124.279C160.685 125.104 161.186 125.853 161.818 126.483C162.451 127.112 163.202 127.61 164.029 127.947C164.855 128.284 165.74 128.453 166.633 128.445H196.994C198.881 128.426 200.699 127.734 202.121 126.493C203.542 125.252 204.474 123.544 204.747 121.677C206.211 108.731 206.74 95.6962 206.331 82.6741C206.131 78.4559 202.209 74.8723 197.973 74.8723Z" fill="#858585" stroke="#263238" stroke-linecap="round" stroke-linejoin="round"/>
<path d="M199.937 82.6741C200.347 95.6962 199.818 108.731 198.354 121.677C198.08 123.544 197.149 125.252 195.727 126.493C194.305 127.734 192.487 128.426 190.6 128.445H166.633C165.74 128.453 164.855 128.284 164.029 127.947C163.202 127.61 162.451 127.112 161.818 126.483C161.186 125.853 160.685 125.104 160.344 124.279C160.004 123.454 159.83 122.569 159.834 121.677C159.395 108.594 158.02 95.5601 155.719 82.6741C154.897 78.4439 157.671 74.8723 161.913 74.8723H191.579C195.816 74.8723 199.738 78.4559 199.937 82.6741Z" fill="#999999" stroke="#263238" stroke-linecap="round" stroke-linejoin="round"/>
<path d="M182.762 195.754C182.763 195.915 182.727 196.074 182.657 196.219C182.588 196.364 182.487 196.492 182.362 196.593C182.236 196.694 182.09 196.765 181.934 196.802C181.777 196.839 181.614 196.84 181.457 196.806C177.511 195.948 165.696 193.458 161.085 193.458C156.474 193.458 144.654 195.948 140.708 196.806C140.551 196.84 140.388 196.839 140.232 196.802C140.076 196.765 139.93 196.694 139.805 196.593C139.68 196.492 139.58 196.364 139.511 196.219C139.443 196.074 139.407 195.915 139.408 195.754C139.408 195.108 139.629 194.482 140.035 193.979C140.441 193.476 141.007 193.128 141.638 192.993C146.255 192.002 156.789 189.844 161.085 189.844C165.382 189.844 175.915 192.002 180.532 192.993C181.164 193.129 181.729 193.478 182.135 193.98C182.54 194.483 182.762 195.109 182.762 195.754Z" fill="#263238" stroke="#263238" stroke-linecap="round" stroke-linejoin="round"/>
<path d="M139.402 193.579C138.668 193.578 137.95 193.794 137.339 194.202C136.728 194.609 136.251 195.188 135.969 195.867C135.688 196.545 135.614 197.291 135.757 198.012C135.9 198.732 136.253 199.394 136.773 199.913C137.292 200.432 137.954 200.786 138.674 200.929C139.394 201.072 140.141 200.998 140.819 200.716C141.497 200.435 142.077 199.958 142.484 199.347C142.891 198.736 143.108 198.018 143.107 197.283C143.105 196.301 142.714 195.36 142.02 194.666C141.326 193.971 140.384 193.58 139.402 193.579ZM139.402 199.296C139.004 199.297 138.614 199.18 138.283 198.96C137.951 198.739 137.692 198.425 137.539 198.058C137.386 197.69 137.345 197.285 137.422 196.894C137.499 196.504 137.69 196.145 137.971 195.863C138.252 195.58 138.611 195.388 139.001 195.31C139.392 195.232 139.797 195.271 140.165 195.424C140.533 195.576 140.848 195.834 141.069 196.165C141.291 196.496 141.409 196.885 141.409 197.283C141.409 197.816 141.198 198.327 140.821 198.704C140.445 199.081 139.935 199.294 139.402 199.296Z" fill="#858585" stroke="#263238" stroke-linecap="round" stroke-linejoin="round"/>
<path d="M161.085 193.579C160.35 193.577 159.63 193.793 159.017 194.2C158.405 194.608 157.928 195.189 157.646 195.868C157.364 196.548 157.291 197.296 157.435 198.017C157.579 198.738 157.935 199.401 158.456 199.92C158.978 200.438 159.641 200.791 160.364 200.931C161.086 201.072 161.833 200.995 162.511 200.71C163.19 200.425 163.768 199.944 164.172 199.33C164.577 198.716 164.79 197.995 164.784 197.259C164.776 196.282 164.383 195.348 163.691 194.659C162.998 193.97 162.062 193.582 161.085 193.579ZM161.085 199.296C160.688 199.297 160.299 199.18 159.968 198.961C159.637 198.742 159.378 198.429 159.224 198.063C159.07 197.697 159.028 197.293 159.103 196.903C159.178 196.513 159.367 196.154 159.646 195.871C159.925 195.588 160.281 195.394 160.67 195.313C161.059 195.232 161.463 195.268 161.831 195.417C162.2 195.565 162.516 195.819 162.74 196.147C162.965 196.475 163.087 196.862 163.092 197.259C163.095 197.525 163.045 197.789 162.946 198.035C162.847 198.282 162.7 198.506 162.513 198.696C162.326 198.885 162.104 199.036 161.859 199.139C161.614 199.242 161.351 199.295 161.085 199.296Z" fill="#858585" stroke="#263238" stroke-linecap="round" stroke-linejoin="round"/>
<path d="M182.309 193.579C181.575 193.579 180.857 193.797 180.247 194.205C179.637 194.613 179.161 195.192 178.88 195.871C178.6 196.549 178.527 197.296 178.67 198.015C178.814 198.735 179.168 199.397 179.688 199.915C180.207 200.434 180.869 200.787 181.589 200.929C182.309 201.072 183.055 200.998 183.733 200.716C184.411 200.434 184.99 199.957 185.397 199.346C185.804 198.735 186.021 198.017 186.02 197.283C186.02 196.796 185.924 196.314 185.737 195.864C185.551 195.414 185.277 195.006 184.933 194.662C184.588 194.318 184.179 194.045 183.729 193.859C183.279 193.673 182.796 193.578 182.309 193.579ZM182.309 199.296C181.911 199.296 181.522 199.178 181.191 198.957C180.86 198.735 180.602 198.421 180.45 198.053C180.298 197.686 180.258 197.281 180.335 196.891C180.413 196.5 180.605 196.142 180.886 195.86C181.168 195.579 181.526 195.387 181.917 195.31C182.307 195.232 182.712 195.272 183.079 195.424C183.447 195.576 183.761 195.834 183.982 196.165C184.204 196.496 184.322 196.885 184.322 197.283C184.322 197.817 184.11 198.329 183.732 198.706C183.355 199.084 182.843 199.296 182.309 199.296Z" fill="#858585" stroke="#263238" stroke-linecap="round" stroke-linejoin="round"/>
<path d="M172.072 142.731C157.603 143.191 143.12 142.55 128.748 140.816C128.085 140.696 127.403 140.726 126.753 140.903C126.102 141.08 125.499 141.4 124.988 141.839C124.477 142.278 124.07 142.826 123.797 143.443C123.525 144.059 123.393 144.729 123.412 145.403V146.11C123.447 147.594 123.999 149.02 124.974 150.141C125.948 151.262 127.283 152.008 128.748 152.25C143.12 153.981 157.603 154.621 172.072 154.165V142.731Z" fill="#999999" stroke="#263238" stroke-linecap="round" stroke-linejoin="round"/>
<path d="M194.794 152.062C185.814 153.186 176.912 153.929 167.872 154.316C167.351 154.332 166.832 154.243 166.347 154.055C165.861 153.866 165.418 153.581 165.046 153.217C164.673 152.853 164.377 152.418 164.176 151.937C163.975 151.456 163.874 150.939 163.877 150.418V146.943C163.888 145.882 164.31 144.866 165.055 144.109C165.801 143.353 166.81 142.915 167.872 142.888C176.937 142.496 185.814 141.752 194.794 140.628C195.286 140.536 195.792 140.555 196.276 140.684C196.759 140.813 197.208 141.049 197.588 141.374C197.968 141.7 198.271 142.106 198.474 142.564C198.676 143.021 198.774 143.518 198.759 144.019V147.493C198.729 148.596 198.318 149.655 197.595 150.488C196.872 151.321 195.882 151.878 194.794 152.062Z" fill="#858585" stroke="#263238" stroke-linecap="round" stroke-linejoin="round"/>
<path d="M134.671 199.072C134.671 197.054 134.229 193.029 131.848 187.802L128.748 176.622L119.079 180.749L121.799 189.312C121.799 189.312 113.489 193.277 110.419 194.346C108.377 195.059 102.261 196.461 102.563 199.084C102.563 199.269 102.599 199.452 102.67 199.623C102.741 199.794 102.845 199.949 102.975 200.08C103.106 200.211 103.261 200.314 103.432 200.385C103.603 200.456 103.786 200.492 103.971 200.492H133.257C133.443 200.493 133.628 200.457 133.8 200.386C133.972 200.315 134.129 200.21 134.26 200.078C134.392 199.946 134.496 199.789 134.566 199.616C134.637 199.443 134.672 199.259 134.671 199.072Z" fill="white" stroke="#263238" stroke-linecap="round" stroke-linejoin="round"/>
<path d="M129.346 192.527C127.836 193.639 119.78 195.047 121.798 193.434C123.817 191.82 121.798 189.306 121.798 189.306C121.798 189.306 113.489 193.271 110.419 194.34C108.376 195.053 102.261 196.456 102.563 199.078C102.563 199.263 102.599 199.446 102.67 199.617C102.741 199.788 102.844 199.943 102.975 200.074C103.106 200.205 103.261 200.308 103.432 200.379C103.603 200.45 103.786 200.486 103.971 200.486H133.256C133.442 200.487 133.627 200.451 133.799 200.38C133.971 200.308 134.127 200.204 134.258 200.071C134.389 199.939 134.493 199.782 134.562 199.61C134.632 199.437 134.667 199.252 134.664 199.066C134.565 196.005 133.94 192.983 132.815 190.134C131.153 190.152 130.857 191.422 129.346 192.527Z" fill="#FECE3E" stroke="#263238" stroke-linecap="round" stroke-linejoin="round"/>
<path d="M141.662 200.486H163.116C163.33 200.486 163.538 200.411 163.704 200.274C163.869 200.138 163.982 199.948 164.022 199.737C164.349 198.033 164.276 194.219 162.342 189.155L162.149 178.882L151.162 180.749L152.552 189.512C152.552 189.512 148.129 194.383 146.026 195.253C144.551 195.857 141.191 195.93 140.744 199.483C140.732 199.611 140.747 199.739 140.788 199.861C140.829 199.982 140.895 200.094 140.981 200.188C141.068 200.283 141.173 200.358 141.29 200.409C141.408 200.461 141.534 200.487 141.662 200.486Z" fill="white" stroke="#263238" stroke-linecap="round" stroke-linejoin="round"/>
<path d="M158.741 192.57C156.474 194.153 154.801 194.341 155.858 191.966C156.916 189.591 152.577 189.506 152.577 189.506C152.577 189.506 148.153 194.377 146.05 195.247C144.575 195.851 141.215 195.924 140.768 199.477C140.753 199.607 140.765 199.738 140.804 199.862C140.843 199.987 140.909 200.101 140.996 200.198C141.082 200.296 141.189 200.373 141.308 200.426C141.427 200.479 141.556 200.506 141.687 200.505H163.14C163.355 200.504 163.562 200.429 163.728 200.293C163.893 200.156 164.006 199.966 164.047 199.755C164.373 198.051 164.3 194.238 162.367 189.174C160.687 189.56 160.989 190.981 158.741 192.57Z" fill="#FECE3E" stroke="#263238" stroke-linecap="round" stroke-linejoin="round"/>
<path d="M139.529 122.028C139.529 122.028 137.366 124.239 128.525 125.653C119.683 127.068 101.33 131.491 101.554 138.743C101.777 145.995 118.68 184.671 118.68 184.671C118.68 184.671 127.141 183.064 131.069 180.647C131.069 180.647 124.258 153.047 119.152 145.795C119.152 145.795 142.073 142.973 154.752 137.74C167.431 132.506 159.973 120.577 159.973 120.577L139.529 122.028Z" fill="#263238" stroke="#263238" stroke-linecap="round" stroke-linejoin="round"/>
<path d="M153.906 121.006C153.906 121.006 157.157 126.445 154.728 129.467C152.298 132.488 138.502 138.127 140.061 144.98C141.62 151.833 146.769 161.496 150.123 184.46C150.123 184.46 157.937 183.251 163.17 181.033C163.17 181.033 164.04 157.67 157.967 147.596C157.967 147.596 175.359 144.375 177.124 138.531C178.889 132.688 175.589 123.756 175.523 120.565L153.906 121.006Z" fill="#263238" stroke="#263238" stroke-linecap="round" stroke-linejoin="round"/>
<path d="M143.451 129.66C143.049 129.63 142.645 129.63 142.243 129.66" stroke="#7F7F7F" stroke-width="0.75" stroke-linecap="round" stroke-linejoin="round"/>
<path d="M144.237 126.052C144.237 126.052 147.808 127.104 149.21 131.763C149.229 131.84 149.222 131.92 149.192 131.993C149.162 132.065 149.11 132.127 149.043 132.168C148.976 132.21 148.898 132.229 148.82 132.224C148.741 132.218 148.667 132.188 148.606 132.138C147.649 131.153 146.47 130.411 145.167 129.974" stroke="#7F7F7F" stroke-width="0.75" stroke-linecap="round" stroke-linejoin="round"/>
<path d="M117.472 145.541C117.472 143.577 109.011 142.52 111.277 140.707C113.543 138.894 118.68 144.786 118.68 144.786" stroke="#7F7F7F" stroke-width="0.75" stroke-linecap="round" stroke-linejoin="round"/>
<path d="M159.043 153.398C159.043 151.15 150.957 149.923 151.362 147.506C151.767 145.088 156.903 149.85 156.903 149.85" stroke="#7F7F7F" stroke-width="0.75" stroke-linecap="round" stroke-linejoin="round"/>
<path d="M117.786 184.81L118.674 186.865C118.723 186.979 118.81 187.072 118.921 187.128C119.031 187.184 119.157 187.2 119.278 187.173C121.23 186.732 129.377 184.81 132.235 182.755C132.318 182.695 132.381 182.61 132.415 182.513C132.45 182.416 132.454 182.311 132.428 182.212L131.872 179.921C131.854 179.842 131.817 179.768 131.765 179.706C131.713 179.643 131.647 179.594 131.573 179.561C131.498 179.528 131.417 179.513 131.336 179.517C131.255 179.521 131.176 179.543 131.105 179.583C129.818 180.284 126.234 181.958 118.142 184.085C118.068 184.105 118 184.14 117.941 184.189C117.882 184.238 117.834 184.298 117.8 184.367C117.766 184.436 117.747 184.511 117.745 184.587C117.742 184.663 117.756 184.74 117.786 184.81Z" fill="#999999" stroke="#263238" stroke-linecap="round" stroke-linejoin="round"/>
<path d="M149.162 183.118C149.152 183.047 149.16 182.975 149.186 182.908C149.212 182.842 149.254 182.783 149.31 182.737C149.365 182.691 149.431 182.661 149.502 182.648C149.572 182.636 149.645 182.641 149.712 182.665C150.694 182.971 151.744 182.986 152.734 182.707C154.976 182.2 161.388 180.169 163.297 179.559C163.36 179.539 163.426 179.534 163.491 179.545C163.556 179.555 163.618 179.581 163.671 179.62C163.724 179.659 163.767 179.71 163.797 179.768C163.826 179.827 163.841 179.892 163.841 179.958V182.629C163.842 182.71 163.819 182.789 163.775 182.857C163.731 182.924 163.668 182.977 163.593 183.01C162.095 183.68 154.063 187.119 149.863 186.182C149.781 186.163 149.707 186.119 149.651 186.056C149.595 185.994 149.559 185.915 149.549 185.832L149.162 183.118Z" fill="#999999" stroke="#263238" stroke-linecap="round" stroke-linejoin="round"/>
<path d="M155.628 127.158C155.57 127.994 155.265 128.793 154.752 129.455C152.975 131.66 145.162 135.256 141.663 139.728" stroke="#7F7F7F" stroke-linecap="round" stroke-linejoin="round"/>
<path d="M155.248 124.136C155.383 124.582 155.486 125.036 155.556 125.496" stroke="#7F7F7F" stroke-linecap="round" stroke-linejoin="round"/>
<path d="M108.969 195.7C109.462 196.599 109.818 197.567 110.026 198.571H131.848C131.929 197.62 132.36 196.733 133.057 196.081" stroke="#263238" stroke-linecap="round" stroke-linejoin="round"/>
<path d="M146.89 195.7C146.89 195.7 149.911 195.93 151.042 198.571H162.451C162.795 197.782 163 196.94 163.055 196.081" stroke="#263238" stroke-linecap="round" stroke-linejoin="round"/>
<path d="M129.002 87.8772C129.28 88.9408 129.57 89.9984 129.86 91.0318C132.882 101.91 136.81 122.608 136.81 122.608C156.148 126.687 176.544 122.608 176.544 122.608C176.653 118.099 176.103 112.147 175.492 105.892C178.659 105.016 180.931 102.091 181.076 97.2261C181.227 91.3339 180.158 80.7281 179.566 75.7727C179.04 71.4155 179.414 68.823 172.664 65.4992C169.28 63.5473 163.66 62.6226 156.752 61.698C143.155 59.8851 133.341 62.6347 129.86 64.1153C127.098 63.3901 126.331 66.6293 126.331 66.6293C124.802 65.475 123.025 70.37 123.025 70.37C118.553 76.0748 115.036 85.6835 113.864 89.104C113.604 89.8518 113.129 90.5058 112.498 90.9834C109.325 93.4007 111.09 96.3921 111.09 96.3921L117.586 98.3803C117.586 98.3803 120.735 99.2022 123.14 95.0626C125.146 91.6059 128.434 85.7379 129.002 87.8772Z" fill="#FECE3E"/>
<path opacity="0.3" d="M118.783 95.6546C118.783 95.6546 118.632 92.633 116.215 92.1073C113.797 91.5815 116.891 90.675 118.783 91.1283C120.674 91.5815 120.233 89.9196 121.853 87.2002C123.472 84.4808 124.27 82.3294 125.636 83.8946C127.002 85.4598 128.422 85.7075 129.002 87.8468C129.582 89.9861 126.712 95.0987 126.712 95.0987L122.203 98.5977L119.913 99.8788H116.499L115.326 96.9237L118.783 95.6546Z" fill="black"/>
<path d="M129.002 87.8772C129.28 88.9408 129.57 89.9984 129.86 91.0318C132.882 101.91 136.81 122.608 136.81 122.608C156.148 126.687 176.544 122.608 176.544 122.608C176.653 118.099 176.103 112.147 175.492 105.892C178.659 105.016 180.931 102.091 181.076 97.2261C181.227 91.3339 180.158 80.7281 179.566 75.7727C179.04 71.4155 179.414 68.823 172.664 65.4992C169.28 63.5473 163.66 62.6226 156.752 61.698C143.155 59.8851 133.341 62.6347 129.86 64.1153C127.098 63.3901 126.331 66.6293 126.331 66.6293C124.802 65.475 123.025 70.37 123.025 70.37C118.553 76.0748 115.036 85.6835 113.864 89.104C113.604 89.8518 113.129 90.5058 112.498 90.9834C109.325 93.4007 111.09 96.3921 111.09 96.3921L117.586 98.3803C117.586 98.3803 120.735 99.2022 123.14 95.0626C125.146 91.6059 128.434 85.7379 129.002 87.8772Z" stroke="#263238" stroke-linecap="round" stroke-linejoin="round"/>
<path opacity="0.3" d="M176.544 122.577C176.559 118.694 176.368 114.813 175.97 110.95C176.628 120.154 157.465 123.037 156.861 118.045C156.257 113.053 175.492 105.862 165.025 108.376C155.894 110.57 138.194 108.473 133.843 107.904C135.516 115.761 136.81 122.577 136.81 122.577C156.148 126.657 176.544 122.577 176.544 122.577Z" fill="black"/>
<path opacity="0.3" d="M167.757 76.3467C167.757 76.3467 165.02 84.3539 165.026 88.5842C165.032 92.8144 157.357 95.6547 157.339 95.6547C161.454 94.8208 165.455 93.7149 167.364 93.1589C167.693 93.0659 167.979 92.8612 168.174 92.5799C168.368 92.2986 168.458 91.9584 168.428 91.6179C167.94 86.5425 167.716 81.4453 167.757 76.3467Z" fill="black"/>
<path d="M126.47 74.3342C126.496 78.1073 127.177 81.8472 128.482 85.3873C128.52 85.4911 128.524 85.6042 128.493 85.7103C128.462 85.8164 128.398 85.9099 128.311 85.9773C128.223 86.0446 128.117 86.0823 128.006 86.0849C127.896 86.0875 127.787 86.0548 127.697 85.9916C126.657 85.2483 125.189 83.7375 123.865 80.6917" stroke="#263238" stroke-width="0.75" stroke-linecap="round" stroke-linejoin="round"/>
<path d="M177.753 99.0087C176.157 93.7209 173.395 92.3975 171.256 92.2645C171.19 92.2551 171.128 92.2263 171.079 92.1819C171.029 92.1374 170.993 92.0792 170.976 92.0146C170.96 91.9501 170.962 91.882 170.984 91.8189C171.006 91.7558 171.046 91.7006 171.099 91.6602C172.344 90.9894 174.767 90.4515 177.747 93.7511" stroke="#263238" stroke-width="0.75" stroke-linecap="round" stroke-linejoin="round"/>
<path d="M147.095 83.8765C147.07 84.0989 146.963 84.304 146.796 84.453C146.629 84.6019 146.413 84.6842 146.189 84.6842C145.965 84.6842 145.749 84.6019 145.582 84.453C145.415 84.304 145.308 84.0989 145.282 83.8765C145.268 83.7487 145.28 83.6192 145.319 83.4965C145.358 83.3738 145.422 83.2607 145.508 83.1646C145.593 83.0685 145.698 82.9916 145.816 82.939C145.933 82.8863 146.06 82.8591 146.189 82.8591C146.318 82.8591 146.445 82.8863 146.562 82.939C146.68 82.9916 146.785 83.0685 146.87 83.1646C146.956 83.2607 147.02 83.3738 147.059 83.4965C147.098 83.6192 147.11 83.7487 147.095 83.8765Z" fill="#999999" stroke="#263238" stroke-width="0.75" stroke-linecap="round" stroke-linejoin="round"/>
<path d="M148.322 94.1621C148.322 94.3414 148.269 94.5166 148.169 94.6657C148.07 94.8148 147.928 94.931 147.762 94.9996C147.597 95.0682 147.415 95.0861 147.239 95.0512C147.063 95.0162 146.901 94.9299 146.775 94.8031C146.648 94.6763 146.561 94.5148 146.526 94.339C146.491 94.1631 146.509 93.9808 146.578 93.8152C146.647 93.6496 146.763 93.508 146.912 93.4084C147.061 93.3088 147.236 93.2556 147.416 93.2556C147.656 93.2556 147.886 93.3511 148.056 93.5211C148.226 93.6911 148.322 93.9217 148.322 94.1621Z" fill="#999999" stroke="#263238" stroke-width="0.75" stroke-linecap="round" stroke-linejoin="round"/>
<path d="M151.362 118.951C151.363 119.132 151.311 119.309 151.211 119.46C151.112 119.611 150.969 119.729 150.803 119.799C150.636 119.869 150.452 119.888 150.275 119.853C150.098 119.819 149.935 119.732 149.806 119.605C149.678 119.477 149.591 119.315 149.555 119.138C149.519 118.961 149.537 118.777 149.606 118.61C149.675 118.443 149.792 118.3 149.942 118.199C150.092 118.099 150.269 118.045 150.449 118.045C150.69 118.045 150.922 118.14 151.093 118.31C151.263 118.48 151.36 118.71 151.362 118.951Z" fill="#999999" stroke="#263238" stroke-linecap="round" stroke-linejoin="round"/>
<path d="M134.006 100.9C134.006 100.9 131.038 103.728 132.453 103.777C133.867 103.825 135.649 101.879 137.287 101.656C138.925 101.432 136.278 100.447 136.278 100.447L134.006 100.9Z" fill="white" stroke="#263238" stroke-linecap="round" stroke-linejoin="round"/>
<path d="M151.332 97.7156C151.199 97.5965 151.043 97.506 150.873 97.4499C150.704 97.3937 150.524 97.3731 150.347 97.3893C148.896 97.5102 144.726 97.8244 143.155 97.7277C140.363 97.5525 132.138 95.812 132.138 95.812C131.949 95.7798 131.755 95.7901 131.57 95.8423L126.476 97.341C126.29 97.3947 126.121 97.4921 125.98 97.625L122.898 100.453C122.797 100.548 122.711 100.658 122.645 100.78L122.004 101.952C121.872 102.193 121.822 102.47 121.862 102.742C121.903 103.014 122.031 103.265 122.228 103.457L127.316 103.59C127.63 103.605 127.938 103.496 128.174 103.287L129.685 101.994C129.786 101.907 129.873 101.805 129.945 101.692C130.313 101.088 131.758 99.0935 133.994 99.2748C133.994 99.2748 129.159 101.843 130.072 102.901C130.984 103.958 134.683 100.937 135.891 101.239C137.1 101.541 137.178 104.508 143.747 103.433C144.041 103.383 144.342 103.397 144.63 103.475L150.613 105.149C150.79 105.198 150.975 105.211 151.158 105.188C151.34 105.164 151.517 105.105 151.676 105.012C151.835 104.92 151.974 104.797 152.085 104.65C152.196 104.504 152.277 104.336 152.323 104.158C152.788 102.441 153.199 99.4198 151.332 97.7156Z" fill="white" stroke="#263238" stroke-linecap="round" stroke-linejoin="round"/>
<path d="M132.851 96.8938L131.57 97.1114C130.946 97.2171 130.362 97.4932 129.884 97.9091L128.524 99.0754C128.293 99.2837 128.09 99.5214 127.92 99.7825L127.044 101.118C126.949 101.266 126.842 101.405 126.724 101.535C126.204 102.139 124.772 103.813 126.319 103.584" fill="white"/>
<path d="M132.851 96.8938L131.57 97.1114C130.946 97.2171 130.362 97.4932 129.884 97.9091L128.524 99.0754C128.293 99.2837 128.09 99.5214 127.92 99.7825L127.044 101.118C126.949 101.266 126.842 101.405 126.724 101.535C126.204 102.139 124.772 103.813 126.319 103.584" stroke="#263238" stroke-linecap="round" stroke-linejoin="round"/>
<path d="M129.244 97.3469L127.92 97.7095C127.507 97.8106 127.127 98.0191 126.82 98.3138L125.787 99.3049C125.685 99.3951 125.594 99.4965 125.515 99.6071L123.817 101.861C123.817 101.861 122.91 103.457 123.817 103.487" fill="white"/>
<path d="M129.244 97.3469L127.92 97.7095C127.507 97.8106 127.127 98.0191 126.82 98.3138L125.787 99.3049C125.685 99.3951 125.594 99.4965 125.515 99.6071L123.817 101.861C123.817 101.861 122.91 103.457 123.817 103.487" stroke="#263238" stroke-linecap="round" stroke-linejoin="round"/>
<path d="M167.806 75.0657C167.677 80.5902 167.879 86.1175 168.41 91.618C168.44 91.9585 168.35 92.2987 168.156 92.58C167.961 92.8613 167.675 93.0661 167.346 93.159C162.542 94.5797 157.648 95.68 152.698 96.4526" stroke="#263238" stroke-linecap="round" stroke-linejoin="round"/>
<path d="M168.095 71.3188C168.017 71.9232 167.95 72.5819 167.902 73.2527" stroke="#263238" stroke-width="0.75" stroke-linecap="round" stroke-linejoin="round"/>
<path d="M170.12 65.6624C169.431 66.2667 168.911 67.3605 168.555 68.8109" stroke="#263238" stroke-width="0.75" stroke-linecap="round" stroke-linejoin="round"/>
<path d="M139.862 62.0727C139.862 62.0727 140.242 60.8641 142.279 60.1812C144.315 59.4983 151.38 58.4166 155.012 60.1812C158.644 61.9458 151.688 71.5484 151.688 71.5484L148.467 76.0083L145.597 78.1597L144.315 74.3344L142.653 72.606C142.653 72.606 139.064 69.663 139.366 66.7562C139.668 63.8494 139.862 62.0727 139.862 62.0727Z" fill="white"/>
<path d="M157.695 61.819C157.127 59.8308 154.535 59.2748 154.535 59.2748C142.146 57.1597 139.529 61.6921 139.529 61.6921C138.01 65.7859 138.01 70.289 139.529 74.3828C139.529 74.3828 143.053 72.9204 143.657 74.3828C144.261 75.8453 145.367 78.9636 145.367 78.9636C147.049 78.0158 148.516 76.7297 149.676 75.1866C151.592 72.6665 156.088 75.1866 156.088 75.1866C159.001 70.1526 157.695 61.819 157.695 61.819ZM154.674 61.6739C149.875 76.7336 145.645 77.3863 145.645 77.3863C144.237 71.8507 143.028 73.0593 141.113 69.5966C139.578 66.8167 140.097 63.2996 140.363 62.0124C140.395 61.8587 140.46 61.714 140.554 61.5885C140.648 61.4631 140.768 61.3602 140.907 61.2872C145.669 58.8699 151.495 59.7582 153.894 60.284C154.042 60.3147 154.183 60.3765 154.306 60.4652C154.429 60.5539 154.531 60.6677 154.607 60.7989C154.683 60.9301 154.73 61.0759 154.746 61.2268C154.762 61.3776 154.745 61.5299 154.698 61.6739H154.674Z" fill="#FECE3E"/>
<path opacity="0.4" d="M157.695 61.819C157.127 59.8308 154.535 59.2748 154.535 59.2748C142.146 57.1597 139.529 61.6921 139.529 61.6921C138.01 65.7859 138.01 70.289 139.529 74.3828C139.529 74.3828 143.053 72.9204 143.657 74.3828C144.261 75.8453 145.367 78.9636 145.367 78.9636C147.049 78.0158 148.516 76.7297 149.676 75.1866C151.592 72.6665 156.088 75.1866 156.088 75.1866C159.001 70.1526 157.695 61.819 157.695 61.819ZM154.674 61.6739C149.875 76.7336 145.645 77.3863 145.645 77.3863C144.237 71.8507 143.028 73.0593 141.113 69.5966C139.578 66.8167 140.097 63.2996 140.363 62.0124C140.395 61.8587 140.46 61.714 140.554 61.5885C140.648 61.4631 140.768 61.3602 140.907 61.2872C145.669 58.8699 151.495 59.7582 153.894 60.284C154.042 60.3147 154.183 60.3765 154.306 60.4652C154.429 60.5539 154.531 60.6677 154.607 60.7989C154.683 60.9301 154.73 61.0759 154.746 61.2268C154.762 61.3776 154.745 61.5299 154.698 61.6739H154.674Z" fill="white"/>
<path d="M157.695 61.819C157.127 59.8308 154.535 59.2748 154.535 59.2748C142.146 57.1597 139.529 61.6921 139.529 61.6921C138.01 65.7859 138.01 70.289 139.529 74.3828C139.529 74.3828 143.053 72.9204 143.657 74.3828C144.261 75.8453 145.367 78.9636 145.367 78.9636C147.049 78.0158 148.516 76.7297 149.676 75.1866C151.592 72.6665 156.088 75.1866 156.088 75.1866C159.001 70.1526 157.695 61.819 157.695 61.819ZM154.674 61.6739C149.875 76.7336 145.645 77.3863 145.645 77.3863C144.237 71.8507 143.028 73.0593 141.113 69.5966C139.578 66.8167 140.097 63.2996 140.363 62.0124C140.395 61.8587 140.46 61.714 140.554 61.5885C140.648 61.4631 140.768 61.3602 140.907 61.2872C145.669 58.8699 151.495 59.7582 153.894 60.284C154.042 60.3147 154.183 60.3765 154.306 60.4652C154.429 60.5539 154.531 60.6677 154.607 60.7989C154.683 60.9301 154.73 61.0759 154.746 61.2268C154.762 61.3776 154.745 61.5299 154.698 61.6739H154.674Z" stroke="#263238" stroke-linecap="round" stroke-linejoin="round"/>
<path d="M137.468 38.8064C137.468 38.8064 126.79 40.9457 132.67 47.8712C139.191 55.5884 137.468 38.8064 137.468 38.8064Z" fill="#263238" stroke="#263238" stroke-linecap="round" stroke-linejoin="round"/>
<path d="M133.256 55.7514C133.256 55.7514 130.718 45.478 135.553 40.5407C140.387 35.6034 145.627 34.6002 149.555 37.0175C153.483 39.4348 155.115 45.478 154.51 48.5963C153.906 51.7146 154.196 62.8945 148.812 67.5297C143.427 72.1648 140.115 71.0226 136.556 64.7075C134.193 60.5679 133.075 59.3774 133.256 55.7514Z" fill="white" stroke="#263238" stroke-linecap="round" stroke-linejoin="round"/>
<path d="M151.972 53.7391C151.972 53.7391 147.911 49.7083 146.666 44.9765C145.421 40.2446 144.72 39.4349 140.085 41.7494C135.45 44.064 128.222 40.9517 130.114 35.1019C132.102 28.962 138.176 36.9148 144.013 34.9024C149.851 32.8901 154.003 36.516 154.009 41.8521C154.009 41.8521 157.538 45.2786 154.009 54.138L151.972 53.7391Z" fill="#263238" stroke="#263238" stroke-linecap="round" stroke-linejoin="round"/>
<path d="M150.697 53.0622C150.697 53.0622 151.724 47.4299 154.577 47.9496C157.429 48.4694 155.393 56.7848 152.033 55.8783" fill="white"/>
<path d="M150.697 53.0622C150.697 53.0622 151.724 47.4299 154.577 47.9496C157.429 48.4694 155.393 56.7848 152.033 55.8783" stroke="#263238" stroke-linecap="round" stroke-linejoin="round"/>
<path d="M137.118 54.9719C137.118 54.9719 135.994 60.1993 136.363 61.0937C136.731 61.9881 140.182 61.3052 140.182 61.3052" fill="white"/>
<path d="M137.118 54.9719C137.118 54.9719 135.994 60.1993 136.363 61.0937C136.731 61.9881 140.182 61.3052 140.182 61.3052" stroke="#263238" stroke-linecap="round" stroke-linejoin="round"/>
<path d="M140.665 63.5836C140.665 63.5836 143.373 64.6532 145.76 61.0938L140.665 63.5836Z" fill="white"/>
<path d="M140.665 63.5836C140.665 63.5836 143.373 64.6532 145.76 61.0938" stroke="#263238" stroke-linecap="round" stroke-linejoin="round"/>
<path d="M135.263 55.4071C135.359 55.8906 135.232 56.3318 134.979 56.3861C134.725 56.4405 134.429 56.09 134.326 55.6005C134.223 55.111 134.326 54.6759 134.61 54.6215C134.894 54.5671 135.172 54.9176 135.263 55.4071Z" fill="#263238"/>
<path d="M141.886 54.8752C141.989 55.3586 141.886 55.7998 141.602 55.8542C141.318 55.9086 141.058 55.552 140.955 55.0686C140.853 54.5851 140.955 54.1439 141.239 54.0895C141.523 54.0352 141.82 54.3857 141.886 54.8752Z" fill="#263238"/>
<path d="M136.653 55.1775C136.792 56.5493 135.444 57.8063 133.583 57.9876C131.721 58.1689 130.15 57.2141 130.011 55.8423C129.872 54.4705 131.317 53.8722 133.154 53.6849C134.991 53.4975 136.52 53.8118 136.653 55.1775Z" stroke="#263238" stroke-linecap="round" stroke-linejoin="round"/>
<path d="M145.204 54.3253C145.343 55.691 143.965 56.9541 142.134 57.1353C140.303 57.3166 138.701 56.3558 138.562 54.99C138.423 53.6242 139.868 53.0139 141.705 52.8326C143.542 52.6513 145.071 52.9534 145.204 54.3253Z" stroke="#263238" stroke-linecap="round" stroke-linejoin="round"/>
<path d="M136.653 55.1773L138.562 54.99" stroke="#263238" stroke-linecap="round" stroke-linejoin="round"/>
<path d="M144.974 53.6364L151.996 49.4968" stroke="#263238" stroke-linecap="round" stroke-linejoin="round"/>
<path d="M153.199 60.0845L153.531 60.8882" stroke="#263238" stroke-linecap="round" stroke-linejoin="round"/>
<path d="M132.694 52.9717C132.694 52.9717 133.764 51.612 135.075 52.2647L132.694 52.9717Z" fill="white"/>
<path d="M132.694 52.9717C132.694 52.9717 133.764 51.612 135.075 52.2647" stroke="#263238" stroke-linecap="round" stroke-linejoin="round"/>
<path d="M143.633 52.3612C143.633 52.3612 141.753 50.5482 139.94 51.8294L143.633 52.3612Z" fill="white"/>
<path d="M143.633 52.3612C143.633 52.3612 141.753 50.5482 139.94 51.8294" stroke="#263238" stroke-linecap="round" stroke-linejoin="round"/>
<path d="M135.069 35.7847C137.928 36.6911 142.738 37.8031 146.666 36.6126C152.709 34.7996 150.637 41.568 151.996 43.4354" stroke="#7F7F7F" stroke-linecap="round" stroke-linejoin="round"/>
<path d="M132.592 34.8782C132.592 34.8782 133.069 35.0897 133.885 35.3798" stroke="#7F7F7F" stroke-linecap="round" stroke-linejoin="round"/>
<path d="M139.813 39.1509C140.134 39.0542 140.466 38.9393 140.816 38.8064" stroke="#7F7F7F" stroke-linecap="round" stroke-linejoin="round"/>
<path d="M133.256 38.353C133.256 38.353 134.538 40.3292 138.659 39.4529" stroke="#7F7F7F" stroke-linecap="round" stroke-linejoin="round"/>
<path d="M148.606 42.2268C148.925 44.5595 149.804 46.7803 151.169 48.6991" stroke="#7F7F7F" stroke-linecap="round" stroke-linejoin="round"/>
<path d="M148.467 40.0876C148.459 40.4486 148.471 40.8098 148.503 41.1694" stroke="#7F7F7F" stroke-linecap="round" stroke-linejoin="round"/>
<path opacity="0.3" d="M153.821 104.919C153.711 105.011 153.632 105.135 153.594 105.274C153.557 105.413 153.563 105.56 153.612 105.695C153.661 105.83 153.75 105.947 153.867 106.03C153.985 106.113 154.125 106.157 154.269 106.158C158.354 106.158 169.377 106.206 173.607 105.958C178.895 105.656 174.858 99.9152 170.585 102.103C166.712 104.127 158.469 100.755 153.821 104.919Z" fill="black"/>
<path d="M107.802 99.2504C107.802 99.2504 110.274 92.6694 116.474 93.7149C122.675 94.7603 117.937 99.9515 114.952 100.411C114.952 100.411 114.498 98.6038 107.802 99.2504Z" fill="white" stroke="#263238" stroke-linecap="round" stroke-linejoin="round"/>
<path d="M102.539 102.985C101.723 103.801 99.7589 103.874 101.082 102.103C102.165 100.679 103.633 99.5944 105.313 98.9786C108.25 97.6672 109.398 97.9331 112.057 97.3469C114.716 96.7607 115.217 97.8485 116.136 98.3501C118.33 99.5587 118.855 99.7642 119.411 100.973C119.967 102.181 120.572 103.753 118.855 103.753C117.296 103.753 117.194 101.172 115.683 101.275C114.172 101.378 113.417 103.753 112.359 103.753H111.96C111.054 103.753 111.005 102.997 111.555 101.813C112.105 100.628 112.716 99.5587 112.716 99.5587C111.818 100.031 111.101 100.785 110.673 101.704C109.948 103.245 109.815 103.892 108.479 103.892C107.144 103.892 107.271 102.901 108.564 100.713C107.796 101.173 107.161 101.825 106.721 102.605C106.068 103.813 105.724 103.753 104.871 103.753C103.747 103.753 103.826 101.904 105.814 100.695C105.826 100.695 105.385 100.151 102.539 102.985Z" fill="white" stroke="#263238" stroke-linecap="round" stroke-linejoin="round"/>
<path d="M110.322 98.5675C110.322 98.5675 109.543 98.5312 109.047 99.8486L110.322 98.5675Z" fill="white"/>
<path d="M110.322 98.5675C110.322 98.5675 109.543 98.5312 109.047 99.8486" stroke="#263238" stroke-width="0.75" stroke-linecap="round" stroke-linejoin="round"/>
<path d="M209.625 41.6707C213.527 44.7372 217.242 48.0346 220.75 51.5453" stroke="#263238" stroke-width="0.75" stroke-linecap="round" stroke-linejoin="round"/>
<path d="M205.406 38.498C206.144 39.0298 206.881 39.5677 207.606 40.1176" stroke="#263238" stroke-width="0.75" stroke-linecap="round" stroke-linejoin="round"/>
<path d="M201.194 35.6035C201.952 36.0991 202.705 36.6067 203.454 37.1264" stroke="#263238" stroke-width="0.75" stroke-linecap="round" stroke-linejoin="round"/>
<path d="M170.277 20.9788C180.285 24.0915 189.851 28.4765 198.741 34.026" stroke="#263238" stroke-width="0.75" stroke-linecap="round" stroke-linejoin="round"/>
<path d="M163.678 19.1174C164.887 19.4276 166.105 19.754 167.334 20.0964" stroke="#263238" stroke-width="0.75" stroke-linecap="round" stroke-linejoin="round"/>
<path d="M156.885 17.6128C158.215 17.8666 159.54 18.1446 160.862 18.4468" stroke="#263238" stroke-width="0.75" stroke-linecap="round" stroke-linejoin="round"/>
<path d="M150.836 16.6035C151.984 16.7687 153.129 16.946 154.269 17.1353" stroke="#263238" stroke-width="0.75" stroke-linecap="round" stroke-linejoin="round"/>
<path d="M114.39 16.8454C125.59 15.101 136.976 14.8976 148.232 16.2411" stroke="#263238" stroke-width="0.75" stroke-linecap="round" stroke-linejoin="round"/>
<path d="M109.404 17.7216C110.431 17.5222 111.465 17.3288 112.492 17.1536" stroke="#263238" stroke-width="0.75" stroke-linecap="round" stroke-linejoin="round"/>
<path d="M104.563 18.7792C105.597 18.5314 106.624 18.3018 107.664 18.0842" stroke="#263238" stroke-width="0.75" stroke-linecap="round" stroke-linejoin="round"/>
<path d="M98.6169 20.3625C99.6685 20.0543 100.72 19.7582 101.778 19.4802" stroke="#263238" stroke-width="0.75" stroke-linecap="round" stroke-linejoin="round"/>
<path d="M62.6538 37.652C72.66 30.6376 83.6596 25.1602 95.2871 21.4019" stroke="#263238" stroke-width="0.75" stroke-linecap="round" stroke-linejoin="round"/>
<path d="M57.8191 41.2356C58.7618 40.5064 59.7146 39.7893 60.6775 39.0842" stroke="#263238" stroke-width="0.75" stroke-linecap="round" stroke-linejoin="round"/>
<path d="M52.9241 45.2241C53.9575 44.3297 55.009 43.4595 56.0665 42.6074" stroke="#263238" stroke-width="0.75" stroke-linecap="round" stroke-linejoin="round"/>
<path d="M46.1196 51.5455C47.5378 50.1273 48.9801 48.7515 50.4466 47.418" stroke="#263238" stroke-width="0.75" stroke-linecap="round" stroke-linejoin="round"/>
<path d="M92.9784 32.9656C94.9042 24.8881 89.9173 16.7789 81.8398 14.8531C73.7623 12.9272 65.6531 17.9141 63.7272 25.9916C61.8014 34.0691 66.7883 42.1784 74.8658 44.1042C82.9433 46.03 91.0525 41.0431 92.9784 32.9656Z" fill="#FECE3E"/>
<path opacity="0.3" d="M92.9784 32.9654C94.9042 24.8879 89.9173 16.7786 81.8398 14.8528C73.7623 12.927 65.6531 17.9139 63.7272 25.9914C61.8014 34.0689 66.7883 42.1781 74.8658 44.1039C82.9433 46.0298 91.0525 41.0428 92.9784 32.9654Z" fill="white"/>
<path d="M92.9784 32.9656C94.9042 24.8881 89.9173 16.7789 81.8398 14.8531C73.7623 12.9272 65.6531 17.9141 63.7272 25.9916C61.8014 34.0691 66.7883 42.1784 74.8658 44.1042C82.9433 46.03 91.0525 41.0431 92.9784 32.9656Z" stroke="#263238" stroke-width="0.75" stroke-linecap="round" stroke-linejoin="round"/>
<path d="M71.1144 35.3799V31.615C71.1144 30.6722 70.8485 30.4063 69.8271 30.4063V28.5632C70.8485 28.5632 71.1144 28.2791 71.1144 27.3545V23.5896C71.0876 23.2845 71.128 22.9772 71.2327 22.6893C71.3374 22.4015 71.5039 22.1401 71.7205 21.9235C71.9371 21.7069 72.1985 21.5404 72.4864 21.4357C72.7742 21.331 73.0815 21.2906 73.3866 21.3174H74.5348V23.1303H74.2024C73.4893 23.1303 73.1207 23.4566 73.1207 24.5867V27.6506C73.1617 28.0522 73.0583 28.4552 72.829 28.7874C72.5998 29.1197 72.2597 29.3594 71.8698 29.4636V29.5059C72.2597 29.6101 72.5998 29.8498 72.829 30.1821C73.0583 30.5143 73.1617 30.9173 73.1207 31.3189V34.3888C73.1207 35.5129 73.4893 35.8392 74.2024 35.8392H74.5348V37.6521H73.3866C73.0815 37.6789 72.7742 37.6385 72.4864 37.5338C72.1985 37.4291 71.9371 37.2626 71.7205 37.046C71.5039 36.8294 71.3374 36.568 71.2327 36.2801C71.128 35.9923 71.0876 35.685 71.1144 35.3799Z" fill="white" stroke="#263238" stroke-width="0.75" stroke-linecap="round" stroke-linejoin="round"/>
<path d="M82.1311 35.8089H82.4574C83.1766 35.8089 83.5452 35.4826 83.5452 34.3585V31.2886C83.5052 30.888 83.6082 30.4863 83.8361 30.1544C84.0639 29.8226 84.4019 29.5821 84.7901 29.4756V29.4333C84.4013 29.3279 84.0626 29.0877 83.8345 28.7556C83.6065 28.4235 83.5039 28.0211 83.5452 27.6204V24.5565C83.5452 23.4264 83.1766 23.1 82.4574 23.1H82.1311V21.2871H83.2793C83.5844 21.2603 83.8917 21.3007 84.1796 21.4054C84.4674 21.5102 84.7288 21.6767 84.9454 21.8932C85.162 22.1098 85.3285 22.3712 85.4332 22.6591C85.5379 22.9469 85.5783 23.2542 85.5516 23.5593V27.3242C85.5516 28.267 85.8175 28.5329 86.8388 28.5329V30.3761C85.8175 30.3761 85.5516 30.6601 85.5516 31.5847V35.3496C85.5783 35.6548 85.5379 35.962 85.4332 36.2499C85.3285 36.5377 85.162 36.7991 84.9454 37.0157C84.7288 37.2323 84.4674 37.3988 84.1796 37.5035C83.8917 37.6082 83.5844 37.6486 83.2793 37.6219H82.1311V35.8089Z" fill="white" stroke="#263238" stroke-width="0.75" stroke-linecap="round" stroke-linejoin="round"/>
<path d="M49.2136 48.6628H40.5416C36.5499 48.6628 33.314 51.8988 33.314 55.8905V64.5625C33.314 68.5543 36.5499 71.7902 40.5416 71.7902H49.2136C53.2054 71.7902 56.4413 68.5543 56.4413 64.5625V55.8905C56.4413 51.8988 53.2054 48.6628 49.2136 48.6628Z" fill="#FECE3E" stroke="#263238" stroke-width="0.75" stroke-linecap="round" stroke-linejoin="round"/>
<path d="M36.4927 60.7853V59.6674L41.1157 57.6731V58.8817L37.931 60.2294L41.1157 61.571V62.7796L36.4927 60.7853Z" fill="white" stroke="#263238" stroke-width="0.75" stroke-linecap="round" stroke-linejoin="round"/>
<path d="M46.2404 54.9417H47.6787L43.5088 65.5173H42.0706L46.2404 54.9417Z" fill="white" stroke="#263238" stroke-width="0.75" stroke-linecap="round" stroke-linejoin="round"/>
<path d="M48.6335 61.5711L51.8183 60.2295L48.6335 58.8698V57.6611L53.2566 59.6554V60.7734L48.6335 62.7676V61.5711Z" fill="white" stroke="#263238" stroke-width="0.75" stroke-linecap="round" stroke-linejoin="round"/>
<path d="M197.498 28.9861C199.111 22.0865 194.825 15.1855 187.926 13.5723C181.026 11.9591 174.125 16.2446 172.512 23.1442C170.899 30.0438 175.184 36.9447 182.084 38.5579C188.983 40.1711 195.884 35.8857 197.498 28.9861Z" fill="#FECE3E"/>
<path opacity="0.2" d="M197.498 28.9863C199.111 22.0868 194.825 15.1858 187.926 13.5726C181.026 11.9594 174.125 16.2448 172.512 23.1444C170.899 30.044 175.184 36.945 182.084 38.5582C188.983 40.1714 195.884 35.8859 197.498 28.9863Z" fill="black"/>
<path d="M197.498 28.9861C199.111 22.0865 194.825 15.1855 187.926 13.5723C181.026 11.9591 174.125 16.2446 172.512 23.1442C170.899 30.0438 175.184 36.9447 182.084 38.5579C188.983 40.1711 195.884 35.8857 197.498 28.9861Z" stroke="#263238" stroke-width="0.75" stroke-linecap="round" stroke-linejoin="round"/>
<path d="M177.07 28.7263V23.4083C177.07 21.8793 177.861 20.991 179.36 20.991C180.859 20.991 181.651 21.8914 181.651 23.4083V24.4537H180.182V23.3116C180.182 22.6589 179.868 22.393 179.403 22.393C178.937 22.393 178.629 22.6589 178.629 23.3116V28.8351C178.629 29.4877 178.937 29.7415 179.403 29.7415C179.868 29.7415 180.182 29.4877 180.182 28.8351V27.3243H181.651V28.7263C181.651 30.2492 180.859 31.1436 179.36 31.1436C177.861 31.1436 177.07 30.2492 177.07 28.7263Z" fill="white" stroke="#263238" stroke-width="0.75" stroke-linecap="round" stroke-linejoin="round"/>
<path d="M184.285 26.6172H182.388V25.5113H184.285V23.6077H185.385V25.5113H187.283V26.6172H185.385V28.551H184.285V26.6172Z" fill="white" stroke="#263238" stroke-width="0.75" stroke-linecap="round" stroke-linejoin="round"/>
<path d="M189.942 26.6172H188.044V25.5113H189.942V23.6077H191.042V25.5113H192.939V26.6172H191.042V28.551H189.942V26.6172Z" fill="white" stroke="#263238" stroke-width="0.75" stroke-linecap="round" stroke-linejoin="round"/>
<path d="M135.819 1H124.222C119.683 1 116.003 4.67966 116.003 9.21876V20.8157C116.003 25.3548 119.683 29.0344 124.222 29.0344H135.819C140.358 29.0344 144.038 25.3548 144.038 20.8157V9.21876C144.038 4.67966 140.358 1 135.819 1Z" fill="#FECE3E" stroke="#263238" stroke-width="0.75" stroke-linecap="round" stroke-linejoin="round"/>
<path d="M121.593 17.9693V12.0651C121.593 10.3669 122.476 9.36377 124.137 9.36377C125.799 9.36377 126.712 10.3669 126.712 12.0651V13.2254H125.08V11.9503C125.08 11.2311 124.73 10.935 124.216 10.935C123.702 10.935 123.352 11.2311 123.352 11.9503V18.0902C123.352 18.8153 123.696 19.0994 124.216 19.0994C124.736 19.0994 125.08 18.8153 125.08 18.0902V16.4101H126.712V17.9693C126.712 19.6614 125.83 20.6646 124.168 20.6646C122.506 20.6646 121.593 19.6614 121.593 17.9693Z" fill="white" stroke="#263238" stroke-width="0.75" stroke-linecap="round" stroke-linejoin="round"/>
<path d="M127.455 17.9028V17.2985H129.087V18.0539C129.087 18.8395 129.431 19.1235 129.981 19.1235C130.531 19.1235 130.876 18.8395 130.876 18.0237C130.876 17.1112 130.531 16.531 129.401 15.5399C127.957 14.2709 127.485 13.3765 127.485 12.1195C127.485 10.3911 128.38 9.38794 130.06 9.38794C131.74 9.38794 132.574 10.3911 132.574 12.1497V12.6029H130.942V12.0409C130.942 11.2553 130.628 10.9592 130.078 10.9592C129.528 10.9592 129.22 11.2553 129.22 12.0107C129.22 12.7661 129.576 13.3885 130.706 14.3796C132.151 15.6487 132.61 16.531 132.61 17.8968C132.61 19.7097 131.697 20.6887 129.999 20.6887C128.301 20.6887 127.455 19.6614 127.455 17.9028Z" fill="white" stroke="#263238" stroke-width="0.75" stroke-linecap="round" stroke-linejoin="round"/>
<path d="M133.299 17.9028V17.2985H134.931V18.0539C134.931 18.8395 135.275 19.1235 135.825 19.1235C136.375 19.1235 136.719 18.8395 136.719 18.0237C136.719 17.1112 136.375 16.531 135.245 15.5399C133.8 14.2709 133.329 13.3765 133.329 12.1195C133.329 10.3911 134.223 9.38794 135.903 9.38794C137.583 9.38794 138.417 10.3911 138.417 12.1497V12.6029H136.78V12.0409C136.78 11.2553 136.465 10.9592 135.916 10.9592C135.366 10.9592 135.057 11.2553 135.057 12.0107C135.057 12.7661 135.414 13.3885 136.544 14.3796C137.988 15.6487 138.448 16.531 138.448 17.8968C138.448 19.7097 137.535 20.6887 135.837 20.6887C134.139 20.6887 133.299 19.6614 133.299 17.9028Z" fill="white" stroke="#263238" stroke-width="0.75" stroke-linecap="round" stroke-linejoin="round"/>
<path d="M231.394 56.1802C233.033 49.3039 228.788 42.4006 221.912 40.7612C215.036 39.1218 208.132 43.3671 206.493 50.2433C204.853 57.1196 209.099 64.0229 215.975 65.6623C222.851 67.3017 229.755 63.0564 231.394 56.1802Z" fill="#FECE3E"/>
<path opacity="0.3" d="M231.394 56.1802C233.033 49.3039 228.788 42.4006 221.912 40.7612C215.036 39.1218 208.132 43.3671 206.493 50.2433C204.853 57.1196 209.099 64.0229 215.975 65.6623C222.851 67.3017 229.755 63.0564 231.394 56.1802Z" fill="white"/>
<path d="M231.394 56.1802C233.033 49.3039 228.788 42.4006 221.912 40.7612C215.036 39.1218 208.132 43.3671 206.493 50.2433C204.853 57.1196 209.099 64.0229 215.975 65.6623C222.851 67.3017 229.755 63.0564 231.394 56.1802Z" stroke="#263238" stroke-width="0.75" stroke-linecap="round" stroke-linejoin="round"/>
<path d="M213.897 55.7455V50.6631C213.897 49.2067 214.653 48.3425 216.085 48.3425C217.517 48.3425 218.273 49.2067 218.273 50.6631V51.6663H216.87V50.5725C216.87 49.9682 216.568 49.6902 216.127 49.6902C215.686 49.6902 215.384 49.95 215.384 50.5725V55.8482C215.384 56.4525 215.68 56.7124 216.127 56.7124C216.574 56.7124 216.87 56.4706 216.87 55.8482V54.4039H218.273V55.7394C218.273 57.1958 217.517 58.06 216.085 58.06C214.653 58.06 213.897 57.2019 213.897 55.7455Z" fill="white" stroke="#263238" stroke-width="0.75" stroke-linecap="round" stroke-linejoin="round"/>
<path d="M219.493 55.2439H218.828L218.937 54.1923H219.602L219.856 51.7207H219.173L219.282 50.6631H219.958L220.188 48.4875H221.36L221.131 50.6631H222.092L222.321 48.4875H223.5L223.27 50.6631H223.959L223.85 51.7207H223.161L222.902 54.1923H223.59L223.482 55.2439H222.799L222.515 57.9452H221.342L221.626 55.2439H220.666L220.381 57.9452H219.209L219.493 55.2439ZM221.735 54.1923L221.989 51.7207H221.034L220.774 54.1923H221.735Z" fill="white" stroke="#263238" stroke-width="0.75" stroke-linecap="round" stroke-linejoin="round"/>
<path d="M67.6271 200.589H65.3851L64.7808 111.597H67.6271V200.589Z" fill="#858585" stroke="#263238" stroke-linecap="round" stroke-linejoin="round"/>
<path d="M69.8629 200.589H67.627V111.597H70.4673L69.8629 200.589Z" fill="#999999" stroke="#263238" stroke-linecap="round" stroke-linejoin="round"/>
<path d="M195.598 106.152H41.9736V111.603H195.598V106.152Z" fill="#263238" stroke="#263238" stroke-linecap="round" stroke-linejoin="round"/>
<path d="M227.699 106.152H193.302V111.603H227.699V106.152Z" fill="#858585" stroke="#263238" stroke-linecap="round" stroke-linejoin="round"/>
<path d="M202.566 111.597H49.8418V120.577H202.566V111.597Z" fill="#FECE3E" stroke="#263238" stroke-miterlimit="10"/>
<path d="M202.566 120.583H220.351V111.603H202.566V120.583Z" fill="#FECE3E"/>
<path opacity="0.3" d="M202.566 120.583H220.351V111.603H202.566V120.583Z" fill="black"/>
<path d="M202.566 120.583H220.351V111.603H202.566V120.583Z" stroke="#263238" stroke-miterlimit="10"/>
<path d="M202.566 200.589H200.33L199.726 111.597H202.566V200.589Z" fill="#858585" stroke="#263238" stroke-linecap="round" stroke-linejoin="round"/>
<path d="M204.808 200.589H202.566V111.597H205.412L204.808 200.589Z" fill="#999999" stroke="#263238" stroke-linecap="round" stroke-linejoin="round"/>
<path d="M49.842 200.589H47.5999L46.9956 111.597H49.842V200.589Z" fill="#858585" stroke="#263238" stroke-linecap="round" stroke-linejoin="round"/>
<path d="M52.0778 200.589H49.8418V111.597H52.6821L52.0778 200.589Z" fill="#999999" stroke="#263238" stroke-linecap="round" stroke-linejoin="round"/>
<path d="M220.351 200.589H218.109L217.505 111.597H220.351V200.589Z" fill="#858585" stroke="#263238" stroke-linecap="round" stroke-linejoin="round"/>
<path d="M222.587 200.589H220.351V111.597H223.191L222.587 200.589Z" fill="#999999" stroke="#263238" stroke-linecap="round" stroke-linejoin="round"/>
<path d="M141.245 105.548H123.243C123.066 105.546 122.897 105.475 122.772 105.349C122.648 105.223 122.578 105.054 122.578 104.877V103.39L141.916 103.994V104.877C141.916 105.055 141.845 105.225 141.72 105.351C141.594 105.477 141.423 105.548 141.245 105.548Z" fill="#858585" stroke="#263238" stroke-linecap="round" stroke-linejoin="round"/>
<path d="M120.566 105.547H84.3728C84.0751 105.536 83.788 105.433 83.5511 105.253C83.3142 105.072 83.1389 104.822 83.0494 104.538L75.2778 79.3139C75.2196 79.1667 75.1989 79.0073 75.2176 78.8501C75.2363 78.6929 75.2938 78.5428 75.3849 78.4134C75.476 78.2839 75.5979 78.1792 75.7395 78.1085C75.8812 78.0378 76.0381 78.0035 76.1964 78.0085H112.389C112.686 78.0184 112.973 78.1202 113.21 78.2998C113.447 78.4795 113.623 78.7282 113.713 79.0117L121.484 104.236C121.542 104.384 121.563 104.543 121.544 104.701C121.525 104.858 121.468 105.008 121.377 105.138C121.286 105.268 121.164 105.373 121.023 105.445C120.881 105.516 120.724 105.551 120.566 105.547Z" fill="#999999" stroke="#263238" stroke-linecap="round" stroke-linejoin="round"/>
<path d="M123.086 104.236L115.314 79.0117C115.224 78.7282 115.049 78.4795 114.812 78.2998C114.575 78.1202 114.288 78.0184 113.991 78.0085H112.389C112.686 78.0184 112.973 78.1202 113.21 78.2998C113.447 78.4795 113.623 78.7282 113.713 79.0117L121.484 104.236C121.542 104.384 121.563 104.543 121.544 104.701C121.525 104.858 121.468 105.008 121.377 105.138C121.286 105.268 121.164 105.373 121.023 105.445C120.881 105.516 120.724 105.551 120.566 105.547H122.191C122.348 105.547 122.502 105.509 122.64 105.436C122.778 105.363 122.897 105.257 122.985 105.128C123.073 104.999 123.128 104.85 123.146 104.695C123.163 104.539 123.143 104.382 123.086 104.236Z" fill="#858585" stroke="#263238" stroke-linecap="round" stroke-linejoin="round"/>
<path d="M100.623 91.7751C100.667 92.056 100.649 92.3432 100.57 92.6164C100.492 92.8896 100.353 93.1422 100.166 93.3561C99.9787 93.57 99.7465 93.7401 99.4861 93.8543C99.2256 93.9686 98.9432 94.0241 98.6589 94.0171C98.0423 94.0016 97.4511 93.7678 96.9907 93.3572C96.5304 92.9466 96.2306 92.386 96.145 91.7751C96.1005 91.4944 96.1183 91.2075 96.1973 90.9345C96.2763 90.6616 96.4145 90.4094 96.602 90.1959C96.7895 89.9825 97.0218 89.8129 97.2822 89.6994C97.5427 89.5859 97.825 89.5311 98.109 89.5391C98.7244 89.5555 99.3142 89.789 99.7742 90.1981C100.234 90.6072 100.535 91.1658 100.623 91.7751Z" fill="white" stroke="#263238" stroke-linecap="round" stroke-linejoin="round"/>
</svg>
